<svg width="77" height="42" viewBox="0 0 77 42" fill="none" xmlns="http://www.w3.org/2000/svg">
<g opacity="0.5" clip-path="url(#clip0_456_875)">
<path d="M39.4072 8.64701e-05C40.3538 0.672288 40.7397 1.59446 40.5606 2.7141C40.3709 3.90096 40.8101 4.65928 41.8974 5.23066C43.0807 5.85244 44.1681 6.65278 45.3919 7.43632C45.4644 7.13593 45.4601 6.88175 45.5795 6.7137C45.7202 6.51624 45.9825 6.25996 46.1701 6.27677C46.3599 6.29357 46.637 6.58976 46.6797 6.79983C46.9505 8.15473 47.2106 9.51594 47.3918 10.8856C47.5752 12.2741 47.0507 13.4525 46.2597 14.6037C45.8951 15.133 45.8972 15.9271 45.8034 16.6098C45.7075 17.3135 45.765 17.8828 46.588 18.3197C47.0549 18.5676 47.4728 19.4225 47.4344 19.9708C47.3513 21.1744 47.8374 21.8634 48.8416 22.3781C49.3021 22.6134 49.7094 22.9474 50.1422 23.2373C50.2317 23.1595 50.3234 23.0818 50.413 23.0041C50.236 22.7604 50.0292 22.5335 49.8927 22.271C49.7477 21.9874 49.5345 21.6429 49.5921 21.3761C49.6923 20.9161 49.9226 20.456 50.1976 20.0632C50.705 19.3385 51.2402 18.618 51.85 17.9773C52.3851 17.4143 53.2614 17.1391 53.1847 16.1203C53.1719 15.9607 53.6068 15.5931 53.7241 15.633C53.9671 15.7149 54.3168 16.0258 54.2997 16.2128C54.2358 16.9102 54.6728 17.2085 55.1419 17.5425C56.3295 18.3848 57.3976 19.1998 57.5789 20.893C57.6535 21.5778 57.7494 21.9013 57.3849 22.5777C57.0032 23.2835 57.2996 24.3464 57.2996 25.3316H65.8961C65.8961 24.4766 65.8961 23.6469 65.8961 22.8171C65.8961 22.7478 65.9089 22.6575 65.8705 22.6113C65.5934 22.271 65.0156 21.6954 65.0625 21.6408C66.0198 20.5358 65.7426 18.7146 67.3523 17.9668C68.0794 17.6286 68.8362 17.1139 68.7723 16.0678C68.7638 15.9208 69.1433 15.6582 69.3693 15.6267C69.5142 15.6057 69.8703 15.9292 69.8532 16.0636C69.7232 17.0446 70.4822 17.4038 71.0941 17.8323C72.1729 18.5886 72.9639 19.4141 73.1153 20.8551C73.1814 21.4958 73.7955 22.0252 72.8957 22.5251C72.7912 22.5819 72.8339 22.9222 72.8339 23.1301C72.8318 28.7661 72.8339 34.4021 72.8339 40.0381C72.8339 40.2104 72.8723 40.3826 72.9106 40.6998C73.401 40.6998 73.9063 40.6116 74.3647 40.7187C75.29 40.9351 77.0234 40.1158 76.9978 41.2376C76.9701 42.5273 75.241 41.7858 74.3157 41.7984C68.171 41.8803 62.0243 41.8404 55.8775 41.8404C37.7569 41.8404 19.6385 41.8446 1.518 41.8215C0.974324 41.8215 -0.0213568 42.227 -0.00216805 41.2544C0.0148886 40.3175 0.99138 40.7649 1.54998 40.7187C2.39002 40.6473 3.24072 40.6998 4.15965 40.6998C4.1895 40.3154 4.23214 40.0129 4.23214 39.7125C4.2364 34.2509 4.2364 28.7913 4.23214 23.3297C4.23214 22.8717 4.39844 22.3403 3.67993 22.1617C3.56693 22.1344 3.46246 21.6744 3.52003 21.458C3.65648 20.9581 3.80999 20.4245 4.10848 20.0107C4.66708 19.2356 5.29818 18.5003 5.96978 17.8155C6.44524 17.3282 7.17441 17.0677 7.08273 16.1749C7.06567 16.0069 7.48356 15.7926 7.70103 15.5994C7.88865 15.822 8.10613 16.0258 8.2575 16.2695C8.47924 16.6287 8.56026 17.1223 8.86088 17.3723C10.0143 18.3302 11.2254 19.0696 11.4599 20.8656C11.558 21.6261 11.7307 21.8992 11.2232 22.6218C10.7947 23.231 11.1358 24.3674 11.1358 25.3379H19.7878C19.7878 24.4976 19.7942 23.67 19.7814 22.8402C19.7793 22.6764 19.7323 22.3991 19.6428 22.3697C18.6493 22.0483 18.6045 21.6408 19.453 21.061C19.5575 20.9896 19.5703 20.7438 19.5703 20.58C19.5831 19.5401 20.1417 18.8448 20.9348 18.2189C21.664 17.6433 22.7492 17.2925 22.6405 16.0342C22.6298 15.904 23.0051 15.6057 23.1565 15.633C23.3825 15.6729 23.7556 15.9502 23.7428 16.0951C23.6596 16.9585 24.2524 17.3387 24.828 17.7483C25.9175 18.5213 26.7341 19.3553 26.9238 20.8425C27.0155 21.5505 27.4739 22.0504 26.6424 22.5525C26.5507 22.6071 26.6296 22.939 26.6296 23.357C27.5827 22.7058 28.4334 22.2058 29.1689 21.5757C29.4141 21.3656 29.4376 20.8194 29.4376 20.4266C29.4333 19.3763 29.655 18.4835 30.7317 17.9962C30.8959 17.9227 31.1176 17.6979 31.1049 17.5635C31.0004 16.406 31.4716 15.2297 30.4567 14.1226C29.3139 12.8749 29.3096 11.2616 29.7936 9.65248C30.009 8.93197 30.0559 8.16314 30.2307 7.43002C30.333 7.00149 30.5356 6.59396 30.6955 6.17804C31.0217 6.49313 31.3479 6.80823 31.7914 7.23676C33.1261 6.42591 34.6654 5.51634 36.1707 4.55425C36.3796 4.41981 36.5011 4.0396 36.5267 3.76232C36.5822 3.17204 36.4031 2.52504 36.5843 1.98938C36.8252 1.28147 37.3199 0.657584 37.7036 -0.00201416H39.4093L39.4072 8.64701e-05ZM40.6395 13.6017C40.9849 13.6185 41.2621 13.6437 41.5414 13.6458C42.7481 13.65 43.957 13.6878 45.1595 13.6164C45.4559 13.5996 45.8418 13.2761 45.9974 12.9946C46.9057 11.3456 46.3386 9.32058 44.6393 8.22405C43.2449 7.32498 41.8825 6.28727 40.3495 5.7222C39.2963 5.33359 37.8465 5.32308 36.8039 5.7222C35.2112 6.33349 33.7891 7.40481 32.3479 8.35639C30.7701 9.39831 30.2542 11.3813 31.0899 12.9904C31.2306 13.2635 31.5505 13.6248 31.7999 13.6332C33.3819 13.692 34.9682 13.6626 36.6397 13.6626C36.6397 13.0849 36.6014 12.6333 36.6483 12.1879C36.7485 11.2006 37.8763 9.95707 38.629 9.95287C39.3496 9.95077 40.3879 11.1187 40.5265 12.1249C40.5926 12.6018 40.6033 13.0849 40.6416 13.5975L40.6395 13.6017ZM57.3252 29.5076V33.2552H65.9217V29.5076H57.3252ZM19.7899 29.5307H11.1912V33.2993H19.7899V29.5307ZM57.3529 34.5134V38.3933H61.035C61.035 37.8997 60.9689 37.4417 61.0606 37.0153C61.1117 36.7716 61.423 36.5847 61.617 36.3704C61.8217 36.6015 62.1394 36.8073 62.2033 37.072C62.3036 37.4858 62.2289 37.9396 62.2289 38.3639H65.943V34.5134H57.3507H57.3529ZM11.1635 34.5092V38.3891H14.8819C14.8819 37.8955 14.8179 37.4375 14.9075 37.0111C14.9565 36.7716 15.2592 36.5805 15.4469 36.3683C15.6537 36.5679 15.9799 36.7359 16.0417 36.9733C16.1569 37.4228 16.1206 37.9102 16.1462 38.3639H19.7814V34.5092H11.1635ZM39.1684 17.8344H41.552C41.552 17.3786 41.4817 16.9522 41.5798 16.5657C41.6373 16.3367 41.9635 16.1707 42.1682 15.9775C42.3366 16.1728 42.5968 16.3451 42.6501 16.5657C42.746 16.9606 42.7162 17.3828 42.7396 17.8134H44.6627V14.9398H32.4459V17.8554H34.3264C34.3584 17.5719 34.335 17.3114 34.4266 17.1013C34.5972 16.7106 34.836 16.3493 35.0449 15.9775C35.2304 16.3703 35.4394 16.7547 35.595 17.158C35.6782 17.3702 35.6696 17.616 35.7016 17.8407H37.9446C37.9446 17.3975 37.8763 17.0026 37.968 16.6476C38.0341 16.3955 38.3177 16.198 38.5032 15.9775C38.7249 16.198 39.0575 16.385 39.1428 16.6497C39.2537 16.9921 39.1705 17.3954 39.1705 17.8302L39.1684 17.8344ZM30.8234 20.7396H46.2874C46.4558 19.3469 46.2597 19.1116 44.9591 19.1095C40.6992 19.1053 36.4414 19.1074 32.1816 19.1095C30.8469 19.1095 30.6784 19.3091 30.8234 20.7396ZM50.3469 38.3891C50.5515 37.698 50.3746 37.3766 49.6667 37.4249C49.2424 37.4543 48.816 37.4291 48.3896 37.4291C41.5009 37.4291 34.6143 37.4291 27.7255 37.427C27.0944 37.427 26.442 37.3703 26.7789 38.387H50.349L50.3469 38.3891ZM53.1271 39.7692H23.907C23.5914 40.8153 24.3312 40.6284 24.8515 40.6284C32.625 40.6347 40.3986 40.6326 48.1743 40.6326C49.6305 40.6326 51.0846 40.6221 52.5408 40.6347C53.1719 40.641 53.3808 40.3994 53.1271 39.7671V39.7692ZM9.86296 28.304V22.4264H5.57961V28.304H9.86296ZM67.25 22.4516V28.2935H71.5184V22.4516H67.25ZM21.1203 28.2326H25.6403C25.4634 27.6108 25.474 26.968 25.1542 26.6676C24.3419 25.9072 24.2886 23.9431 25.1691 23.2604C25.3291 23.1364 25.4847 22.857 25.4485 22.689C25.4165 22.5377 25.1201 22.3424 24.9368 22.3382C23.6746 22.3067 22.4124 22.3214 21.1203 22.3214V28.2326ZM29.2158 23.2793C31.7125 23.2793 33.9768 23.3171 36.2368 23.252C36.7677 23.2373 37.3796 22.9831 37.7889 22.6449C38.388 22.1491 38.7633 22.1953 39.3347 22.6743C39.7184 22.9957 40.2962 23.2373 40.7973 23.252C42.8526 23.315 44.9101 23.2814 46.9675 23.2751C47.2148 23.2751 47.4643 23.2247 47.7926 23.1889C46.9291 22.292 46.0315 21.9622 44.8738 21.979C40.6544 22.042 36.4329 22.0441 32.2135 21.979C31.0494 21.9601 30.1753 22.3256 29.2137 23.2793H29.2158ZM55.9947 28.304V22.3886C54.7219 22.3886 53.5194 22.3739 52.3212 22.4033C52.1207 22.4075 51.9267 22.5924 51.7284 22.6953C51.8585 22.8991 51.9438 23.1574 52.125 23.3003C52.6815 23.7372 52.9373 26.1172 52.3276 26.4302C51.3681 26.9218 51.7476 27.594 51.769 28.3061H55.9947V28.304ZM21.1395 34.5786V38.4206H25.4229V34.5786H21.1395ZM67.1924 33.2573H71.5376V29.4656C70.2434 29.4656 69.0132 29.4404 67.7873 29.4908C67.5826 29.4992 67.2287 29.8185 67.218 30.0076C67.1626 31.0726 67.1903 32.1439 67.1903 33.2594L67.1924 33.2573ZM25.4207 33.3077V29.5349H21.1651V33.3077H25.4207ZM5.56469 33.3455C6.89297 33.3455 8.12318 33.3707 9.35126 33.3203C9.54954 33.3119 9.89068 32.98 9.90134 32.7846C9.95677 31.7196 9.92692 30.6525 9.92692 29.5244H5.56469V33.3455ZM55.9947 33.3014V29.5244H51.7945V33.3014H55.9947ZM55.9841 38.3828V34.5239H51.7476V38.3828H55.9841ZM71.5461 38.3996V34.5197H67.267V38.3534H68.8213C68.8213 37.8492 68.7467 37.4123 68.849 37.0216C68.9109 36.7821 69.2456 36.6099 69.4567 36.4082C69.64 36.6204 69.9343 36.8115 69.9833 37.0489C70.0707 37.4711 70.0068 37.9228 70.0068 38.3975H71.5482L71.5461 38.3996ZM7.06354 38.3996C7.08912 37.8282 7.04009 37.3598 7.15735 36.9334C7.21918 36.7065 7.54113 36.4733 7.79058 36.4082C7.90145 36.3788 8.23618 36.738 8.2703 36.9523C8.34492 37.4165 8.29375 37.8997 8.29375 38.366H9.86722V34.5155H5.57535V38.3996H7.06354ZM48.0975 36.1876V32.5599H44.1468V36.1876H48.0975ZM32.9853 32.5515H28.9984V36.1918H32.9853V32.5515ZM40.6161 36.2044V32.5704H36.6397V36.2044H40.6161ZM57.3166 28.2746H65.8897V26.7054H57.3166V28.2746ZM19.7729 26.6949H11.1827V28.2305H19.7729V26.6949ZM71.5099 39.7839C71.3819 39.7356 71.318 39.6915 71.254 39.6915C65.8641 39.681 60.4721 39.6684 55.0822 39.6852C54.8541 39.6852 54.6259 39.952 54.3957 40.0948C54.6281 40.2755 54.8562 40.6053 55.0907 40.6095C57.0053 40.6536 58.9199 40.6347 60.8367 40.6347C64.1009 40.6347 67.363 40.6347 70.6272 40.6347C71.1773 40.6347 71.7742 40.6956 71.512 39.7818L71.5099 39.7839ZM22.6938 40.0591C22.6064 39.9541 22.5168 39.849 22.4294 39.744H5.56469C5.50712 39.8553 5.44956 39.9688 5.39199 40.0801C5.67129 40.265 5.95059 40.6074 6.23203 40.6095C11.4471 40.641 16.6622 40.641 21.8751 40.6095C22.148 40.6095 22.4166 40.2524 22.6874 40.0591H22.6938ZM21.0137 21.1261C22.278 21.1261 23.5829 21.1387 24.8877 21.1219C25.7192 21.1093 26.0838 20.6367 25.5849 20.0107C24.9922 19.2671 24.1777 18.6411 23.3356 18.1768C23.0989 18.0466 22.4209 18.6453 21.971 18.9478C21.2504 19.4351 20.5745 19.9645 21.0116 21.1261H21.0137ZM7.64346 18.0088C6.97612 18.5276 6.29386 18.9331 5.79282 19.496C5.4922 19.8342 5.47514 20.4161 5.33016 20.8888C5.67982 20.9812 6.02522 21.1387 6.37701 21.1534C7.25756 21.1912 8.14237 21.1996 9.02292 21.1513C9.39817 21.1303 9.76488 20.9392 10.1359 20.8257C9.96317 20.3615 9.912 19.7838 9.59432 19.4561C9.06556 18.9121 8.36837 18.5297 7.64346 18.0109V18.0088ZM56.2079 21.166C56.5022 19.099 54.6494 18.9814 53.788 17.9731C53.0354 18.5823 52.3318 19.0612 51.754 19.6578C51.5088 19.912 51.4022 20.435 51.4726 20.79C51.5088 20.9686 52.076 21.1387 52.4086 21.1492C53.6367 21.1912 54.869 21.166 56.2058 21.166H56.2079ZM69.3778 17.9563C68.6038 18.5781 67.9024 19.0591 67.3097 19.6452C66.7298 20.2208 66.8491 21.1135 67.4461 21.1366C68.8789 21.1954 70.3138 21.1555 71.7615 21.1555C72.1111 19.1284 70.2519 19.0045 69.3778 17.9542V17.9563ZM49.4642 36.112C49.5814 36.1981 49.7008 36.2843 49.8181 36.3704C50.0249 36.0994 50.4066 35.8305 50.413 35.5554C50.4577 32.8287 50.4492 30.1021 50.4343 27.3755C50.43 26.6046 50.3959 26.6046 49.4663 26.8083V36.1099L49.4642 36.112ZM42.8078 26.7285C42.0467 26.5079 41.8271 26.7705 41.8335 27.4259C41.8569 30.1126 41.8527 32.7993 41.8356 35.4881C41.8313 36.2549 42.1511 36.3914 42.8078 36.112V26.7285ZM34.3627 26.7201V36.1645C35.1068 36.3809 35.32 36.1141 35.3157 35.4566C35.2923 32.7636 35.2923 30.0727 35.3157 27.3797C35.3221 26.6655 35.0044 26.5373 34.3648 26.7201H34.3627ZM27.6338 36.1498V26.7264C26.9004 26.5016 26.6787 26.7621 26.6829 27.4238C26.7064 30.1126 26.7042 32.8035 26.6829 35.4923C26.6787 36.175 26.9409 36.3767 27.6317 36.1519L27.6338 36.1498ZM40.6651 24.5859C40.5713 24.6888 40.4775 24.7938 40.3837 24.8968C40.6438 25.0942 40.9018 25.4597 41.1619 25.4618C44.3173 25.5017 47.4728 25.4807 50.6283 25.4933C51.3468 25.4954 51.4939 25.214 51.204 24.5859H40.6651ZM25.8727 25.3862H36.5992C36.6568 25.2917 36.7144 25.195 36.7719 25.1005C36.5267 24.9094 36.2837 24.5565 36.0342 24.5523C32.8382 24.5144 29.6401 24.5354 26.4441 24.5207C25.764 24.5186 25.6808 24.8253 25.8727 25.3841V25.3862ZM33.0045 29.5349H29.0175V31.2302H33.0045V29.5349ZM40.6182 29.556H36.6099V31.1965H40.6182V29.556ZM44.1382 31.1608H48.2425C48.1999 30.5306 48.1679 30.0286 48.1359 29.5476H44.1404V31.1608H44.1382ZM44.1574 26.7012V28.2536H48.138V26.7012H44.1574ZM28.9941 28.2368H32.9811V26.7033H28.9941V28.2368ZM40.5969 26.7264H36.6312V28.2494H40.5969V26.7264ZM37.7676 4.12362H39.3901C39.3901 3.3842 39.469 2.68259 39.3539 2.01249C39.3027 1.7142 38.8677 1.28147 38.5991 1.27517C38.3262 1.26887 37.855 1.68269 37.8038 1.96838C37.6844 2.63848 37.7655 3.34429 37.7655 4.12152L37.7676 4.12362ZM38.9125 11.0788C37.6631 11.8855 37.8806 12.7446 37.9488 13.5744H39.4327C39.2622 12.7572 39.1151 12.0514 38.9125 11.0788ZM39.4455 25.382C39.1534 24.7266 38.9189 24.2035 38.6865 23.6805C38.5629 23.6973 38.4413 23.7141 38.3177 23.7309C38.145 24.2477 37.9723 24.7665 37.7655 25.382H39.4455Z" fill="#1D6B4E"/>
<path d="M23.8792 25.3714C23.9453 25.3231 24.0114 25.2769 24.0796 25.2286C23.8046 24.8379 23.5232 24.1153 23.2566 24.1216C22.423 24.1405 22.7343 24.9135 22.6831 25.4155C22.6554 25.6844 22.6575 25.9911 22.7663 26.2285C22.8473 26.407 23.1223 26.6129 23.3014 26.6045C23.4848 26.5982 23.7385 26.3755 23.8131 26.1907C23.9112 25.947 23.8643 25.6466 23.8792 25.3714Z" fill="white"/>
<path d="M61.713 30.707C61.9454 31.123 62.2204 31.396 62.1735 31.5977C62.1266 31.8015 61.777 32.0262 61.5318 32.0619C61.4081 32.0808 61.0798 31.6859 61.1011 31.5095C61.1309 31.2763 61.4145 31.0746 61.713 30.707Z" fill="black"/>
<path d="M16.2936 31.4822C15.9119 31.772 15.6816 32.085 15.4791 32.0661C15.2702 32.0472 14.9823 31.7321 14.9333 31.5053C14.9013 31.3603 15.236 30.9906 15.4151 30.9843C15.6454 30.978 15.8842 31.2343 16.2936 31.4822Z" fill="black"/>
<path d="M8.27866 25.3819C8.27866 25.6235 8.35115 25.8987 8.25947 26.1003C8.1614 26.3146 7.90768 26.4595 7.72219 26.636C7.51325 26.26 7.16359 25.8966 7.13374 25.5079C7.09323 24.9975 6.79047 24.2118 7.70087 24.1131C7.86291 24.0963 8.1081 24.7307 8.29359 25.0752C8.33836 25.1571 8.29998 25.279 8.29998 25.384C8.29359 25.384 8.28719 25.384 8.28079 25.384L8.27866 25.3819Z" fill="black"/>
<path d="M68.8299 25.2642C68.8299 25.0227 68.7404 24.7244 68.8534 24.5521C68.992 24.34 69.2968 24.2307 69.5292 24.0774C69.6891 24.4198 70.0047 24.7769 69.9748 25.1046C69.9301 25.6235 69.6529 26.1213 69.4759 26.6276C69.2649 26.4847 68.9493 26.3839 68.8662 26.1885C68.751 25.9196 68.8129 25.5772 68.7979 25.2642C68.8086 25.2642 68.8193 25.2642 68.8299 25.2642Z" fill="black"/>
<path d="M23.8792 25.3714C23.8643 25.6466 23.9112 25.947 23.8131 26.1907C23.7385 26.3755 23.4848 26.5982 23.3014 26.6045C23.1202 26.6108 22.8473 26.407 22.7663 26.2285C22.6575 25.9911 22.6554 25.6844 22.6831 25.4155C22.7343 24.9135 22.423 24.1405 23.2566 24.1216C23.5232 24.1153 23.8046 24.84 24.0796 25.2286C24.0135 25.2769 23.9474 25.3231 23.8792 25.3714Z" fill="black"/>
<path d="M53.2293 25.3105C53.2421 25.0332 53.193 24.7328 53.2911 24.487C53.3636 24.3022 53.6216 24.0837 53.8049 24.0753C53.9862 24.0669 54.3252 24.2896 54.3422 24.4387C54.4105 25.0185 54.4169 25.613 54.3593 26.1927C54.3422 26.3545 54.0054 26.6255 53.8582 26.6003C53.6408 26.5646 53.3743 26.3419 53.289 26.1339C53.1909 25.8966 53.2655 25.5878 53.2655 25.3105C53.2549 25.3105 53.2421 25.3105 53.2314 25.3105H53.2293Z" fill="black"/>
<path d="M23.2015 37.4206C22.9136 37.0068 22.6045 36.7526 22.6343 36.5509C22.6684 36.3304 22.9925 36.0657 23.2398 36.0006C23.3635 35.967 23.7451 36.3346 23.743 36.5173C23.743 36.7547 23.4744 36.9921 23.2015 37.4185V37.4206Z" fill="black"/>
<path d="M69.4121 30.707C69.6744 31.083 69.9686 31.3246 69.9281 31.4885C69.8705 31.7258 69.572 31.9044 69.3759 32.1082C69.1925 31.9254 68.8599 31.7405 68.8663 31.5641C68.8727 31.3288 69.1435 31.1019 69.4121 30.707Z" fill="black"/>
<path d="M23.1438 32.3623C22.8879 31.9506 22.5916 31.6817 22.6364 31.4906C22.6854 31.2763 23.0244 31.0368 23.2717 30.9906C23.3996 30.9675 23.7514 31.3498 23.7365 31.5263C23.7173 31.7616 23.4359 31.9737 23.1417 32.3623H23.1438Z" fill="black"/>
<path d="M7.70321 30.6461C7.98038 31.0641 8.27248 31.3141 8.24263 31.5179C8.21278 31.7342 7.87591 31.9107 7.67336 32.104C7.4964 31.9212 7.17659 31.7363 7.17872 31.5536C7.17872 31.3162 7.43457 31.0809 7.70321 30.6461Z" fill="black"/>
<path d="M53.8776 32.3518C53.5833 31.9947 53.2657 31.772 53.2976 31.6103C53.3424 31.3666 53.6302 31.1691 53.8136 30.9507C54.0055 31.1187 54.3488 31.2826 54.3552 31.4569C54.3658 31.6922 54.1164 31.938 53.8776 32.3497V32.3518Z" fill="black"/>
<path d="M54.6493 36.5614C54.242 36.8198 54.0096 37.0803 53.7772 37.0803C53.6045 37.0803 53.2655 36.7106 53.2975 36.5656C53.3466 36.3304 53.6195 36.009 53.8327 35.9775C54.0246 35.9502 54.2655 36.2695 54.6493 36.5614Z" fill="black"/>
</g>
<defs>
<clipPath id="clip0_456_875">
<rect width="77" height="42" fill="white"/>
</clipPath>
</defs>
</svg>
