<svg width="44" height="44" viewBox="0 0 44 44" fill="none" xmlns="http://www.w3.org/2000/svg">
<path d="M26.5272 17.4728C26.3994 17.3451 26.2979 17.1934 26.2287 17.0265C26.1595 16.8596 26.1239 16.6807 26.1239 16.5C26.1239 16.3193 26.1595 16.1404 26.2287 15.9734C26.2979 15.8065 26.3994 15.6549 26.5272 15.5272L32.4311 9.62498H28.875C28.5103 9.62498 28.1606 9.48012 27.9027 9.22225C27.6449 8.96439 27.5 8.61466 27.5 8.24998C27.5 7.88531 27.6449 7.53557 27.9027 7.27771C28.1606 7.01985 28.5103 6.87498 28.875 6.87498H35.75C36.1147 6.87498 36.4644 7.01985 36.7223 7.27771C36.9802 7.53557 37.125 7.88531 37.125 8.24998V15.125C37.125 15.4897 36.9802 15.8394 36.7223 16.0973C36.4644 16.3551 36.1147 16.5 35.75 16.5C35.3853 16.5 35.0356 16.3551 34.7777 16.0973C34.5199 15.8394 34.375 15.4897 34.375 15.125V11.5689L28.4728 17.4728C28.3451 17.6006 28.1935 17.7021 28.0266 17.7713C27.8596 17.8404 27.6807 17.8761 27.5 17.8761C27.3193 17.8761 27.1404 17.8404 26.9735 17.7713C26.8066 17.7021 26.6549 17.6006 26.5272 17.4728ZM39.8544 30.0919C39.5479 32.4208 38.4042 34.5586 36.6367 36.1059C34.8693 37.6532 32.599 38.5042 30.25 38.5C16.6031 38.5 5.50002 27.3969 5.50002 13.75C5.4958 11.401 6.34682 9.13071 7.89412 7.36327C9.44142 5.59583 11.5792 4.45207 13.9081 4.14561C14.4969 4.07357 15.0931 4.1938 15.6079 4.48837C16.1227 4.78295 16.5285 5.23607 16.7647 5.78014L20.3947 13.8858V13.9064C20.5753 14.3231 20.6499 14.7781 20.6118 15.2306C20.5737 15.6832 20.4241 16.1193 20.1764 16.5C20.1455 16.5464 20.1128 16.5894 20.0785 16.6323L16.5 20.8742C17.7874 23.4901 20.5236 26.2023 23.1739 27.4931L27.3574 23.9336C27.3984 23.899 27.4415 23.8669 27.4863 23.8373C27.8662 23.5826 28.3039 23.4272 28.7593 23.3851C29.2148 23.3431 29.6735 23.4158 30.0936 23.5967L30.116 23.607L38.213 27.2353C38.7583 27.4704 39.2129 27.8757 39.5088 28.3906C39.8047 28.9055 39.9259 29.5023 39.8544 30.0919ZM37.125 29.7481C37.125 29.7481 37.113 29.7481 37.1061 29.7481L29.028 26.1284L24.8428 29.6897C24.8022 29.7241 24.7598 29.7562 24.7156 29.7859C24.3199 30.0499 23.8625 30.2068 23.388 30.2411C22.9135 30.2755 22.4382 30.1861 22.0086 29.9819C18.7894 28.4264 15.5805 25.2415 14.0233 22.0567C13.8171 21.6302 13.7246 21.1577 13.7547 20.6849C13.7848 20.2121 13.9365 19.7552 14.1952 19.3583C14.2243 19.3117 14.2571 19.2674 14.2931 19.2259L17.875 14.9789L14.2656 6.90076C14.265 6.89391 14.265 6.887 14.2656 6.88014C12.5989 7.09756 11.0686 7.91511 9.96122 9.17968C8.85389 10.4443 8.24551 12.0691 8.25002 13.75C8.25638 19.5828 10.5763 25.1749 14.7007 29.2993C18.8251 33.4237 24.4172 35.7436 30.25 35.75C31.9298 35.7558 33.5543 35.1495 34.8196 34.0446C36.0849 32.9396 36.9044 31.4117 37.125 29.7464V29.7481Z" fill="#2B9061"/>
</svg>
