<svg width="16" height="16" viewBox="0 0 16 16" fill="none" xmlns="http://www.w3.org/2000/svg">
<path d="M1.99997 8.00003C1.99997 8.13264 2.05265 8.25982 2.14642 8.35359C2.24019 8.44736 2.36737 8.50003 2.49997 8.50003H12.2931L8.64622 12.1463C8.59977 12.1927 8.56292 12.2479 8.53778 12.3086C8.51263 12.3693 8.4997 12.4343 8.4997 12.5C8.4997 12.5657 8.51263 12.6308 8.53778 12.6915C8.56292 12.7522 8.59977 12.8073 8.64622 12.8538C8.69268 12.9002 8.74783 12.9371 8.80852 12.9622C8.86922 12.9874 8.93428 13.0003 8.99997 13.0003C9.06567 13.0003 9.13072 12.9874 9.19142 12.9622C9.25212 12.9371 9.30727 12.9002 9.35372 12.8538L13.8537 8.35378C13.9002 8.30735 13.9371 8.2522 13.9623 8.1915C13.9874 8.1308 14.0004 8.06574 14.0004 8.00003C14.0004 7.93433 13.9874 7.86926 13.9623 7.80856C13.9371 7.74786 13.9002 7.69272 13.8537 7.64628L9.35372 3.14628C9.2599 3.05246 9.13266 2.99976 8.99997 2.99976C8.86729 2.99976 8.74004 3.05246 8.64622 3.14628C8.5524 3.2401 8.4997 3.36735 8.4997 3.50003C8.4997 3.63272 8.5524 3.75996 8.64622 3.85378L12.2931 7.50003H2.49997C2.36737 7.50003 2.24019 7.55271 2.14642 7.64648C2.05265 7.74025 1.99997 7.86743 1.99997 8.00003Z" fill="#19BC66"/>
</svg>
