<svg width="133" height="120" viewBox="0 0 133 120" fill="none" xmlns="http://www.w3.org/2000/svg">
<mask id="mask0_456_840" style="mask-type:alpha" maskUnits="userSpaceOnUse" x="0" y="0" width="133" height="120">
<rect width="133" height="120" rx="20" fill="#FEF7F2"/>
</mask>
<g mask="url(#mask0_456_840)">
<path d="M84.3476 49.5C87.1476 35.5 64.0144 2.83333 60.3477 -6L73.8476 -11C77.5143 -4 90.3476 10.3 92.3476 21.5C94.8476 35.5 102.5 57.5 101 61.5C99.5 65.5 67.8477 93 53.3476 98C41.7476 102 46.5143 122 50.3476 131.5C45.0143 132 33.6477 131.9 30.8477 127.5C27.3477 122 34.8476 87 50.3476 81C65.8476 75 80.8476 67 84.3476 49.5Z" fill="#66BF6F"/>
<path d="M98.3477 56.5C101.148 42.5 77.9768 2.83333 74.3101 -6L87.8101 -11C91.4767 -4 105.848 -1.7 107.848 9.5C110.348 23.5 114.348 42.272 114.348 38C114.348 31 115.348 77 100.848 82C89.2476 86 60.4767 122 64.3101 131.5C58.9768 132 47.6101 131.9 44.8101 127.5C41.3101 122 39.3101 95.5 54.8101 89.5C70.3101 83.5 94.8477 74 98.3477 56.5Z" fill="#2B9061"/>
<path d="M111.848 41C114.648 27 92.9767 2.83333 89.31 -6L102.81 -11C106.477 -4 118.847 10.3 120.847 21.5C123.347 35.5 126.348 50.5 124.848 54.5C123.348 58.5 103.81 93.5 89.31 98.5C77.7099 102.5 75.4765 122 79.3099 131.5C73.9766 132 62.61 131.9 59.81 127.5C56.31 122 49.3477 98.5 89.3097 82C103.814 76.0111 108.348 58.5 111.848 41Z" fill="#FF7127"/>
<path d="M121.31 40C124.11 26 107.977 2.83333 104.31 -6L117.81 -11C121.477 -4 129.31 12.8 131.31 24C133.81 38 132.81 63 131.31 67C129.81 71 111.81 93 97.31 98C85.71 102 90.4767 122 94.31 131.5C88.9767 132 77.6101 131.9 74.8101 127.5C71.3101 122 78.8101 97.5 94.3101 91.5C109.81 85.5 117.81 57.5 121.31 40Z" fill="#43A678"/>
</g>
</svg>
