<svg width="69" height="49" viewBox="0 0 69 49" fill="none" xmlns="http://www.w3.org/2000/svg">
<g opacity="0.5">
<path d="M62.6392 4.09355C59.4702 3.38287 57.6187 5.10271 55.9575 7.39395C55.4436 5.03449 58.1639 3.15545 62.0485 2.84843C62.0599 2.70914 62.0712 2.57269 62.0826 2.4334C60.7679 2.32537 59.4503 2.23725 58.1412 2.09511C57.7806 2.05531 57.437 1.86769 57.0849 1.74546C57.3944 1.5351 57.7067 1.1428 58.0163 1.1428C59.189 1.15133 60.464 1.02625 61.509 1.4356C63.3775 2.17187 65.2204 3.10428 66.8503 4.2698C67.671 4.8554 68.0373 6.11757 68.5144 7.1182C68.6478 7.39679 68.4434 7.83741 68.1083 8.23255C67.4665 7.03008 66.8248 5.83045 66.183 4.62798C66.0978 4.69336 66.0155 4.76159 65.9303 4.82697C65.8678 6.0465 65.9644 7.30014 65.6974 8.47134C65.422 9.68518 64.5673 10.6005 63.3775 11.0781C63.2497 10.9871 63.1191 10.8962 62.9913 10.8052C63.2582 10.447 63.4825 10.0462 63.8006 9.74204C65.1948 8.40596 65.4873 6.91068 64.6581 5.12545C62.0372 6.47291 58.9874 13.2272 59.4418 16.9654C60.2425 16.087 60.9411 15.3166 61.6396 14.5491C64.9819 17.7898 63.5053 23.6657 58.0049 28.7485C60.1772 28.7485 62.128 28.7485 64.0789 28.7485C65.263 28.7485 66.4471 28.7172 67.6255 28.7655C68.0032 28.7797 68.3752 29.0015 68.9999 29.2118C67.3246 29.9538 1.34591 29.8401 0.244141 29.0924C2.11829 28.4358 3.88454 28.8338 5.60251 28.7627C7.33468 28.6916 9.07253 28.7456 11.2392 28.7456C10.5718 28.2311 10.2283 27.961 9.87898 27.6995C6.125 24.8966 4.73642 20.0099 6.53107 15.78C6.72132 15.3337 7.11887 14.9783 7.41703 14.5803C7.75494 14.876 8.10706 15.1546 8.42225 15.473C8.86807 15.9193 9.28266 16.3912 9.83355 16.7636C9.68873 12.1356 7.89408 8.27235 4.75914 4.83265C3.84194 5.91289 3.8391 7.03861 4.35307 8.05346C4.83581 9.00861 5.61103 9.8131 6.32377 10.7739C3.96689 10.7171 2.82536 8.05346 3.33649 4.52564C2.88499 5.04017 2.33694 5.50069 2.01039 6.08914C1.66679 6.70601 1.53901 7.44512 1.18406 8.54525C0.871697 7.89142 0.587735 7.57304 0.658726 7.39679C1.06763 6.36488 1.30332 5.05439 2.07286 4.41762C4.53481 2.3936 7.28073 0.787461 10.6769 0.997822C11.1795 1.02909 11.6736 1.22524 12.1706 1.34748C12.1706 1.4953 12.1649 1.64596 12.162 1.79378C10.4213 1.98709 8.68066 2.18039 6.93997 2.3737C6.96837 2.43624 6.99676 2.49878 7.02516 2.56132C8.38534 2.9394 9.81935 3.15261 11.0801 3.73821C12.3438 4.32381 13.3007 5.37846 13.65 6.7856C13.5279 6.90216 13.4086 7.01587 13.2865 7.13242C12.9515 6.78845 12.5709 6.47859 12.2898 6.09767C10.9069 4.22431 8.75165 3.41414 6.62193 4.09923C6.96553 4.36076 7.23529 4.58818 7.52777 4.78149C12.2018 7.90279 14.7489 12.2777 15.2743 17.8722C15.314 18.2986 15.6463 18.6966 15.8422 19.106C16.0495 18.6682 16.43 18.2361 16.4357 17.7955C16.4868 14.3842 16.4499 10.9729 16.4726 7.56167C16.4783 6.79982 16.3562 6.28813 15.5781 5.86172C14.3656 5.19368 14.1469 4.20441 14.7631 3.27769C14.8483 3.30327 14.9846 3.30043 15.013 3.35728C15.7703 4.81465 16.9364 5.28938 18.5114 4.78149C19.4116 4.49437 20.3118 4.18451 21.2346 3.98837C22.3137 3.75811 23.0861 3.42266 22.9157 2.061C22.8816 1.77957 23.4751 1.19681 23.8528 1.12006C30.9859 -0.363842 38.1275 -0.358156 45.2749 1.06036C46.0955 1.2224 46.4391 1.63459 46.3113 2.42487C46.1608 3.37149 46.6947 3.6245 47.4813 3.82349C48.7648 4.14756 50.0284 4.55407 51.2807 4.97763C52.9305 5.53481 53.2116 5.41826 53.9357 3.74673C54.0209 3.55343 54.1941 3.39708 54.3446 3.20377C55.0432 4.20441 54.8643 5.22495 53.7057 5.91005C52.9248 6.37341 52.7402 6.88794 52.7488 7.72086C52.7885 11.1776 52.7488 14.6372 52.7885 18.094C52.7914 18.4692 53.1066 18.8444 53.2769 19.2168C53.4984 18.8785 53.8875 18.5545 53.9187 18.202C54.4213 12.2578 57.1956 7.7237 62.2331 4.55975C62.341 4.49153 62.4063 4.36076 62.6278 4.09355H62.6392ZM61.4125 16.3968C61.2279 16.5532 61.0405 16.684 60.89 16.846C58.7318 19.1742 56.0654 20.2573 52.8993 20.135C52.2859 20.1123 51.6669 20.0981 51.0564 20.1606C50.832 20.1834 50.5111 20.3994 50.4515 20.5927C50.3862 20.8088 50.4998 21.1641 50.6645 21.3432C50.8775 21.5763 51.2352 21.6701 51.4965 21.8691C52.7204 22.8015 52.8879 24.4844 51.8798 25.63C50.8491 26.7984 49.0175 26.8211 47.9839 25.6726C46.9559 24.5327 47.0837 22.8612 48.2849 21.9004C48.5035 21.7241 48.8187 21.653 48.9976 21.4484C49.1907 21.2295 49.4094 20.8855 49.3611 20.6467C49.3213 20.4392 48.9238 20.1635 48.6796 20.1606C46.2687 20.1237 43.8551 20.1265 41.4442 20.1549C41.2256 20.1549 40.8479 20.4022 40.8337 20.5614C40.8053 20.8372 40.9473 21.184 41.1262 21.4114C41.288 21.6189 41.6174 21.6843 41.8418 21.852C43.0742 22.7788 43.2559 24.4616 42.2564 25.6101C41.2284 26.7898 39.3997 26.824 38.3604 25.6869C37.3353 24.5611 37.4546 22.8612 38.6387 21.906C38.8573 21.7298 39.1725 21.6559 39.3514 21.4541C39.5445 21.2352 39.7688 20.8969 39.7263 20.6552C39.6893 20.4477 39.2946 20.1606 39.0561 20.1578C35.9354 20.1237 32.8146 20.1265 29.691 20.1521C29.4667 20.1521 29.0805 20.3767 29.0578 20.5359C29.018 20.8088 29.1458 21.1641 29.3219 21.3944C29.4809 21.6019 29.8217 21.6559 30.0403 21.8293C30.9973 22.5798 31.3579 23.5605 30.9717 24.726C30.5855 25.8802 29.7393 26.4999 28.5097 26.4999C27.2859 26.4999 26.4368 25.8887 26.0308 24.7431C25.6162 23.5747 25.991 22.6054 26.9423 21.852C27.1609 21.6786 27.496 21.6161 27.6579 21.4114C27.8396 21.1811 27.9787 20.8372 27.9503 20.5586C27.9333 20.3994 27.5528 20.1549 27.3341 20.1521C24.9233 20.1237 22.5096 20.1208 20.0988 20.1549C19.8517 20.1578 19.4485 20.4307 19.4088 20.6382C19.3605 20.877 19.582 21.2238 19.7779 21.4455C19.9568 21.6474 20.2748 21.7156 20.4935 21.8918C21.6861 22.8385 21.8224 24.5412 20.8087 25.6726C19.7921 26.8097 17.9265 26.7927 16.9042 25.6385C15.8848 24.4872 16.0438 22.8242 17.2762 21.8805C17.5005 21.7099 17.8214 21.6388 17.9918 21.4342C18.182 21.2096 18.3893 20.8457 18.3269 20.6098C18.2729 20.4022 17.8725 20.1862 17.6056 20.1521C17.0462 20.081 16.4726 20.1066 15.9047 20.1322C12.7754 20.2743 10.1715 19.1713 8.0815 16.8375C7.9026 16.6385 7.68679 16.4736 7.47666 16.2803C6.54242 17.895 6.37773 19.9417 6.97405 22.0851C8.16385 26.3521 11.8156 28.8366 16.9695 28.8423C28.842 28.8537 40.7116 28.8565 52.5841 28.8281C53.6603 28.8281 54.7734 28.7257 55.8014 28.4301C60.9212 26.9689 63.7779 20.8599 61.4125 16.394V16.3968ZM51.6612 19.0775C51.6612 14.8589 51.6839 10.7967 51.6158 6.73728C51.6101 6.40752 51.0223 5.9271 50.6105 5.78781C39.8512 2.11217 29.0862 2.12638 18.3183 5.7736C17.5772 6.02375 17.2876 6.41889 17.3103 7.22054C17.3642 9.15928 17.3273 11.1037 17.3273 13.0453C17.3273 15.021 17.3273 16.9938 17.3273 19.0463H20.5503C20.5758 18.5005 20.6128 17.9916 20.6156 17.4799C20.6298 15.8226 20.573 14.1625 20.6525 12.508C20.7263 10.9729 21.6833 9.90691 23.123 9.60843C24.5201 9.31847 25.7156 9.76193 26.4141 10.9843C26.7889 11.6381 26.9082 12.5023 26.9394 13.2812C27.0104 15.1972 26.9622 17.1189 26.9622 19.0235H30.2277C30.2277 18.4038 30.2277 17.8893 30.2277 17.3747C30.2277 15.1489 30.205 12.923 30.2419 10.6972C30.2703 8.94892 31.0313 7.58725 32.6187 6.7856C34.0413 6.0664 35.4725 6.16873 36.8014 7.03008C38.2468 7.96533 38.7608 9.38385 38.7494 11.0554C38.7324 13.6963 38.7437 16.34 38.7437 19.0036H42.0349C42.0349 16.8034 41.9809 14.7253 42.0491 12.6501C42.1286 10.2537 44.4911 8.81247 46.5925 9.84437C47.8788 10.4755 48.3757 11.5955 48.3672 12.9913C48.3559 15.0068 48.3644 17.0194 48.3644 19.0747H51.6584L51.6612 19.0775ZM37.6533 19.0377C37.6533 15.9051 37.7669 12.8434 37.6051 9.79605C37.5255 8.29225 35.9836 7.29161 34.4332 7.32004C32.8828 7.34846 31.4232 8.39174 31.3522 9.91544C31.2131 12.9202 31.3125 15.9363 31.3125 19.0377H37.6533ZM47.3393 19.0519C47.3393 16.7408 47.4358 14.5263 47.2995 12.3289C47.2285 11.1606 46.3142 10.5096 45.1159 10.5494C43.9857 10.5892 43.1594 11.2515 43.1054 12.3659C42.9975 14.5661 43.0742 16.7749 43.0742 19.0519H47.3393ZM25.9427 19.0605C25.9427 16.7835 25.9967 14.6628 25.92 12.5478C25.8774 11.3595 25.1107 10.629 23.9209 10.5522C22.7283 10.4755 21.7798 11.1122 21.706 12.2806C21.5612 14.515 21.6634 16.7664 21.6634 19.0605H25.9399H25.9427ZM23.9181 3.09859C31.0711 1.55784 38.0992 1.64596 45.2436 2.80011C44.9852 2.26852 44.6445 1.86485 44.2441 1.79378C42.5716 1.4953 40.8848 1.23093 39.1924 1.06889C34.4588 0.616897 29.745 0.835787 25.0681 1.71419C24.4491 1.83074 23.5518 1.77957 23.9181 3.09575V3.09859ZM18.7301 25.7807L19.3718 25.7579C19.7779 25.1212 20.4452 24.5157 20.5304 23.8363C20.6525 22.8754 19.8688 22.2529 18.9175 22.2955C17.9747 22.3381 17.2222 23.0062 17.4125 23.9528C17.5488 24.6237 18.2701 25.1752 18.7301 25.7778V25.7807ZM51.8855 24.1859C51.8855 23.9784 51.8798 23.768 51.8798 23.5605C51.2494 23.1284 50.656 22.4234 49.983 22.3353C49.0658 22.2159 48.4041 22.9351 48.4212 23.9357C48.4382 24.9392 49.1339 25.6243 50.0426 25.4793C50.7099 25.3713 51.2778 24.6407 51.8884 24.1887L51.8855 24.1859ZM30.4407 24.274C30.4464 24.058 30.452 23.8419 30.4549 23.623C29.85 23.1711 29.2935 22.4462 28.6347 22.3325C27.7175 22.1761 27.036 22.8868 27.0047 23.8647C26.9707 24.8596 27.6635 25.5732 28.5609 25.4765C29.2225 25.4054 29.816 24.6948 30.4407 24.2712V24.274ZM38.5563 23.5435L38.5421 24.1944C39.147 24.6436 39.7064 25.3685 40.368 25.4765C41.2795 25.6243 41.9667 24.9165 41.9923 23.9386C42.0178 22.9493 41.3363 22.2301 40.4305 22.3353C39.7689 22.412 39.1782 23.1199 38.5563 23.5463V23.5435ZM10.8956 15.8482H13.7011C13.6159 13.5797 13.2581 13.3608 10.5605 13.9066C10.6684 14.5349 10.7763 15.1659 10.8956 15.8482ZM58.4848 13.9123C56.1336 13.4632 55.2022 13.4717 55.5004 15.834C57.3821 16.0595 58.3769 15.419 58.4848 13.9123ZM54.8359 19.2396C56.1194 18.7847 57.0082 18.5431 57.8147 18.1338C58.0248 18.0286 57.9737 17.406 58.0418 17.0222C57.1189 17.008 56.1592 16.8545 55.2902 17.0649C55.0347 17.1274 55.029 18.2247 54.8359 19.2367V19.2396ZM13.9482 19.069C14.4337 17.1246 14.2747 16.9029 12.5397 16.9C12.304 16.9 12.0541 16.846 11.8412 16.9142C11.5203 17.0137 11.225 17.1985 10.9211 17.3492C11.1426 17.6647 11.2988 18.1224 11.6026 18.2645C12.3438 18.6113 13.1559 18.8103 13.9482 19.0718V19.069ZM9.73984 10.7171C10.1999 12.9515 10.6201 13.1988 12.7186 12.4739C12.0144 10.376 11.7815 10.2395 9.73984 10.7171ZM56.4176 12.5336C58.641 13.1078 59.084 12.8207 59.2998 10.6688C57.2041 10.3134 56.9514 10.4755 56.4176 12.5336ZM61.1171 7.32856C59.4247 7.27171 58.9704 8.4287 58.2548 9.34405C60.1715 10.0519 60.4214 8.61916 61.1171 7.32856ZM8.15533 7.38258C8.95042 9.6397 9.10944 9.75056 10.8501 9.23887C10.0323 8.47134 9.69157 7.14094 8.15533 7.38258Z" fill="#1D6B4E"/>
<path d="M57.965 35.4601C57.1643 36.3811 15.2145 36.4465 14.3115 35.6307C15.118 35.0849 56.0597 34.8916 57.965 35.4601Z" fill="#1D6B4E"/>
<path d="M32.2579 32.4439C31.3038 33.1916 7.75482 33.1916 6.8291 32.4439C7.7463 31.7048 31.2981 31.702 32.2579 32.4439Z" fill="#1D6B4E"/>
<path d="M17.1513 45.4778C18.3979 44.608 41.7396 44.5397 43.2077 45.3329C42.6057 45.5262 42.2308 45.7507 41.856 45.7507C34.0612 45.7706 26.2665 45.7678 18.4717 45.7564C18.1309 45.7564 17.793 45.6171 17.1484 45.4778H17.1513Z" fill="#1D6B4E"/>
<path d="M55.9181 42.0865C54.609 42.7972 31.273 42.7318 30.3501 42.0865C31.1736 41.373 54.7339 41.3076 55.9181 42.0865Z" fill="#1D6B4E"/>
<path d="M42.8442 32.697C44.0652 31.7845 67.4097 31.6964 68.9942 32.5065C68.2985 32.7084 67.8754 32.9358 67.4523 32.9358C59.7484 32.9557 52.0445 32.9528 44.3378 32.9415C43.9516 32.9415 43.5683 32.8192 42.8413 32.6942L42.8442 32.697Z" fill="#1D6B4E"/>
<path d="M68.7528 45.3045C67.5346 45.9867 46.2233 45.9412 45.3345 45.3187C46.1267 44.5796 67.5375 44.4943 68.7528 45.3045Z" fill="#1D6B4E"/>
<path d="M36.5458 38.8572C35.5633 39.5565 9.87608 39.5508 8.9248 38.8515C9.88744 38.1579 35.5889 38.1636 36.5458 38.8572Z" fill="#1D6B4E"/>
<path d="M38.6556 48.4628C37.7696 49.1678 14.1922 49.1877 13.187 48.4855C14.1326 47.7777 37.6816 47.7578 38.6556 48.4628Z" fill="#1D6B4E"/>
<path d="M19.3919 42.0069C18.4974 42.8142 1.32618 42.8256 0.37207 42.0183C1.3489 41.3673 18.3952 41.3559 19.3919 42.0069Z" fill="#1D6B4E"/>
<path d="M68.7187 48.3063C67.8469 49.1648 50.6047 49.2302 49.5967 48.474C50.3804 47.897 66.907 47.715 68.7187 48.3063Z" fill="#1D6B4E"/>
<path d="M68.6193 38.7008C67.7589 39.5053 52.9219 39.6076 51.752 38.9055C52.4363 38.2857 66.7878 38.0725 68.6193 38.7008Z" fill="#1D6B4E"/>
<path d="M12.1962 35.2469C11.1058 36.3698 1.36302 36.4181 0 35.3521C4.1856 35.0224 8.00774 35.1759 12.1962 35.2469Z" fill="#1D6B4E"/>
<path d="M58.002 41.7795H66.6401C65.6462 42.8285 59.0327 42.8342 58.002 41.7795Z" fill="#1D6B4E"/>
<path d="M38.8545 39.0562C39.6212 38.1948 48.2622 38.0896 49.3639 38.8287C48.6427 39.4143 40.8053 39.6133 38.8545 39.0562Z" fill="#1D6B4E"/>
<path d="M60.0664 35.3379H68.6137C68.6477 35.4687 68.6818 35.5966 68.7159 35.7273C68.4007 35.8666 68.0969 36.0997 67.7731 36.131C64.3968 36.4494 60.9297 36.1879 60.0692 35.3379H60.0664Z" fill="#1D6B4E"/>
<path d="M2.44775 48.4115C3.82497 47.7691 9.93584 47.8487 10.7962 48.4599C9.92448 49.1677 3.51545 49.1876 2.44775 48.4115Z" fill="#1D6B4E"/>
<path d="M21.5527 41.7937H28.0725C27.2235 42.8 22.7454 42.8569 21.5527 41.7937Z" fill="#1D6B4E"/>
<path d="M6.84054 44.9918C5.61383 46.0323 1.15846 45.9925 0.150391 44.9918H6.84054Z" fill="#1D6B4E"/>
<path d="M8.93896 45.06C10.992 44.7331 13.0422 44.6819 15.4502 44.9321C14.2434 45.9696 9.89592 46.0066 8.93896 45.06Z" fill="#1D6B4E"/>
<path d="M40.7854 32.7225H34.4048C35.4583 31.7446 39.7688 31.6878 40.7854 32.7225Z" fill="#1D6B4E"/>
<path d="M0.397461 38.6041H6.79229C5.67916 39.5309 1.41121 39.565 0.397461 38.6041Z" fill="#1D6B4E"/>
<path d="M40.9897 48.4143C41.1772 48.2779 41.3504 48.0448 41.5236 48.0419C43.2188 48.0078 44.9169 47.9965 46.6122 48.0277C46.811 48.0306 47.0069 48.3234 47.2028 48.4797C47.0495 48.6304 46.899 48.9147 46.7457 48.9147C44.9169 48.9118 43.0882 48.8692 41.2595 48.818C41.1828 48.818 41.1118 48.6048 40.9897 48.4172V48.4143Z" fill="#1D6B4E"/>
<path d="M0.37207 32.3985C1.34038 31.7419 3.4985 31.7475 4.4015 32.4127C3.55529 33.1945 1.23816 33.186 0.37207 32.3985Z" fill="#1D6B4E"/>
</g>
</svg>
