<svg width="113" height="20" viewBox="0 0 113 20" fill="none" xmlns="http://www.w3.org/2000/svg">
<path d="M0.375 19V16.5977L2.13281 16.2227V4.72656L0.375 4.35156V1.9375H2.13281H8.42578L12.5508 13.1758H12.6211L16.6289 1.9375H24.5859V4.35156L22.8164 4.72656V16.2227L24.5859 16.5977V19H16.9453V16.5977L18.7852 16.2227V13.9961L18.8789 5.96875L18.8086 5.95703L13.9805 19H10.7461L5.84766 6.10938L5.76562 6.12109L6.04688 13.4336V16.2227L8.02734 16.5977V19H0.375ZM29.8125 19.2461C28.5859 19.2461 27.5859 18.8984 26.8125 18.2031C26.0391 17.5078 25.6523 16.582 25.6523 15.4258C25.6523 14.6367 25.8633 13.9375 26.2852 13.3281C26.7148 12.7188 27.3555 12.2422 28.207 11.8984C29.0664 11.5469 30.1406 11.3711 31.4297 11.3711H32.7539V10.6211C32.7539 10.1133 32.6094 9.68359 32.3203 9.33203C32.0312 8.97266 31.5742 8.79297 30.9492 8.79297C30.6836 8.79297 30.4336 8.82812 30.1992 8.89844C29.9727 8.96094 29.7656 9.05469 29.5781 9.17969L29.2969 10.7969H26.4023L26.3438 7.26953C27.0625 6.94922 27.8125 6.67188 28.5938 6.4375C29.3828 6.20312 30.2617 6.08594 31.2305 6.08594C32.957 6.08594 34.3281 6.48438 35.3438 7.28125C36.3594 8.07031 36.8672 9.19922 36.8672 10.668V15.3438C36.8672 15.5234 36.8672 15.6992 36.8672 15.8711C36.875 16.043 36.8945 16.207 36.9258 16.3633L38.2969 16.5977V19H33.4922C33.3906 18.8594 33.2812 18.6719 33.1641 18.4375C33.0469 18.2031 32.9648 17.9688 32.918 17.7344C32.5352 18.2109 32.1055 18.582 31.6289 18.8477C31.1523 19.1133 30.5469 19.2461 29.8125 19.2461ZM31.0781 16.3398C31.375 16.3398 31.6719 16.2812 31.9688 16.1641C32.2734 16.0391 32.5352 15.8555 32.7539 15.6133V13.7852H31.4766C30.9219 13.7852 30.4922 13.9062 30.1875 14.1484C29.8906 14.3906 29.7422 14.7109 29.7422 15.1094C29.7422 15.4922 29.8672 15.793 30.1172 16.0117C30.3672 16.2305 30.6875 16.3398 31.0781 16.3398ZM39.0469 19V16.5977L40.5352 16.2227V9.10938L38.7656 8.73438V6.32031H44.6484V16.2227L46.125 16.5977V19H39.0469ZM40.418 3.91797V0.71875H44.6484V3.91797H40.418ZM51.8086 19.2461C50.8164 19.2461 49.9609 18.9844 49.2422 18.4609C48.5312 17.9375 47.9844 17.2031 47.6016 16.2578C47.2266 15.3047 47.0391 14.1953 47.0391 12.9297V12.6836C47.0391 11.3633 47.2305 10.2109 47.6133 9.22656C47.9961 8.23438 48.5391 7.46484 49.2422 6.91797C49.9531 6.36328 50.793 6.08594 51.7617 6.08594C52.4336 6.08594 53.0117 6.22656 53.4961 6.50781C53.9883 6.78125 54.418 7.16797 54.7852 7.66797V3.50781L53.0039 3.13281V0.71875H54.7852H58.8984V16.2227L60.375 16.5977V19H55.3359L55.0312 17.4297C54.6484 18.0234 54.1953 18.4766 53.6719 18.7891C53.1484 19.0938 52.5273 19.2461 51.8086 19.2461ZM53.0859 16.0938C53.4297 16.0938 53.75 16.0273 54.0469 15.8945C54.3438 15.7617 54.5898 15.5625 54.7852 15.2969V10.2227C54.5898 9.90234 54.3477 9.66016 54.0586 9.49609C53.7773 9.32422 53.4609 9.23828 53.1094 9.23828C52.6406 9.23828 52.2617 9.38281 51.9727 9.67188C51.6836 9.96094 51.4727 10.3633 51.3398 10.8789C51.2148 11.3945 51.1523 11.9961 51.1523 12.6836V12.9297C51.1523 13.9375 51.293 14.7188 51.5742 15.2734C51.8555 15.8203 52.3594 16.0938 53.0859 16.0938ZM61.4883 19V16.5977L62.9766 16.2227V9.15625H61.1484V6.32031H62.9766V5.04297C62.9766 3.57422 63.418 2.44531 64.3008 1.65625C65.1914 0.867188 66.4336 0.472656 68.0273 0.472656C68.4492 0.472656 68.8945 0.507812 69.3633 0.578125C69.832 0.640625 70.1992 0.710937 70.4648 0.789062L70.1602 3.82422C69.9414 3.76172 69.7109 3.71484 69.4688 3.68359C69.2266 3.65234 68.9688 3.63672 68.6953 3.63672C68.1562 3.63672 67.7539 3.75781 67.4883 4C67.2227 4.24219 67.0898 4.58984 67.0898 5.04297V6.32031H70.0312V9.15625H67.0898V16.2227L69.3633 16.5977V19H61.4883ZM77.3789 19.2461C76.0742 19.2461 74.957 18.9766 74.0273 18.4375C73.1055 17.8906 72.3984 17.1328 71.9062 16.1641C71.4219 15.1875 71.1797 14.0586 71.1797 12.7773V12.543C71.1797 11.2773 71.4219 10.1602 71.9062 9.19141C72.3984 8.22266 73.1055 7.46484 74.0273 6.91797C74.9492 6.36328 76.0586 6.08594 77.3555 6.08594C78.6602 6.08594 79.7695 6.35938 80.6836 6.90625C81.6055 7.45312 82.3086 8.21094 82.793 9.17969C83.2852 10.1484 83.5312 11.2695 83.5312 12.543V12.7773C83.5312 14.0508 83.2852 15.1758 82.793 16.1523C82.3086 17.1211 81.6055 17.8789 80.6836 18.4258C79.7695 18.9727 78.668 19.2461 77.3789 19.2461ZM77.3789 16.1172C77.8789 16.1172 78.2773 15.9844 78.5742 15.7188C78.8789 15.4453 79.0977 15.0586 79.2305 14.5586C79.3711 14.0586 79.4414 13.4648 79.4414 12.7773V12.543C79.4414 11.8789 79.3711 11.3008 79.2305 10.8086C79.0977 10.3086 78.8789 9.92188 78.5742 9.64844C78.2695 9.36719 77.8633 9.22656 77.3555 9.22656C76.8555 9.22656 76.4531 9.36719 76.1484 9.64844C75.8438 9.92188 75.625 10.3086 75.4922 10.8086C75.3594 11.3008 75.293 11.8789 75.293 12.543V12.7773C75.293 13.4727 75.3594 14.0703 75.4922 14.5703C75.625 15.0703 75.8438 15.4531 76.1484 15.7188C76.4531 15.9844 76.8633 16.1172 77.3789 16.1172ZM84.4219 19V16.5977L85.9219 16.2227V3.50781L84.1406 3.13281V0.71875H90.0352V16.2227L91.5234 16.5977V19H84.4219ZM92.2031 19V16.5977L93.6914 16.2227V9.10938L91.9219 8.73438V6.32031H97.8047V16.2227L99.2812 16.5977V19H92.2031ZM93.5742 3.91797V0.71875H97.8047V3.91797H93.5742ZM106.395 19.2461C105.09 19.2461 103.973 18.9766 103.043 18.4375C102.121 17.8906 101.414 17.1328 100.922 16.1641C100.438 15.1875 100.195 14.0586 100.195 12.7773V12.543C100.195 11.2773 100.438 10.1602 100.922 9.19141C101.414 8.22266 102.121 7.46484 103.043 6.91797C103.965 6.36328 105.074 6.08594 106.371 6.08594C107.676 6.08594 108.785 6.35938 109.699 6.90625C110.621 7.45312 111.324 8.21094 111.809 9.17969C112.301 10.1484 112.547 11.2695 112.547 12.543V12.7773C112.547 14.0508 112.301 15.1758 111.809 16.1523C111.324 17.1211 110.621 17.8789 109.699 18.4258C108.785 18.9727 107.684 19.2461 106.395 19.2461ZM106.395 16.1172C106.895 16.1172 107.293 15.9844 107.59 15.7188C107.895 15.4453 108.113 15.0586 108.246 14.5586C108.387 14.0586 108.457 13.4648 108.457 12.7773V12.543C108.457 11.8789 108.387 11.3008 108.246 10.8086C108.113 10.3086 107.895 9.92188 107.59 9.64844C107.285 9.36719 106.879 9.22656 106.371 9.22656C105.871 9.22656 105.469 9.36719 105.164 9.64844C104.859 9.92188 104.641 10.3086 104.508 10.8086C104.375 11.3008 104.309 11.8789 104.309 12.543V12.7773C104.309 13.4727 104.375 14.0703 104.508 14.5703C104.641 15.0703 104.859 15.4531 105.164 15.7188C105.469 15.9844 105.879 16.1172 106.395 16.1172Z" fill="#2B9061"/>
</svg>
