<svg width="16" height="17" viewBox="0 0 16 17" fill="none" xmlns="http://www.w3.org/2000/svg">
<path d="M14.2069 4.0861L11.4144 1.29297C11.3215 1.20009 11.2113 1.12641 11.0899 1.07614C10.9686 1.02587 10.8385 1 10.7072 1C10.5759 1 10.4458 1.02587 10.3245 1.07614C10.2031 1.12641 10.0929 1.20009 10 1.29297L2.29313 9.00047C2.19987 9.093 2.12593 9.20313 2.0756 9.32448C2.02528 9.44584 1.99959 9.57598 2.00001 9.70735V12.5005C2.00001 12.7657 2.10536 13.02 2.2929 13.2076C2.48043 13.3951 2.73479 13.5005 3.00001 13.5005H5.79313C5.9245 13.5009 6.05464 13.4752 6.17599 13.4249C6.29735 13.3746 6.40748 13.3006 6.50001 13.2073L14.2069 5.50047C14.2998 5.40761 14.3734 5.29736 14.4237 5.17602C14.474 5.05468 14.4999 4.92463 14.4999 4.79329C14.4999 4.66195 14.474 4.53189 14.4237 4.41055C14.3734 4.28921 14.2998 4.17896 14.2069 4.0861ZM3.20688 9.50047L8.50001 4.20735L9.54313 5.25047L4.25001 10.543L3.20688 9.50047ZM3.00001 10.7073L4.79313 12.5005H3.00001V10.7073ZM6.00001 12.2936L4.95688 11.2505L10.25 5.95735L11.2931 7.00047L6.00001 12.2936ZM12 6.2936L9.20688 3.50047L10.7069 2.00047L13.5 4.79297L12 6.2936Z" fill="#19BC66"/>
</svg>
