<svg width="86" height="80" viewBox="0 0 86 80" fill="none" xmlns="http://www.w3.org/2000/svg">
<rect width="86" height="80" rx="25" fill="#CFEACB"/>
<path d="M18.6328 64V63.0156L19.9062 62.7969V53.8359L18.6328 53.6172V52.625H19.9062H23.8594C24.6719 52.625 25.3646 52.7682 25.9375 53.0547C26.5104 53.3359 26.9479 53.7318 27.25 54.2422C27.5521 54.7526 27.7031 55.349 27.7031 56.0312C27.7031 56.7188 27.5521 57.3177 27.25 57.8281C26.9479 58.3385 26.5104 58.7344 25.9375 59.0156C25.3646 59.2969 24.6719 59.4375 23.8594 59.4375H21.4453V62.7969L22.7188 63.0156V64H18.6328ZM21.4453 58.2344H23.8594C24.6302 58.2344 25.2057 58.0286 25.5859 57.6172C25.9714 57.2005 26.1641 56.6771 26.1641 56.0469C26.1641 55.4167 25.9714 54.8906 25.5859 54.4688C25.2057 54.0469 24.6302 53.8359 23.8594 53.8359H21.4453V58.2344ZM28.7031 64V63.0156L29.9766 62.7969V56.7578L28.7031 56.5391V55.5469H31.3516L31.4844 56.625L31.5 56.7734C31.7396 56.3411 32.0339 56.0026 32.3828 55.7578C32.737 55.513 33.1406 55.3906 33.5938 55.3906C33.7552 55.3906 33.9193 55.4062 34.0859 55.4375C34.2578 55.4635 34.3802 55.4896 34.4531 55.5156L34.25 56.9453L33.1797 56.8828C32.7734 56.8568 32.4323 56.9505 32.1562 57.1641C31.8802 57.3724 31.6667 57.6536 31.5156 58.0078V62.7969L32.7891 63.0156V64H28.7031ZM39.0547 64.1641C38.2734 64.1641 37.599 63.9818 37.0312 63.6172C36.4688 63.2474 36.0339 62.7396 35.7266 62.0938C35.4193 61.4427 35.2656 60.7005 35.2656 59.8672V59.6953C35.2656 58.862 35.4193 58.1224 35.7266 57.4766C36.0339 56.8255 36.4688 56.3151 37.0312 55.9453C37.599 55.5755 38.2682 55.3906 39.0391 55.3906C39.8203 55.3906 40.4922 55.5755 41.0547 55.9453C41.6224 56.3151 42.0599 56.8229 42.3672 57.4688C42.6745 58.1146 42.8281 58.8568 42.8281 59.6953V59.8672C42.8281 60.7057 42.6745 61.4505 42.3672 62.1016C42.0599 62.7474 41.625 63.2526 41.0625 63.6172C40.5 63.9818 39.8307 64.1641 39.0547 64.1641ZM39.0547 62.9609C39.5443 62.9609 39.9531 62.8281 40.2812 62.5625C40.6146 62.2917 40.8646 61.9245 41.0312 61.4609C41.2031 60.9922 41.2891 60.4609 41.2891 59.8672V59.6953C41.2891 59.1016 41.2031 58.5729 41.0312 58.1094C40.8646 57.6406 40.6146 57.2734 40.2812 57.0078C39.9479 56.737 39.5339 56.6016 39.0391 56.6016C38.5495 56.6016 38.138 56.737 37.8047 57.0078C37.4714 57.2734 37.2214 57.6406 37.0547 58.1094C36.888 58.5729 36.8047 59.1016 36.8047 59.6953V59.8672C36.8047 60.4609 36.888 60.9922 37.0547 61.4609C37.2214 61.9245 37.4714 62.2917 37.8047 62.5625C38.1432 62.8281 38.5599 62.9609 39.0547 62.9609ZM43.8359 64V63.0156L45.1094 62.7969V56.6875H43.7891V55.5469H45.1094V54.6328C45.1094 53.6849 45.388 52.9505 45.9453 52.4297C46.5026 51.9089 47.2734 51.6484 48.2578 51.6484C48.6016 51.6484 48.9453 51.6901 49.2891 51.7734C49.6328 51.8568 50.0286 51.974 50.4766 52.125L50.2188 53.375C49.9427 53.2656 49.6484 53.1719 49.3359 53.0938C49.0234 53.0156 48.7031 52.9766 48.375 52.9766C47.7604 52.9766 47.3177 53.112 47.0469 53.3828C46.7812 53.6536 46.6484 54.0703 46.6484 54.6328V55.5469H51.4688V62.7969L52.7422 63.0156V64H48.6562V63.0156L49.9297 62.7969V56.6875H46.6484V62.7969L47.9219 63.0156V64H43.8359ZM53.625 64V63.0156L54.8984 62.7969V53.0234L53.625 52.8047V51.8125H56.4375V62.7969L57.7109 63.0156V64H53.625ZM62.5078 64.1641C61.7266 64.1641 61.0469 63.987 60.4688 63.6328C59.8906 63.2734 59.4427 62.776 59.125 62.1406C58.8125 61.5052 58.6562 60.7708 58.6562 59.9375V59.5938C58.6562 58.7917 58.8203 58.0755 59.1484 57.4453C59.4818 56.8099 59.9219 56.3099 60.4688 55.9453C61.0208 55.5755 61.6224 55.3906 62.2734 55.3906C63.0339 55.3906 63.6693 55.5469 64.1797 55.8594C64.6953 56.1719 65.0833 56.612 65.3438 57.1797C65.6042 57.7422 65.7344 58.4062 65.7344 59.1719V60.1328H60.25L60.2266 60.1719C60.237 60.7135 60.3307 61.1953 60.5078 61.6172C60.6901 62.0339 60.9505 62.362 61.2891 62.6016C61.6276 62.8411 62.0339 62.9609 62.5078 62.9609C63.0286 62.9609 63.4844 62.888 63.875 62.7422C64.2708 62.5911 64.612 62.3854 64.8984 62.125L65.5 63.125C65.1979 63.4167 64.7969 63.6641 64.2969 63.8672C63.8021 64.0651 63.2057 64.1641 62.5078 64.1641ZM60.2969 58.9297H64.1953V58.7266C64.1953 58.3203 64.1224 57.9583 63.9766 57.6406C63.8359 57.3177 63.6224 57.0651 63.3359 56.8828C63.0547 56.6953 62.7005 56.6016 62.2734 56.6016C61.9297 56.6016 61.6172 56.7031 61.3359 56.9062C61.0547 57.1042 60.8229 57.375 60.6406 57.7188C60.4583 58.0625 60.3385 58.4531 60.2812 58.8906L60.2969 58.9297Z" fill="black"/>
<g clip-path="url(#clip0_134_14946)">
<path d="M44.9998 18C44.9998 17.7348 45.1051 17.4805 45.2927 17.2929C45.4802 17.1054 45.7346 17 45.9998 17H57.9998C58.265 17 58.5194 17.1054 58.7069 17.2929C58.8944 17.4805 58.9998 17.7348 58.9998 18C58.9998 18.2652 58.8944 18.5196 58.7069 18.7071C58.5194 18.8947 58.265 19 57.9998 19H45.9998C45.7346 19 45.4802 18.8947 45.2927 18.7071C45.1051 18.5196 44.9998 18.2652 44.9998 18ZM57.9998 23H45.9998C45.7346 23 45.4802 23.1054 45.2927 23.2929C45.1051 23.4805 44.9998 23.7348 44.9998 24C44.9998 24.2652 45.1051 24.5196 45.2927 24.7071C45.4802 24.8947 45.7346 25 45.9998 25H57.9998C58.265 25 58.5194 24.8947 58.7069 24.7071C58.8944 24.5196 58.9998 24.2652 58.9998 24C58.9998 23.7348 58.8944 23.4805 58.7069 23.2929C58.5194 23.1054 58.265 23 57.9998 23ZM57.9998 29H48.9998C48.7346 29 48.4802 29.1054 48.2927 29.2929C48.1051 29.4805 47.9998 29.7348 47.9998 30C47.9998 30.2652 48.1051 30.5196 48.2927 30.7071C48.4802 30.8947 48.7346 31 48.9998 31H57.9998C58.265 31 58.5194 30.8947 58.7069 30.7071C58.8944 30.5196 58.9998 30.2652 58.9998 30C58.9998 29.7348 58.8944 29.4805 58.7069 29.2929C58.5194 29.1054 58.265 29 57.9998 29ZM45.9685 31.75C46.0012 31.8772 46.0085 32.0097 45.99 32.1397C45.9715 32.2697 45.9276 32.3949 45.8608 32.5079C45.7939 32.621 45.7054 32.7198 45.6004 32.7986C45.4953 32.8775 45.3758 32.9349 45.2485 32.9675C45.167 32.9895 45.083 33.0004 44.9985 33C44.7768 33.0001 44.5612 32.9265 44.3859 32.7908C44.2105 32.655 44.0852 32.4648 44.0298 32.25C43.2598 29.2575 40.2373 27 36.9985 27C33.7598 27 30.7373 29.2563 29.9673 32.25C29.901 32.507 29.7353 32.727 29.5068 32.8618C29.2782 32.9966 29.0055 33.0351 28.7485 32.9688C28.4916 32.9025 28.2715 32.7368 28.1368 32.5083C28.002 32.2797 27.9635 32.007 28.0298 31.75C28.7285 29.0363 30.7598 26.8388 33.3373 25.75C32.3448 24.9856 31.6165 23.9297 31.2545 22.7304C30.8925 21.5311 30.915 20.2486 31.3187 19.0628C31.7225 17.8769 32.4873 16.8471 33.5059 16.1179C34.5245 15.3887 35.7458 14.9966 36.9985 14.9966C38.2513 14.9966 39.4726 15.3887 40.4912 16.1179C41.5098 16.8471 42.2746 17.8769 42.6784 19.0628C43.0821 20.2486 43.1046 21.5311 42.7426 22.7304C42.3806 23.9297 41.6522 24.9856 40.6598 25.75C43.2385 26.8388 45.2698 29.0363 45.9685 31.75ZM36.9998 25C37.7909 25 38.5643 24.7654 39.2221 24.3259C39.8799 23.8864 40.3926 23.2617 40.6953 22.5308C40.9981 21.7999 41.0773 20.9956 40.9229 20.2197C40.7686 19.4437 40.3876 18.731 39.8282 18.1716C39.2688 17.6122 38.5561 17.2312 37.7801 17.0769C37.0042 16.9225 36.2 17.0018 35.4691 17.3045C34.7381 17.6073 34.1134 18.12 33.6739 18.7777C33.2344 19.4355 32.9998 20.2089 32.9998 21C32.9998 22.0609 33.4212 23.0783 34.1714 23.8285C34.9215 24.5786 35.9389 25 36.9998 25Z" fill="#19BC66"/>
</g>
<defs>
<clipPath id="clip0_134_14946">
<rect width="32" height="32" fill="white" transform="translate(27 8)"/>
</clipPath>
</defs>
</svg>
