<svg width="28" height="28" viewBox="0 0 28 28" fill="none" xmlns="http://www.w3.org/2000/svg">
<path d="M10.5 11.375H8.76277C9.57539 9.02169 10.2693 7.89469 12.5781 6.93254C12.9635 6.77189 13.1814 6.36178 13.0994 5.95245C13.0174 5.54391 12.6585 5.25 12.2414 5.25H12.2397C7.42289 5.25858 4.65605 7.1897 2.69412 11.9099C2.06789 13.3925 1.75 14.9792 1.75 16.625C1.75 19.156 2.51563 20.5343 3.68288 22.3484C3.84353 22.5987 4.12125 22.75 4.41857 22.75H10.5C11.9475 22.75 13.125 21.5725 13.125 20.125V14C13.125 12.5525 11.9475 11.375 10.5 11.375ZM23.625 11.375H21.8878C22.7004 9.02169 23.3943 7.89469 25.7031 6.93254C26.0885 6.77189 26.3064 6.36178 26.2244 5.95245C26.1424 5.54391 25.7835 5.25 25.3664 5.25H25.3647C20.5479 5.25858 17.7811 7.1897 15.8191 11.9099C15.1929 13.3925 14.875 14.9792 14.875 16.625C14.875 19.156 15.6406 20.5343 16.8079 22.3484C16.9685 22.5987 17.2463 22.75 17.5436 22.75H23.625C25.0725 22.75 26.25 21.5725 26.25 20.125V14C26.25 12.5525 25.0725 11.375 23.625 11.375Z" fill="#30B477"/>
</svg>
