<svg width="32" height="32" viewBox="0 0 32 32" fill="none" xmlns="http://www.w3.org/2000/svg">
<circle cx="15.9851" cy="15.9851" r="15.9851" fill="#CFEACB"/>
<path d="M17.0363 16.6266L12.9376 20.7254C12.8804 20.7826 12.8125 20.8279 12.7378 20.8589C12.6631 20.8898 12.583 20.9058 12.5021 20.9058C12.4212 20.9058 12.3411 20.8898 12.2664 20.8589C12.1917 20.8279 12.1238 20.7826 12.0666 20.7254C12.0094 20.6682 11.9641 20.6003 11.9331 20.5256C11.9022 20.4508 11.8862 20.3708 11.8862 20.2899C11.8862 20.209 11.9022 20.1289 11.9331 20.0542C11.9641 19.9795 12.0094 19.9116 12.0666 19.8544L15.7304 16.1917L12.0676 12.5279C11.9521 12.4124 11.8873 12.2557 11.8873 12.0924C11.8873 11.9291 11.9521 11.7724 12.0676 11.6569C12.1831 11.5414 12.3398 11.4765 12.5031 11.4765C12.6665 11.4765 12.8231 11.5414 12.9386 11.6569L17.0374 15.7557C17.0946 15.8128 17.14 15.8808 17.171 15.9555C17.2019 16.0303 17.2178 16.1104 17.2177 16.1914C17.2176 16.2723 17.2015 16.3524 17.1704 16.4271C17.1393 16.5018 17.0937 16.5696 17.0363 16.6266ZM21.1351 15.7557L17.0363 11.6569C16.9791 11.5997 16.9113 11.5544 16.8365 11.5234C16.7618 11.4925 16.6817 11.4765 16.6008 11.4765C16.52 11.4765 16.4399 11.4925 16.3652 11.5234C16.2904 11.5544 16.2225 11.5997 16.1654 11.6569C16.1082 11.7141 16.0628 11.782 16.0318 11.8567C16.0009 11.9314 15.985 12.0115 15.985 12.0924C15.985 12.1733 16.0009 12.2534 16.0318 12.3281C16.0628 12.4028 16.1082 12.4707 16.1654 12.5279L19.8291 16.1917L16.1648 19.8554C16.0493 19.9709 15.9845 20.1276 15.9845 20.2909C15.9845 20.4542 16.0493 20.6109 16.1648 20.7264C16.2803 20.8419 16.437 20.9068 16.6003 20.9068C16.7637 20.9068 16.9203 20.8419 17.0358 20.7264L21.1346 16.6277C21.1919 16.5706 21.2374 16.5027 21.2685 16.428C21.2996 16.3533 21.3156 16.2732 21.3156 16.1923C21.3157 16.1114 21.2998 16.0312 21.2688 15.9565C21.2378 15.8817 21.1924 15.8138 21.1351 15.7567V15.7557Z" fill="#1D6B4E"/>
</svg>
