<svg width="65" height="64" viewBox="0 0 65 64" fill="none" xmlns="http://www.w3.org/2000/svg">
<g opacity="0.5" clip-path="url(#clip0_456_932)">
<path d="M10.4889 62.3228C10.4889 60.6532 10.4889 59.151 10.4889 57.6525C10.4889 53.663 10.4467 49.6696 10.5158 45.6839C10.5349 44.4973 10.3049 43.4894 9.52666 42.5995C8.82127 41.7932 8.56058 40.8767 8.61042 39.7966C8.68709 38.2258 8.62575 36.6475 8.62958 35.073C8.63342 33.8065 8.84427 33.605 10.0902 33.5859C10.4659 33.5821 10.8454 33.5517 11.3323 33.5289C11.3323 31.9506 11.4397 30.4445 11.2825 28.9651C11.2096 28.2995 10.6614 27.6492 10.2282 27.0673C9.33115 25.8541 9.65701 24.5001 9.81036 23.2223C9.84869 22.8876 10.7611 22.6556 11.455 22.2753V14.551C10.3816 13.4253 10.7879 12.0181 10.7304 10.706C10.7189 10.4664 10.6806 10.1165 10.8186 9.99859C11.8345 9.10104 11.4665 7.92586 11.4397 6.86857C11.4013 5.43477 11.7847 4.22155 12.6281 3.05398C13 2.54435 13.0498 1.7723 13.138 1.10294C13.2147 0.524859 13.3143 -0.00758688 13.9929 1.94873e-05C14.683 0.00762586 14.7366 0.566694 14.8133 1.12576C14.9015 1.75709 14.959 2.50252 15.327 2.9627C16.3276 4.21775 16.7531 5.55647 16.6611 7.1462C16.6075 8.08939 16.3123 9.14668 17.355 9.89591C17.5621 10.0442 17.5237 10.6337 17.47 10.9988C17.3014 12.1322 18.0566 13.4861 16.6956 14.357C16.6381 14.3951 16.642 14.5548 16.642 14.6575C16.642 17.2741 16.642 19.8907 16.642 22.6404C18.2253 22.3361 18.5435 23.1538 18.4016 24.3784C18.3211 25.0668 18.8003 25.0706 19.2872 25.0706C20.9817 25.063 22.6723 25.0592 24.3668 25.0592C31.2828 25.0592 38.1987 25.0592 45.1147 25.0592C45.5287 25.0592 45.9466 25.0592 46.3376 25.0592C46.6137 23.4847 47.2475 22.6404 48.2391 22.5263C48.2391 21.5146 48.2391 20.4802 48.2391 19.4419C48.2391 18.183 48.243 16.9204 48.2391 15.6615C48.2353 14.9808 48.3311 14.3304 47.7063 13.7447C47.2155 13.2845 47.5414 10.0899 47.9363 9.5232C48.1011 9.2874 48.2123 8.97173 48.2276 8.68649C48.266 7.91825 48.1318 7.12719 48.2698 6.38176C48.45 5.41195 48.6877 4.40791 49.1554 3.55219C49.5848 2.76874 49.9758 2.07276 49.9681 1.13717C49.9681 0.75305 50.409 0.0912959 50.7349 0.0342482C51.4786 -0.091257 51.5208 0.570497 51.6013 1.16379C51.6856 1.79132 51.7585 2.53674 52.1342 2.98172C53.2344 4.29001 53.5373 5.74283 53.4644 7.382C53.4261 8.22631 53.1922 9.11245 54.1008 9.84647C54.7027 10.3333 54.2388 13.5051 53.6791 14.1593C53.5564 14.3038 53.4568 14.5168 53.4568 14.7031C53.4414 17.2893 53.4453 19.8717 53.4453 22.5225C53.7826 22.5643 54.1047 22.5149 54.304 22.6442C54.6375 22.861 55.1244 23.1804 55.1436 23.4809C55.2356 24.8919 55.435 26.3561 54.327 27.5579C53.6178 28.3261 53.4644 29.2617 53.5258 30.2886C53.5909 31.3269 53.5411 32.3765 53.5411 33.5783C54.1583 33.5783 54.672 33.5898 55.1858 33.5783C55.9678 33.5593 56.3819 33.913 56.3819 34.7003C56.3819 36.7312 56.5045 38.7735 56.3205 40.7854C56.2477 41.5955 55.4503 42.3257 55.0707 43.1357C54.7756 43.7709 54.4344 44.4707 54.4267 45.1438C54.373 50.4303 54.396 55.7129 54.396 60.9993C54.396 61.4101 54.396 61.8208 54.396 62.3266C57.4246 62.3266 60.3114 62.3266 63.1981 62.3266C63.5508 62.3266 63.9534 62.2315 64.2409 62.3685C64.5629 62.5206 64.9348 62.8629 64.9923 63.1747C65.0306 63.3877 64.6051 63.7718 64.3061 63.9278C64.0531 64.0609 63.685 63.981 63.3668 63.981C42.7991 63.981 22.2276 63.981 1.65996 63.9772C0.96223 63.9772 -0.0498607 64.2054 -0.00385655 63.0911C0.0383139 62.068 1.01207 62.3418 1.67146 62.338C4.55822 62.319 7.44498 62.3304 10.4813 62.3304L10.4889 62.3228ZM39.667 62.262C39.667 59.3221 39.6364 56.4659 39.6785 53.6059C39.7015 52.1949 39.2338 50.9589 38.0837 50.2439C36.4314 49.2132 34.6296 48.4146 32.8776 47.5512C32.6629 47.4448 32.3064 47.4638 32.0764 47.5665C30.5659 48.2206 29.0056 48.8025 27.591 49.624C26.0383 50.5253 25.2064 51.9477 25.3367 53.8341C25.3981 54.705 25.3483 55.5798 25.3483 56.4545C25.3483 58.3675 25.3483 60.2805 25.3483 62.262H39.667ZM48.082 29.1895H16.8452V33.5137H20.1728C20.1728 32.966 20.0731 32.4564 20.2035 32.0152C20.3108 31.6577 20.7018 31.3839 20.9664 31.072C21.25 31.3687 21.6756 31.6235 21.7829 31.9734C21.9248 32.4412 21.8174 32.9812 21.8174 33.4985H24.7655C24.7655 32.8938 24.662 32.3423 24.8039 31.8593C24.8959 31.5436 25.3368 31.1291 25.6204 31.1291C25.885 31.1291 26.2875 31.5855 26.3718 31.9087C26.5022 32.3917 26.4063 32.9318 26.4063 33.4833H29.3506C29.3506 32.9356 29.2356 32.4412 29.3851 32.0419C29.527 31.6653 29.9487 31.3915 30.2477 31.0682C30.5084 31.3839 30.8956 31.6653 31.0029 32.0266C31.1333 32.4678 31.0336 32.9736 31.0336 33.4757H33.974C33.974 32.9204 33.8705 32.4374 34.0047 32.0266C34.1197 31.6653 34.4992 31.3877 34.7599 31.072C35.059 31.3915 35.4883 31.6653 35.6225 32.0419C35.772 32.4678 35.657 32.985 35.657 33.5061H38.5936C38.5936 32.9546 38.4901 32.445 38.6243 32.0038C38.7316 31.6463 39.1265 31.3763 39.3948 31.0682C39.6785 31.3649 40.1079 31.6197 40.2153 31.9696C40.3571 32.4336 40.2498 32.9774 40.2498 33.4947H43.2094C43.2094 32.8938 43.1097 32.3461 43.2439 31.8631C43.332 31.5474 43.7652 31.3269 44.0451 31.0644C44.3058 31.3459 44.7045 31.5893 44.7927 31.9163C44.9192 32.3994 44.8272 32.9356 44.8272 33.4871H48.0781V29.1857L48.082 29.1895ZM47.1159 59.1053C47.181 58.9874 47.2424 58.9266 47.2424 58.8695C47.2577 54.0433 47.3536 49.2132 47.2002 44.3908C47.1734 43.5503 46.2648 42.2762 45.4904 42.0252C44.2598 41.6259 42.7992 41.9187 41.396 41.9187V59.1091H47.1159V59.1053ZM23.6116 59.1205V41.9035C22.5458 41.9035 21.5644 41.9035 20.5868 41.9035C18.8885 41.9035 17.6272 43.1662 17.6234 44.8928C17.6157 49.2969 17.6196 53.701 17.6234 58.1013C17.6234 58.4322 17.6656 58.763 17.6924 59.1205H23.6154H23.6116ZM39.621 41.991H25.3981V49.16C25.6358 49.0155 25.7853 48.9432 25.908 48.8405C27.6025 47.3991 29.6113 46.5738 31.7083 45.9349C32.1224 45.8094 32.6629 45.7257 33.0348 45.8816C34.8366 46.6461 36.6116 47.479 38.3751 48.3309C38.7891 48.5325 39.1303 48.8862 39.6249 49.2589V41.9872L39.621 41.991ZM45.3332 37.4728V35.305H19.6629V37.4728H45.3332ZM52.6824 59.0901V44.6228H48.9944V59.0901H52.6824ZM15.9404 44.6456H12.2217V59.0673H15.9404V44.6456ZM10.3662 40.1655H17.8342V35.2898H10.3662V40.1655ZM54.6414 40.2111V35.324H47.1925V40.2111H54.6414ZM45.3332 39.2679H19.6821C19.4444 40.0552 19.7396 40.2605 20.445 40.2567C28.4804 40.2415 36.5196 40.2415 44.555 40.2567C45.245 40.2567 45.5747 40.078 45.3294 39.2679H45.3332ZM47.1197 27.4248C46.8974 26.5386 46.2725 26.6794 45.7396 26.6794C39.2492 26.6756 32.7549 26.6756 26.2645 26.6756C23.7956 26.6756 21.3267 26.6603 18.8578 26.7022C18.4783 26.7098 18.1026 26.9722 17.7231 27.1167C17.7614 27.2194 17.7959 27.3259 17.8342 27.4286H47.1197V27.4248ZM13.1572 22.5415H14.9053V14.2696H13.1572V22.5415ZM51.6933 22.5567V14.281H49.9681V22.5567H51.6933ZM16.6381 24.3252H11.4742C11.294 25.3559 11.8115 27.2004 12.4901 27.3297C13.4984 27.5199 14.5948 27.5161 15.603 27.3297C16.2931 27.2042 16.826 25.3749 16.642 24.3252H16.6381ZM48.2698 24.3214C47.8289 25.6677 48.4462 26.8277 49.3049 27.2651C50.1445 27.6948 51.5859 27.6682 52.4178 27.2194C53.2497 26.7706 53.89 25.6183 53.4031 24.3214H48.2698ZM15.0357 33.5365V29.1971H13.092V33.5365H15.0357ZM49.8531 33.4833H51.8006V29.2047H49.8531V33.4833ZM14.0044 4.11126C12.5284 5.73142 13.299 7.56075 13.0958 9.29881H15.028C14.7175 7.52652 15.6145 5.65155 14.0082 4.11126H14.0044ZM51.8083 9.32543C51.5054 7.56456 52.4178 5.67817 50.7924 4.13028C49.2819 5.72001 50.1368 7.56456 49.8569 9.32543H51.8083ZM41.3807 62.2544H47.204V60.8852H41.3807V62.2544ZM17.6771 62.262H23.6193V60.8852H17.6771V62.262ZM52.6977 60.8852H49.0365V62.2391H52.6977V60.8852ZM15.8982 62.262V60.9004H12.2217V62.262H15.8982ZM11.3745 41.9568L11.271 42.2952C12.4556 43.5085 14.0696 42.6794 15.4612 42.9038C16.1474 43.014 16.711 42.8277 16.8567 41.9568H11.3745ZM48.1548 41.9568C48.1241 42.0709 48.0896 42.1811 48.059 42.2952C49.3126 43.5541 50.9955 42.6832 52.46 42.8733C52.8549 42.9228 53.3111 42.5006 53.7366 42.2952C53.6868 42.1811 53.6408 42.0709 53.5909 41.9568H48.1548ZM49.2512 12.4745H52.5405V11.1395H49.2512V12.4745ZM15.7602 12.4935V11.1205H12.4671V12.4935H15.7602Z" fill="#1D6B4E"/>
<path d="M45.1609 51.0121C45.0497 51.4114 45.0459 51.9135 44.7929 52.1531C44.5897 52.3432 44.0798 52.2063 43.7041 52.2177C43.7041 51.3962 43.7118 50.5709 43.7156 49.7495C44.0951 49.7647 44.6127 49.643 44.812 49.8369C45.0612 50.0803 45.0497 50.5862 45.1609 51.0121Z" fill="#1D6B4E"/>
<path d="M45.2681 45.874C45.0343 46.3532 44.9154 46.8438 44.6049 47.1329C44.4554 47.2698 43.6542 47.0454 43.6465 46.9465C43.5852 46.1821 43.6158 45.4024 43.7117 44.6418C43.7232 44.5505 44.4937 44.3832 44.5934 44.5049C44.8924 44.87 45.0304 45.3606 45.2681 45.8778V45.874Z" fill="#1D6B4E"/>
<path d="M45.1453 56.097C45.0648 56.4925 45.0839 56.9223 44.8884 57.1999C44.7351 57.4129 44.137 57.6107 44.0335 57.5118C43.7537 57.2379 43.4623 56.8006 43.4776 56.4393C43.5006 55.8802 43.7498 55.3173 43.9798 54.7925C44.0028 54.7431 44.7006 54.8343 44.8616 55.0359C45.0724 55.2983 45.0609 55.7357 45.1414 56.097H45.1453Z" fill="#1D6B4E"/>
<path d="M21.5223 51.0236C21.5108 51.267 21.5913 51.5864 21.4648 51.7386C21.231 52.02 20.8783 52.2025 20.5754 52.4269C20.3339 51.9858 19.962 51.5674 19.8815 51.0996C19.778 50.5177 19.6822 49.7305 20.5524 49.5898C20.8246 49.5479 21.2348 49.9244 21.4572 50.2059C21.599 50.3846 21.5108 50.7459 21.5262 51.0236H21.5223Z" fill="#1D6B4E"/>
<path d="M21.6332 56.1541C21.4799 56.599 21.4415 57.1163 21.1617 57.3787C20.9815 57.546 20.1304 57.3711 20.1189 57.2912C20.0307 56.5344 20.0346 55.7623 20.1074 55.0017C20.1151 54.9294 20.9661 54.7621 21.154 54.9332C21.4339 55.1918 21.476 55.7091 21.6332 56.1541Z" fill="#1D6B4E"/>
<path d="M21.6295 45.8055C21.48 46.2543 21.4532 46.7754 21.1733 47.0416C20.9931 47.2165 20.1267 47.053 20.119 46.9807C20.0347 46.2201 20.027 45.4442 20.1075 44.6836C20.1152 44.5961 20.9778 44.4098 21.1541 44.5733C21.4378 44.8357 21.4762 45.3568 21.6257 45.8017L21.6295 45.8055Z" fill="#1D6B4E"/>
</g>
<defs>
<clipPath id="clip0_456_932">
<rect width="65" height="64" fill="white"/>
</clipPath>
</defs>
</svg>
