<svg width="338" height="183" viewBox="0 0 338 183" fill="none" xmlns="http://www.w3.org/2000/svg">
<path d="M6.4739 85.094C3.24753 72.0897 13.4707 59.6529 26.8536 60.3015L317.35 74.381C328.642 74.9283 337.236 84.7196 336.315 95.9877L332.173 146.63C331.324 157.009 322.653 165 312.24 165H41.9428C32.7521 165 24.7444 158.736 22.5313 149.816L6.4739 85.094Z" fill="#1D6B4E"/>
<rect x="147" y="92" width="149" height="36" rx="7" fill="#FF7127"/>
<path d="M162.156 103.625H166.18C167.044 103.625 167.781 103.755 168.391 104.016C169 104.276 169.466 104.661 169.789 105.172C170.117 105.677 170.281 106.302 170.281 107.047C170.281 107.615 170.177 108.115 169.969 108.547C169.76 108.979 169.466 109.344 169.086 109.641C168.706 109.932 168.253 110.159 167.727 110.32L167.133 110.609H163.516L163.5 109.055H166.211C166.68 109.055 167.07 108.971 167.383 108.805C167.695 108.638 167.93 108.411 168.086 108.125C168.247 107.833 168.328 107.505 168.328 107.141C168.328 106.745 168.25 106.401 168.094 106.109C167.943 105.812 167.708 105.586 167.391 105.43C167.073 105.268 166.669 105.188 166.18 105.188H164.117V115H162.156V103.625ZM168.648 115L165.977 109.891L168.031 109.883L170.742 114.898V115H168.648ZM175.773 115.156C175.148 115.156 174.583 115.055 174.078 114.852C173.578 114.643 173.151 114.354 172.797 113.984C172.448 113.615 172.18 113.18 171.992 112.68C171.805 112.18 171.711 111.641 171.711 111.062V110.75C171.711 110.089 171.807 109.49 172 108.953C172.193 108.417 172.461 107.958 172.805 107.578C173.148 107.193 173.555 106.898 174.023 106.695C174.492 106.492 175 106.391 175.547 106.391C176.151 106.391 176.68 106.492 177.133 106.695C177.586 106.898 177.961 107.185 178.258 107.555C178.56 107.919 178.784 108.354 178.93 108.859C179.081 109.365 179.156 109.922 179.156 110.531V111.336H172.625V109.984H177.297V109.836C177.286 109.497 177.219 109.18 177.094 108.883C176.974 108.586 176.789 108.346 176.539 108.164C176.289 107.982 175.956 107.891 175.539 107.891C175.227 107.891 174.948 107.958 174.703 108.094C174.464 108.224 174.263 108.414 174.102 108.664C173.94 108.914 173.815 109.216 173.727 109.57C173.643 109.919 173.602 110.312 173.602 110.75V111.062C173.602 111.432 173.651 111.776 173.75 112.094C173.854 112.406 174.005 112.68 174.203 112.914C174.401 113.148 174.641 113.333 174.922 113.469C175.203 113.599 175.523 113.664 175.883 113.664C176.336 113.664 176.74 113.573 177.094 113.391C177.448 113.208 177.755 112.951 178.016 112.617L179.008 113.578C178.826 113.844 178.589 114.099 178.297 114.344C178.005 114.583 177.648 114.779 177.227 114.93C176.81 115.081 176.326 115.156 175.773 115.156ZM186.039 106.547H187.75V114.766C187.75 115.526 187.589 116.172 187.266 116.703C186.943 117.234 186.492 117.638 185.914 117.914C185.336 118.195 184.667 118.336 183.906 118.336C183.583 118.336 183.224 118.289 182.828 118.195C182.438 118.102 182.057 117.951 181.688 117.742C181.323 117.539 181.018 117.271 180.773 116.938L181.656 115.828C181.958 116.188 182.292 116.451 182.656 116.617C183.021 116.784 183.404 116.867 183.805 116.867C184.237 116.867 184.604 116.786 184.906 116.625C185.214 116.469 185.451 116.237 185.617 115.93C185.784 115.622 185.867 115.247 185.867 114.805V108.461L186.039 106.547ZM180.297 110.867V110.703C180.297 110.062 180.375 109.479 180.531 108.953C180.688 108.422 180.911 107.966 181.203 107.586C181.495 107.201 181.849 106.906 182.266 106.703C182.682 106.495 183.154 106.391 183.68 106.391C184.227 106.391 184.693 106.49 185.078 106.688C185.469 106.885 185.794 107.169 186.055 107.539C186.315 107.904 186.518 108.341 186.664 108.852C186.815 109.357 186.927 109.919 187 110.539V111.062C186.932 111.667 186.818 112.219 186.656 112.719C186.495 113.219 186.281 113.651 186.016 114.016C185.75 114.38 185.422 114.661 185.031 114.859C184.646 115.057 184.19 115.156 183.664 115.156C183.148 115.156 182.682 115.049 182.266 114.836C181.854 114.622 181.5 114.323 181.203 113.938C180.911 113.552 180.688 113.099 180.531 112.578C180.375 112.052 180.297 111.482 180.297 110.867ZM182.18 110.703V110.867C182.18 111.253 182.216 111.612 182.289 111.945C182.367 112.279 182.484 112.573 182.641 112.828C182.802 113.078 183.005 113.276 183.25 113.422C183.5 113.562 183.794 113.633 184.133 113.633C184.576 113.633 184.938 113.539 185.219 113.352C185.505 113.164 185.724 112.911 185.875 112.594C186.031 112.271 186.141 111.911 186.203 111.516V110.102C186.172 109.794 186.107 109.508 186.008 109.242C185.914 108.977 185.786 108.745 185.625 108.547C185.464 108.344 185.26 108.188 185.016 108.078C184.771 107.964 184.482 107.906 184.148 107.906C183.81 107.906 183.516 107.979 183.266 108.125C183.016 108.271 182.81 108.471 182.648 108.727C182.492 108.982 182.375 109.279 182.297 109.617C182.219 109.956 182.18 110.318 182.18 110.703ZM191.719 106.547V115H189.828V106.547H191.719ZM189.703 104.328C189.703 104.042 189.797 103.805 189.984 103.617C190.177 103.424 190.443 103.328 190.781 103.328C191.115 103.328 191.378 103.424 191.57 103.617C191.763 103.805 191.859 104.042 191.859 104.328C191.859 104.609 191.763 104.844 191.57 105.031C191.378 105.219 191.115 105.312 190.781 105.312C190.443 105.312 190.177 105.219 189.984 105.031C189.797 104.844 189.703 104.609 189.703 104.328ZM198.523 112.711C198.523 112.523 198.477 112.354 198.383 112.203C198.289 112.047 198.109 111.906 197.844 111.781C197.583 111.656 197.198 111.542 196.688 111.438C196.24 111.339 195.828 111.221 195.453 111.086C195.083 110.945 194.766 110.776 194.5 110.578C194.234 110.38 194.029 110.146 193.883 109.875C193.737 109.604 193.664 109.292 193.664 108.938C193.664 108.594 193.74 108.268 193.891 107.961C194.042 107.654 194.258 107.383 194.539 107.148C194.82 106.914 195.161 106.729 195.562 106.594C195.969 106.458 196.422 106.391 196.922 106.391C197.63 106.391 198.237 106.51 198.742 106.75C199.253 106.984 199.643 107.305 199.914 107.711C200.185 108.112 200.32 108.565 200.32 109.07H198.438C198.438 108.846 198.38 108.638 198.266 108.445C198.156 108.247 197.99 108.089 197.766 107.969C197.542 107.844 197.26 107.781 196.922 107.781C196.599 107.781 196.331 107.833 196.117 107.938C195.909 108.036 195.753 108.167 195.648 108.328C195.549 108.49 195.5 108.667 195.5 108.859C195.5 109 195.526 109.128 195.578 109.242C195.635 109.352 195.729 109.453 195.859 109.547C195.99 109.635 196.167 109.719 196.391 109.797C196.62 109.875 196.906 109.951 197.25 110.023C197.896 110.159 198.451 110.333 198.914 110.547C199.383 110.755 199.742 111.026 199.992 111.359C200.242 111.688 200.367 112.104 200.367 112.609C200.367 112.984 200.286 113.328 200.125 113.641C199.969 113.948 199.74 114.216 199.438 114.445C199.135 114.669 198.773 114.844 198.352 114.969C197.935 115.094 197.466 115.156 196.945 115.156C196.18 115.156 195.531 115.021 195 114.75C194.469 114.474 194.065 114.122 193.789 113.695C193.518 113.263 193.383 112.815 193.383 112.352H195.203C195.224 112.701 195.32 112.979 195.492 113.188C195.669 113.391 195.888 113.539 196.148 113.633C196.414 113.721 196.688 113.766 196.969 113.766C197.307 113.766 197.591 113.721 197.82 113.633C198.049 113.539 198.224 113.414 198.344 113.258C198.464 113.096 198.523 112.914 198.523 112.711ZM205.891 106.547V107.922H201.125V106.547H205.891ZM202.5 104.477H204.383V112.664C204.383 112.924 204.419 113.125 204.492 113.266C204.57 113.401 204.677 113.492 204.812 113.539C204.948 113.586 205.107 113.609 205.289 113.609C205.419 113.609 205.544 113.602 205.664 113.586C205.784 113.57 205.88 113.555 205.953 113.539L205.961 114.977C205.805 115.023 205.622 115.065 205.414 115.102C205.211 115.138 204.977 115.156 204.711 115.156C204.279 115.156 203.896 115.081 203.562 114.93C203.229 114.773 202.969 114.521 202.781 114.172C202.594 113.823 202.5 113.359 202.5 112.781V104.477ZM211.07 115.156C210.445 115.156 209.88 115.055 209.375 114.852C208.875 114.643 208.448 114.354 208.094 113.984C207.745 113.615 207.477 113.18 207.289 112.68C207.102 112.18 207.008 111.641 207.008 111.062V110.75C207.008 110.089 207.104 109.49 207.297 108.953C207.49 108.417 207.758 107.958 208.102 107.578C208.445 107.193 208.852 106.898 209.32 106.695C209.789 106.492 210.297 106.391 210.844 106.391C211.448 106.391 211.977 106.492 212.43 106.695C212.883 106.898 213.258 107.185 213.555 107.555C213.857 107.919 214.081 108.354 214.227 108.859C214.378 109.365 214.453 109.922 214.453 110.531V111.336H207.922V109.984H212.594V109.836C212.583 109.497 212.516 109.18 212.391 108.883C212.271 108.586 212.086 108.346 211.836 108.164C211.586 107.982 211.253 107.891 210.836 107.891C210.523 107.891 210.245 107.958 210 108.094C209.76 108.224 209.56 108.414 209.398 108.664C209.237 108.914 209.112 109.216 209.023 109.57C208.94 109.919 208.898 110.312 208.898 110.75V111.062C208.898 111.432 208.948 111.776 209.047 112.094C209.151 112.406 209.302 112.68 209.5 112.914C209.698 113.148 209.938 113.333 210.219 113.469C210.5 113.599 210.82 113.664 211.18 113.664C211.633 113.664 212.036 113.573 212.391 113.391C212.745 113.208 213.052 112.951 213.312 112.617L214.305 113.578C214.122 113.844 213.885 114.099 213.594 114.344C213.302 114.583 212.945 114.779 212.523 114.93C212.107 115.081 211.622 115.156 211.07 115.156ZM217.812 108.156V115H215.93V106.547H217.727L217.812 108.156ZM220.398 106.492L220.383 108.242C220.268 108.221 220.143 108.206 220.008 108.195C219.878 108.185 219.747 108.18 219.617 108.18C219.294 108.18 219.01 108.227 218.766 108.32C218.521 108.409 218.315 108.539 218.148 108.711C217.987 108.878 217.862 109.081 217.773 109.32C217.685 109.56 217.633 109.828 217.617 110.125L217.188 110.156C217.188 109.625 217.24 109.133 217.344 108.68C217.448 108.227 217.604 107.828 217.812 107.484C218.026 107.141 218.292 106.872 218.609 106.68C218.932 106.487 219.305 106.391 219.727 106.391C219.841 106.391 219.964 106.401 220.094 106.422C220.229 106.443 220.331 106.466 220.398 106.492ZM230.328 113.305V109.273C230.328 108.971 230.273 108.711 230.164 108.492C230.055 108.273 229.888 108.104 229.664 107.984C229.445 107.865 229.169 107.805 228.836 107.805C228.529 107.805 228.263 107.857 228.039 107.961C227.815 108.065 227.641 108.206 227.516 108.383C227.391 108.56 227.328 108.76 227.328 108.984H225.453C225.453 108.651 225.534 108.328 225.695 108.016C225.857 107.703 226.091 107.424 226.398 107.18C226.706 106.935 227.073 106.742 227.5 106.602C227.927 106.461 228.406 106.391 228.938 106.391C229.573 106.391 230.135 106.497 230.625 106.711C231.12 106.924 231.508 107.247 231.789 107.68C232.076 108.107 232.219 108.643 232.219 109.289V113.047C232.219 113.432 232.245 113.779 232.297 114.086C232.354 114.388 232.435 114.651 232.539 114.875V115H230.609C230.521 114.797 230.451 114.539 230.398 114.227C230.352 113.909 230.328 113.602 230.328 113.305ZM230.602 109.859L230.617 111.023H229.266C228.917 111.023 228.609 111.057 228.344 111.125C228.078 111.188 227.857 111.281 227.68 111.406C227.503 111.531 227.37 111.682 227.281 111.859C227.193 112.036 227.148 112.237 227.148 112.461C227.148 112.685 227.201 112.891 227.305 113.078C227.409 113.26 227.56 113.404 227.758 113.508C227.961 113.612 228.206 113.664 228.492 113.664C228.878 113.664 229.214 113.586 229.5 113.43C229.792 113.268 230.021 113.073 230.188 112.844C230.354 112.609 230.443 112.388 230.453 112.18L231.062 113.016C231 113.229 230.893 113.458 230.742 113.703C230.591 113.948 230.393 114.182 230.148 114.406C229.909 114.625 229.62 114.805 229.281 114.945C228.948 115.086 228.562 115.156 228.125 115.156C227.573 115.156 227.081 115.047 226.648 114.828C226.216 114.604 225.878 114.305 225.633 113.93C225.388 113.549 225.266 113.12 225.266 112.641C225.266 112.193 225.349 111.797 225.516 111.453C225.688 111.104 225.938 110.812 226.266 110.578C226.599 110.344 227.005 110.167 227.484 110.047C227.964 109.922 228.51 109.859 229.125 109.859H230.602ZM238.93 112.711C238.93 112.523 238.883 112.354 238.789 112.203C238.695 112.047 238.516 111.906 238.25 111.781C237.99 111.656 237.604 111.542 237.094 111.438C236.646 111.339 236.234 111.221 235.859 111.086C235.49 110.945 235.172 110.776 234.906 110.578C234.641 110.38 234.435 110.146 234.289 109.875C234.143 109.604 234.07 109.292 234.07 108.938C234.07 108.594 234.146 108.268 234.297 107.961C234.448 107.654 234.664 107.383 234.945 107.148C235.227 106.914 235.568 106.729 235.969 106.594C236.375 106.458 236.828 106.391 237.328 106.391C238.036 106.391 238.643 106.51 239.148 106.75C239.659 106.984 240.049 107.305 240.32 107.711C240.591 108.112 240.727 108.565 240.727 109.07H238.844C238.844 108.846 238.786 108.638 238.672 108.445C238.562 108.247 238.396 108.089 238.172 107.969C237.948 107.844 237.667 107.781 237.328 107.781C237.005 107.781 236.737 107.833 236.523 107.938C236.315 108.036 236.159 108.167 236.055 108.328C235.956 108.49 235.906 108.667 235.906 108.859C235.906 109 235.932 109.128 235.984 109.242C236.042 109.352 236.135 109.453 236.266 109.547C236.396 109.635 236.573 109.719 236.797 109.797C237.026 109.875 237.312 109.951 237.656 110.023C238.302 110.159 238.857 110.333 239.32 110.547C239.789 110.755 240.148 111.026 240.398 111.359C240.648 111.688 240.773 112.104 240.773 112.609C240.773 112.984 240.693 113.328 240.531 113.641C240.375 113.948 240.146 114.216 239.844 114.445C239.542 114.669 239.18 114.844 238.758 114.969C238.341 115.094 237.872 115.156 237.352 115.156C236.586 115.156 235.938 115.021 235.406 114.75C234.875 114.474 234.471 114.122 234.195 113.695C233.924 113.263 233.789 112.815 233.789 112.352H235.609C235.63 112.701 235.727 112.979 235.898 113.188C236.076 113.391 236.294 113.539 236.555 113.633C236.82 113.721 237.094 113.766 237.375 113.766C237.714 113.766 237.997 113.721 238.227 113.633C238.456 113.539 238.63 113.414 238.75 113.258C238.87 113.096 238.93 112.914 238.93 112.711ZM247.391 103.625H249.141L252.43 112.398L255.711 103.625H257.461L253.117 115H251.727L247.391 103.625ZM246.594 103.625H248.258L248.547 111.219V115H246.594V103.625ZM256.594 103.625H258.266V115H256.305V111.219L256.594 103.625ZM265.172 113.305V109.273C265.172 108.971 265.117 108.711 265.008 108.492C264.898 108.273 264.732 108.104 264.508 107.984C264.289 107.865 264.013 107.805 263.68 107.805C263.372 107.805 263.107 107.857 262.883 107.961C262.659 108.065 262.484 108.206 262.359 108.383C262.234 108.56 262.172 108.76 262.172 108.984H260.297C260.297 108.651 260.378 108.328 260.539 108.016C260.701 107.703 260.935 107.424 261.242 107.18C261.549 106.935 261.917 106.742 262.344 106.602C262.771 106.461 263.25 106.391 263.781 106.391C264.417 106.391 264.979 106.497 265.469 106.711C265.964 106.924 266.352 107.247 266.633 107.68C266.919 108.107 267.062 108.643 267.062 109.289V113.047C267.062 113.432 267.089 113.779 267.141 114.086C267.198 114.388 267.279 114.651 267.383 114.875V115H265.453C265.365 114.797 265.294 114.539 265.242 114.227C265.195 113.909 265.172 113.602 265.172 113.305ZM265.445 109.859L265.461 111.023H264.109C263.76 111.023 263.453 111.057 263.188 111.125C262.922 111.188 262.701 111.281 262.523 111.406C262.346 111.531 262.214 111.682 262.125 111.859C262.036 112.036 261.992 112.237 261.992 112.461C261.992 112.685 262.044 112.891 262.148 113.078C262.253 113.26 262.404 113.404 262.602 113.508C262.805 113.612 263.049 113.664 263.336 113.664C263.721 113.664 264.057 113.586 264.344 113.43C264.635 113.268 264.865 113.073 265.031 112.844C265.198 112.609 265.286 112.388 265.297 112.18L265.906 113.016C265.844 113.229 265.737 113.458 265.586 113.703C265.435 113.948 265.237 114.182 264.992 114.406C264.753 114.625 264.464 114.805 264.125 114.945C263.792 115.086 263.406 115.156 262.969 115.156C262.417 115.156 261.924 115.047 261.492 114.828C261.06 114.604 260.721 114.305 260.477 113.93C260.232 113.549 260.109 113.12 260.109 112.641C260.109 112.193 260.193 111.797 260.359 111.453C260.531 111.104 260.781 110.812 261.109 110.578C261.443 110.344 261.849 110.167 262.328 110.047C262.807 109.922 263.354 109.859 263.969 109.859H265.445ZM271.047 106.547V115H269.156V106.547H271.047ZM269.031 104.328C269.031 104.042 269.125 103.805 269.312 103.617C269.505 103.424 269.771 103.328 270.109 103.328C270.443 103.328 270.706 103.424 270.898 103.617C271.091 103.805 271.188 104.042 271.188 104.328C271.188 104.609 271.091 104.844 270.898 105.031C270.706 105.219 270.443 105.312 270.109 105.312C269.771 105.312 269.505 105.219 269.312 105.031C269.125 104.844 269.031 104.609 269.031 104.328ZM278.266 113.25V103H280.156V115H278.445L278.266 113.25ZM272.766 110.867V110.703C272.766 110.062 272.841 109.479 272.992 108.953C273.143 108.422 273.362 107.966 273.648 107.586C273.935 107.201 274.284 106.906 274.695 106.703C275.107 106.495 275.57 106.391 276.086 106.391C276.596 106.391 277.044 106.49 277.43 106.688C277.815 106.885 278.143 107.169 278.414 107.539C278.685 107.904 278.901 108.341 279.062 108.852C279.224 109.357 279.339 109.919 279.406 110.539V111.062C279.339 111.667 279.224 112.219 279.062 112.719C278.901 113.219 278.685 113.651 278.414 114.016C278.143 114.38 277.812 114.661 277.422 114.859C277.036 115.057 276.586 115.156 276.07 115.156C275.56 115.156 275.099 115.049 274.688 114.836C274.281 114.622 273.935 114.323 273.648 113.938C273.362 113.552 273.143 113.099 272.992 112.578C272.841 112.052 272.766 111.482 272.766 110.867ZM274.648 110.703V110.867C274.648 111.253 274.682 111.612 274.75 111.945C274.823 112.279 274.935 112.573 275.086 112.828C275.237 113.078 275.432 113.276 275.672 113.422C275.917 113.562 276.208 113.633 276.547 113.633C276.974 113.633 277.326 113.539 277.602 113.352C277.878 113.164 278.094 112.911 278.25 112.594C278.411 112.271 278.521 111.911 278.578 111.516V110.102C278.547 109.794 278.482 109.508 278.383 109.242C278.289 108.977 278.161 108.745 278 108.547C277.839 108.344 277.638 108.188 277.398 108.078C277.164 107.964 276.885 107.906 276.562 107.906C276.219 107.906 275.927 107.979 275.688 108.125C275.448 108.271 275.25 108.471 275.094 108.727C274.943 108.982 274.831 109.279 274.758 109.617C274.685 109.956 274.648 110.318 274.648 110.703Z" fill="#F8F6FF"/>
<path d="M154.656 141.326V142.399H149.27V141.326H154.656ZM149.475 137.047V147H148.155V137.047H149.475ZM155.805 137.047V147H154.492V137.047H155.805ZM161.027 147.137C160.512 147.137 160.045 147.05 159.626 146.877C159.211 146.699 158.854 146.451 158.553 146.132C158.257 145.813 158.029 145.435 157.869 144.997C157.71 144.56 157.63 144.081 157.63 143.562V143.274C157.63 142.673 157.719 142.137 157.896 141.668C158.074 141.194 158.316 140.793 158.621 140.465C158.926 140.137 159.273 139.888 159.66 139.72C160.048 139.551 160.449 139.467 160.863 139.467C161.392 139.467 161.848 139.558 162.23 139.74C162.618 139.923 162.935 140.178 163.181 140.506C163.427 140.829 163.609 141.212 163.728 141.654C163.846 142.092 163.905 142.57 163.905 143.09V143.657H158.382V142.625H162.641V142.529C162.622 142.201 162.554 141.882 162.436 141.572C162.322 141.262 162.139 141.007 161.889 140.807C161.638 140.606 161.296 140.506 160.863 140.506C160.576 140.506 160.312 140.567 160.07 140.69C159.829 140.809 159.621 140.987 159.448 141.224C159.275 141.461 159.141 141.75 159.045 142.092C158.949 142.434 158.901 142.828 158.901 143.274V143.562C158.901 143.912 158.949 144.243 159.045 144.553C159.145 144.858 159.289 145.127 159.476 145.359C159.667 145.592 159.897 145.774 160.166 145.906C160.439 146.038 160.749 146.104 161.096 146.104C161.542 146.104 161.921 146.013 162.23 145.831C162.54 145.649 162.812 145.405 163.044 145.1L163.81 145.708C163.65 145.95 163.447 146.18 163.201 146.398C162.955 146.617 162.652 146.795 162.292 146.932C161.937 147.068 161.515 147.137 161.027 147.137ZM166.756 136.5V147H165.484V136.5H166.756ZM170.051 141.025V149.844H168.779V139.604H169.941L170.051 141.025ZM175.034 143.24V143.384C175.034 143.922 174.97 144.421 174.843 144.881C174.715 145.337 174.528 145.733 174.282 146.07C174.041 146.408 173.742 146.67 173.387 146.856C173.031 147.043 172.623 147.137 172.163 147.137C171.694 147.137 171.279 147.059 170.919 146.904C170.559 146.749 170.254 146.524 170.003 146.228C169.752 145.931 169.552 145.576 169.401 145.161C169.256 144.746 169.155 144.279 169.101 143.76V142.994C169.155 142.447 169.258 141.957 169.408 141.524C169.559 141.091 169.757 140.722 170.003 140.417C170.254 140.107 170.557 139.872 170.912 139.713C171.268 139.549 171.678 139.467 172.143 139.467C172.607 139.467 173.02 139.558 173.38 139.74C173.74 139.918 174.043 140.173 174.289 140.506C174.535 140.839 174.72 141.237 174.843 141.702C174.97 142.162 175.034 142.675 175.034 143.24ZM173.763 143.384V143.24C173.763 142.871 173.724 142.525 173.646 142.201C173.569 141.873 173.448 141.586 173.284 141.34C173.125 141.089 172.92 140.893 172.669 140.752C172.418 140.606 172.12 140.533 171.773 140.533C171.454 140.533 171.176 140.588 170.939 140.697C170.707 140.807 170.509 140.955 170.345 141.142C170.181 141.324 170.046 141.534 169.941 141.771C169.841 142.003 169.766 142.244 169.716 142.495V144.266C169.807 144.585 169.935 144.885 170.099 145.168C170.263 145.446 170.481 145.672 170.755 145.845C171.028 146.013 171.372 146.098 171.787 146.098C172.129 146.098 172.423 146.027 172.669 145.886C172.92 145.74 173.125 145.542 173.284 145.291C173.448 145.04 173.569 144.753 173.646 144.43C173.724 144.102 173.763 143.753 173.763 143.384ZM182.198 146.234L184.256 139.604H185.609L182.643 148.142C182.574 148.324 182.483 148.52 182.369 148.729C182.26 148.944 182.118 149.146 181.945 149.338C181.772 149.529 181.562 149.684 181.316 149.803C181.075 149.926 180.785 149.987 180.448 149.987C180.348 149.987 180.22 149.974 180.065 149.946C179.91 149.919 179.801 149.896 179.737 149.878L179.73 148.853C179.767 148.857 179.824 148.862 179.901 148.866C179.983 148.875 180.04 148.88 180.072 148.88C180.359 148.88 180.603 148.841 180.804 148.764C181.004 148.691 181.173 148.565 181.31 148.388C181.451 148.215 181.572 147.975 181.672 147.67L182.198 146.234ZM180.688 139.604L182.608 145.346L182.937 146.679L182.027 147.144L179.307 139.604H180.688ZM186.307 143.384V143.227C186.307 142.693 186.384 142.199 186.539 141.743C186.694 141.283 186.917 140.884 187.209 140.547C187.501 140.205 187.854 139.941 188.269 139.754C188.683 139.562 189.148 139.467 189.663 139.467C190.183 139.467 190.65 139.562 191.064 139.754C191.484 139.941 191.839 140.205 192.131 140.547C192.427 140.884 192.653 141.283 192.808 141.743C192.963 142.199 193.04 142.693 193.04 143.227V143.384C193.04 143.917 192.963 144.411 192.808 144.867C192.653 145.323 192.427 145.722 192.131 146.063C191.839 146.401 191.486 146.665 191.071 146.856C190.661 147.043 190.196 147.137 189.677 147.137C189.157 147.137 188.69 147.043 188.275 146.856C187.861 146.665 187.505 146.401 187.209 146.063C186.917 145.722 186.694 145.323 186.539 144.867C186.384 144.411 186.307 143.917 186.307 143.384ZM187.571 143.227V143.384C187.571 143.753 187.615 144.102 187.701 144.43C187.788 144.753 187.918 145.04 188.091 145.291C188.269 145.542 188.49 145.74 188.754 145.886C189.018 146.027 189.326 146.098 189.677 146.098C190.023 146.098 190.326 146.027 190.586 145.886C190.85 145.74 191.069 145.542 191.242 145.291C191.415 145.04 191.545 144.753 191.632 144.43C191.723 144.102 191.769 143.753 191.769 143.384V143.227C191.769 142.862 191.723 142.518 191.632 142.194C191.545 141.866 191.413 141.577 191.235 141.326C191.062 141.071 190.843 140.87 190.579 140.725C190.319 140.579 190.014 140.506 189.663 140.506C189.317 140.506 189.011 140.579 188.747 140.725C188.487 140.87 188.269 141.071 188.091 141.326C187.918 141.577 187.788 141.866 187.701 142.194C187.615 142.518 187.571 142.862 187.571 143.227ZM199.151 145.291V139.604H200.423V147H199.213L199.151 145.291ZM199.391 143.732L199.917 143.719C199.917 144.211 199.865 144.667 199.76 145.086C199.66 145.501 199.495 145.861 199.268 146.166C199.04 146.471 198.741 146.711 198.372 146.884C198.003 147.052 197.554 147.137 197.025 147.137C196.665 147.137 196.335 147.084 196.034 146.979C195.738 146.875 195.483 146.713 195.269 146.494C195.054 146.275 194.888 145.991 194.77 145.64C194.656 145.289 194.599 144.867 194.599 144.375V139.604H195.863V144.389C195.863 144.721 195.9 144.997 195.973 145.216C196.05 145.43 196.153 145.601 196.28 145.729C196.412 145.852 196.558 145.938 196.718 145.988C196.882 146.038 197.05 146.063 197.224 146.063C197.761 146.063 198.188 145.961 198.502 145.756C198.816 145.546 199.042 145.266 199.179 144.915C199.32 144.56 199.391 144.165 199.391 143.732ZM203.615 140.766V147H202.351V139.604H203.581L203.615 140.766ZM205.926 139.562L205.919 140.738C205.814 140.715 205.714 140.702 205.618 140.697C205.527 140.688 205.422 140.684 205.304 140.684C205.012 140.684 204.755 140.729 204.531 140.82C204.308 140.911 204.119 141.039 203.964 141.203C203.809 141.367 203.686 141.563 203.595 141.791C203.508 142.014 203.451 142.26 203.424 142.529L203.068 142.734C203.068 142.288 203.112 141.868 203.198 141.477C203.289 141.085 203.428 140.738 203.615 140.438C203.802 140.132 204.039 139.895 204.326 139.727C204.618 139.553 204.964 139.467 205.365 139.467C205.456 139.467 205.561 139.478 205.68 139.501C205.798 139.519 205.88 139.54 205.926 139.562ZM211.825 141.073V147H210.554V139.604H211.757L211.825 141.073ZM211.565 143.021L210.978 143.001C210.982 142.495 211.048 142.028 211.176 141.6C211.303 141.167 211.493 140.791 211.743 140.472C211.994 140.153 212.306 139.907 212.68 139.733C213.053 139.556 213.486 139.467 213.979 139.467C214.325 139.467 214.644 139.517 214.936 139.617C215.227 139.713 215.48 139.866 215.694 140.075C215.909 140.285 216.075 140.554 216.193 140.882C216.312 141.21 216.371 141.606 216.371 142.071V147H215.106V142.133C215.106 141.745 215.04 141.436 214.908 141.203C214.781 140.971 214.598 140.802 214.361 140.697C214.124 140.588 213.846 140.533 213.527 140.533C213.154 140.533 212.841 140.599 212.591 140.731C212.34 140.864 212.14 141.046 211.989 141.278C211.839 141.511 211.729 141.777 211.661 142.078C211.597 142.374 211.565 142.689 211.565 143.021ZM216.357 142.324L215.51 142.584C215.514 142.178 215.58 141.789 215.708 141.415C215.84 141.041 216.029 140.709 216.275 140.417C216.526 140.125 216.834 139.895 217.198 139.727C217.563 139.553 217.98 139.467 218.449 139.467C218.846 139.467 219.197 139.519 219.502 139.624C219.812 139.729 220.072 139.891 220.281 140.109C220.495 140.324 220.657 140.599 220.767 140.937C220.876 141.274 220.931 141.675 220.931 142.14V147H219.659V142.126C219.659 141.711 219.593 141.39 219.461 141.162C219.333 140.93 219.151 140.768 218.914 140.677C218.682 140.581 218.404 140.533 218.08 140.533C217.802 140.533 217.556 140.581 217.342 140.677C217.128 140.772 216.948 140.905 216.802 141.073C216.656 141.237 216.544 141.426 216.467 141.641C216.394 141.855 216.357 142.083 216.357 142.324ZM227.206 145.735V141.928C227.206 141.636 227.147 141.383 227.028 141.169C226.914 140.95 226.741 140.782 226.509 140.663C226.276 140.545 225.989 140.485 225.647 140.485C225.328 140.485 225.048 140.54 224.807 140.649C224.57 140.759 224.383 140.902 224.246 141.08C224.114 141.258 224.048 141.449 224.048 141.654H222.783C222.783 141.39 222.852 141.128 222.988 140.868C223.125 140.608 223.321 140.374 223.576 140.164C223.836 139.95 224.146 139.781 224.506 139.658C224.87 139.531 225.276 139.467 225.723 139.467C226.26 139.467 226.734 139.558 227.145 139.74C227.559 139.923 227.883 140.198 228.115 140.567C228.352 140.932 228.471 141.39 228.471 141.941V145.387C228.471 145.633 228.491 145.895 228.532 146.173C228.578 146.451 228.644 146.69 228.73 146.891V147H227.411C227.347 146.854 227.297 146.66 227.261 146.419C227.224 146.173 227.206 145.945 227.206 145.735ZM227.425 142.516L227.438 143.404H226.16C225.8 143.404 225.479 143.434 225.196 143.493C224.914 143.548 224.677 143.632 224.485 143.746C224.294 143.86 224.148 144.004 224.048 144.177C223.948 144.345 223.897 144.544 223.897 144.771C223.897 145.004 223.95 145.216 224.055 145.407C224.16 145.599 224.317 145.751 224.526 145.865C224.741 145.975 225.003 146.029 225.312 146.029C225.7 146.029 226.042 145.947 226.338 145.783C226.634 145.619 226.869 145.419 227.042 145.182C227.22 144.945 227.315 144.715 227.329 144.491L227.869 145.1C227.837 145.291 227.751 145.503 227.609 145.735C227.468 145.968 227.279 146.191 227.042 146.405C226.81 146.615 226.532 146.79 226.208 146.932C225.889 147.068 225.529 147.137 225.128 147.137C224.627 147.137 224.187 147.039 223.809 146.843C223.435 146.647 223.143 146.385 222.934 146.057C222.729 145.724 222.626 145.353 222.626 144.942C222.626 144.546 222.703 144.197 222.858 143.896C223.013 143.591 223.237 143.338 223.528 143.138C223.82 142.933 224.171 142.778 224.581 142.673C224.991 142.568 225.449 142.516 225.955 142.516H227.425ZM231.834 139.604V147H230.562V139.604H231.834ZM230.467 137.642C230.467 137.437 230.528 137.263 230.651 137.122C230.779 136.981 230.966 136.91 231.212 136.91C231.453 136.91 231.638 136.981 231.766 137.122C231.898 137.263 231.964 137.437 231.964 137.642C231.964 137.838 231.898 138.006 231.766 138.147C231.638 138.284 231.453 138.353 231.212 138.353C230.966 138.353 230.779 138.284 230.651 138.147C230.528 138.006 230.467 137.838 230.467 137.642ZM238.526 145.564V136.5H239.798V147H238.636L238.526 145.564ZM233.55 143.384V143.24C233.55 142.675 233.618 142.162 233.755 141.702C233.896 141.237 234.094 140.839 234.35 140.506C234.609 140.173 234.917 139.918 235.272 139.74C235.632 139.558 236.034 139.467 236.476 139.467C236.94 139.467 237.346 139.549 237.692 139.713C238.043 139.872 238.34 140.107 238.581 140.417C238.827 140.722 239.021 141.091 239.162 141.524C239.303 141.957 239.401 142.447 239.456 142.994V143.623C239.406 144.165 239.308 144.653 239.162 145.086C239.021 145.519 238.827 145.888 238.581 146.193C238.34 146.499 238.043 146.733 237.692 146.897C237.341 147.057 236.931 147.137 236.462 147.137C236.029 147.137 235.632 147.043 235.272 146.856C234.917 146.67 234.609 146.408 234.35 146.07C234.094 145.733 233.896 145.337 233.755 144.881C233.618 144.421 233.55 143.922 233.55 143.384ZM234.821 143.24V143.384C234.821 143.753 234.858 144.099 234.931 144.423C235.008 144.746 235.127 145.031 235.286 145.277C235.446 145.523 235.648 145.717 235.895 145.858C236.141 145.995 236.435 146.063 236.776 146.063C237.196 146.063 237.54 145.975 237.809 145.797C238.082 145.619 238.301 145.384 238.465 145.093C238.629 144.801 238.757 144.484 238.848 144.143V142.495C238.793 142.244 238.713 142.003 238.608 141.771C238.508 141.534 238.376 141.324 238.212 141.142C238.052 140.955 237.854 140.807 237.617 140.697C237.385 140.588 237.109 140.533 236.79 140.533C236.444 140.533 236.145 140.606 235.895 140.752C235.648 140.893 235.446 141.089 235.286 141.34C235.127 141.586 235.008 141.873 234.931 142.201C234.858 142.525 234.821 142.871 234.821 143.24ZM248.336 139.604V140.574H244.337V139.604H248.336ZM245.69 137.806H246.955V145.168C246.955 145.419 246.994 145.608 247.071 145.735C247.149 145.863 247.249 145.947 247.372 145.988C247.495 146.029 247.627 146.05 247.769 146.05C247.873 146.05 247.983 146.041 248.097 146.022C248.215 146 248.304 145.981 248.363 145.968L248.37 147C248.27 147.032 248.138 147.062 247.974 147.089C247.814 147.121 247.62 147.137 247.393 147.137C247.083 147.137 246.798 147.075 246.538 146.952C246.278 146.829 246.071 146.624 245.916 146.337C245.766 146.045 245.69 145.653 245.69 145.161V137.806ZM249.348 143.384V143.227C249.348 142.693 249.425 142.199 249.58 141.743C249.735 141.283 249.958 140.884 250.25 140.547C250.542 140.205 250.895 139.941 251.31 139.754C251.724 139.562 252.189 139.467 252.704 139.467C253.224 139.467 253.691 139.562 254.105 139.754C254.525 139.941 254.88 140.205 255.172 140.547C255.468 140.884 255.694 141.283 255.849 141.743C256.004 142.199 256.081 142.693 256.081 143.227V143.384C256.081 143.917 256.004 144.411 255.849 144.867C255.694 145.323 255.468 145.722 255.172 146.063C254.88 146.401 254.527 146.665 254.112 146.856C253.702 147.043 253.237 147.137 252.718 147.137C252.198 147.137 251.731 147.043 251.316 146.856C250.902 146.665 250.546 146.401 250.25 146.063C249.958 145.722 249.735 145.323 249.58 144.867C249.425 144.411 249.348 143.917 249.348 143.384ZM250.612 143.227V143.384C250.612 143.753 250.656 144.102 250.742 144.43C250.829 144.753 250.959 145.04 251.132 145.291C251.31 145.542 251.531 145.74 251.795 145.886C252.059 146.027 252.367 146.098 252.718 146.098C253.064 146.098 253.367 146.027 253.627 145.886C253.891 145.74 254.11 145.542 254.283 145.291C254.456 145.04 254.586 144.753 254.673 144.43C254.764 144.102 254.81 143.753 254.81 143.384V143.227C254.81 142.862 254.764 142.518 254.673 142.194C254.586 141.866 254.454 141.577 254.276 141.326C254.103 141.071 253.884 140.87 253.62 140.725C253.36 140.579 253.055 140.506 252.704 140.506C252.358 140.506 252.052 140.579 251.788 140.725C251.528 140.87 251.31 141.071 251.132 141.326C250.959 141.577 250.829 141.866 250.742 142.194C250.656 142.518 250.612 142.862 250.612 143.227ZM262.404 140.766V147H261.14V139.604H262.37L262.404 140.766ZM264.715 139.562L264.708 140.738C264.603 140.715 264.503 140.702 264.407 140.697C264.316 140.688 264.211 140.684 264.093 140.684C263.801 140.684 263.544 140.729 263.32 140.82C263.097 140.911 262.908 141.039 262.753 141.203C262.598 141.367 262.475 141.563 262.384 141.791C262.297 142.014 262.24 142.26 262.213 142.529L261.857 142.734C261.857 142.288 261.901 141.868 261.987 141.477C262.078 141.085 262.217 140.738 262.404 140.438C262.591 140.132 262.828 139.895 263.115 139.727C263.407 139.553 263.753 139.467 264.154 139.467C264.245 139.467 264.35 139.478 264.469 139.501C264.587 139.519 264.669 139.54 264.715 139.562ZM268.816 147.137C268.301 147.137 267.834 147.05 267.415 146.877C267 146.699 266.643 146.451 266.342 146.132C266.046 145.813 265.818 145.435 265.658 144.997C265.499 144.56 265.419 144.081 265.419 143.562V143.274C265.419 142.673 265.508 142.137 265.686 141.668C265.863 141.194 266.105 140.793 266.41 140.465C266.715 140.137 267.062 139.888 267.449 139.72C267.837 139.551 268.238 139.467 268.652 139.467C269.181 139.467 269.637 139.558 270.02 139.74C270.407 139.923 270.724 140.178 270.97 140.506C271.216 140.829 271.398 141.212 271.517 141.654C271.635 142.092 271.694 142.57 271.694 143.09V143.657H266.171V142.625H270.43V142.529C270.411 142.201 270.343 141.882 270.225 141.572C270.111 141.262 269.928 141.007 269.678 140.807C269.427 140.606 269.085 140.506 268.652 140.506C268.365 140.506 268.101 140.567 267.859 140.69C267.618 140.809 267.41 140.987 267.237 141.224C267.064 141.461 266.93 141.75 266.834 142.092C266.738 142.434 266.69 142.828 266.69 143.274V143.562C266.69 143.912 266.738 144.243 266.834 144.553C266.934 144.858 267.078 145.127 267.265 145.359C267.456 145.592 267.686 145.774 267.955 145.906C268.229 146.038 268.538 146.104 268.885 146.104C269.331 146.104 269.71 146.013 270.02 145.831C270.329 145.649 270.601 145.405 270.833 145.1L271.599 145.708C271.439 145.95 271.236 146.18 270.99 146.398C270.744 146.617 270.441 146.795 270.081 146.932C269.726 147.068 269.304 147.137 268.816 147.137ZM277.963 139.604H279.111V146.843C279.111 147.494 278.979 148.05 278.715 148.511C278.451 148.971 278.081 149.32 277.607 149.557C277.138 149.798 276.596 149.919 275.98 149.919C275.725 149.919 275.424 149.878 275.078 149.796C274.736 149.718 274.399 149.584 274.066 149.393C273.738 149.206 273.463 148.953 273.239 148.634L273.902 147.882C274.212 148.256 274.536 148.515 274.873 148.661C275.215 148.807 275.552 148.88 275.885 148.88C276.286 148.88 276.632 148.805 276.924 148.654C277.215 148.504 277.441 148.281 277.601 147.984C277.765 147.693 277.847 147.333 277.847 146.904V141.23L277.963 139.604ZM272.87 143.384V143.24C272.87 142.675 272.936 142.162 273.068 141.702C273.205 141.237 273.399 140.839 273.649 140.506C273.905 140.173 274.212 139.918 274.572 139.74C274.932 139.558 275.338 139.467 275.789 139.467C276.254 139.467 276.66 139.549 277.006 139.713C277.357 139.872 277.653 140.107 277.895 140.417C278.141 140.722 278.334 141.091 278.476 141.524C278.617 141.957 278.715 142.447 278.77 142.994V143.623C278.719 144.165 278.621 144.653 278.476 145.086C278.334 145.519 278.141 145.888 277.895 146.193C277.653 146.499 277.357 146.733 277.006 146.897C276.655 147.057 276.245 147.137 275.775 147.137C275.333 147.137 274.932 147.043 274.572 146.856C274.217 146.67 273.911 146.408 273.656 146.07C273.401 145.733 273.205 145.337 273.068 144.881C272.936 144.421 272.87 143.922 272.87 143.384ZM274.135 143.24V143.384C274.135 143.753 274.171 144.099 274.244 144.423C274.322 144.746 274.438 145.031 274.593 145.277C274.752 145.523 274.955 145.717 275.201 145.858C275.447 145.995 275.741 146.063 276.083 146.063C276.502 146.063 276.849 145.975 277.122 145.797C277.396 145.619 277.612 145.384 277.771 145.093C277.936 144.801 278.063 144.484 278.154 144.143V142.495C278.104 142.244 278.027 142.003 277.922 141.771C277.822 141.534 277.689 141.324 277.525 141.142C277.366 140.955 277.168 140.807 276.931 140.697C276.694 140.588 276.416 140.533 276.097 140.533C275.75 140.533 275.452 140.606 275.201 140.752C274.955 140.893 274.752 141.089 274.593 141.34C274.438 141.586 274.322 141.873 274.244 142.201C274.171 142.525 274.135 142.871 274.135 143.24ZM282.406 139.604V147H281.135V139.604H282.406ZM281.039 137.642C281.039 137.437 281.101 137.263 281.224 137.122C281.351 136.981 281.538 136.91 281.784 136.91C282.026 136.91 282.21 136.981 282.338 137.122C282.47 137.263 282.536 137.437 282.536 137.642C282.536 137.838 282.47 138.006 282.338 138.147C282.21 138.284 282.026 138.353 281.784 138.353C281.538 138.353 281.351 138.284 281.224 138.147C281.101 138.006 281.039 137.838 281.039 137.642ZM288.743 145.038C288.743 144.856 288.702 144.687 288.62 144.532C288.543 144.373 288.381 144.229 288.135 144.102C287.893 143.969 287.529 143.855 287.041 143.76C286.631 143.673 286.259 143.571 285.927 143.452C285.599 143.334 285.318 143.19 285.086 143.021C284.858 142.853 284.683 142.655 284.56 142.427C284.437 142.199 284.375 141.932 284.375 141.627C284.375 141.335 284.439 141.06 284.566 140.8C284.699 140.54 284.883 140.31 285.12 140.109C285.362 139.909 285.651 139.752 285.988 139.638C286.326 139.524 286.701 139.467 287.116 139.467C287.709 139.467 288.215 139.572 288.634 139.781C289.053 139.991 289.374 140.271 289.598 140.622C289.821 140.968 289.933 141.354 289.933 141.777H288.668C288.668 141.572 288.606 141.374 288.483 141.183C288.365 140.987 288.189 140.825 287.957 140.697C287.729 140.57 287.449 140.506 287.116 140.506C286.765 140.506 286.48 140.561 286.262 140.67C286.048 140.775 285.89 140.909 285.79 141.073C285.694 141.237 285.646 141.41 285.646 141.593C285.646 141.729 285.669 141.853 285.715 141.962C285.765 142.067 285.852 142.165 285.975 142.256C286.098 142.342 286.271 142.424 286.494 142.502C286.717 142.579 287.002 142.657 287.349 142.734C287.955 142.871 288.454 143.035 288.846 143.227C289.238 143.418 289.529 143.653 289.721 143.931C289.912 144.209 290.008 144.546 290.008 144.942C290.008 145.266 289.939 145.562 289.803 145.831C289.671 146.1 289.477 146.332 289.222 146.528C288.971 146.72 288.67 146.87 288.319 146.979C287.973 147.084 287.583 147.137 287.15 147.137C286.499 147.137 285.947 147.021 285.496 146.788C285.045 146.556 284.703 146.255 284.471 145.886C284.238 145.517 284.122 145.127 284.122 144.717H285.394C285.412 145.063 285.512 145.339 285.694 145.544C285.877 145.744 286.1 145.888 286.364 145.975C286.629 146.057 286.891 146.098 287.15 146.098C287.497 146.098 287.786 146.052 288.019 145.961C288.256 145.87 288.436 145.744 288.559 145.585C288.682 145.425 288.743 145.243 288.743 145.038ZM294.766 139.604V140.574H290.767V139.604H294.766ZM292.12 137.806H293.385V145.168C293.385 145.419 293.424 145.608 293.501 145.735C293.578 145.863 293.679 145.947 293.802 145.988C293.925 146.029 294.057 146.05 294.198 146.05C294.303 146.05 294.412 146.041 294.526 146.022C294.645 146 294.734 145.981 294.793 145.968L294.8 147C294.7 147.032 294.567 147.062 294.403 147.089C294.244 147.121 294.05 147.137 293.822 147.137C293.512 147.137 293.228 147.075 292.968 146.952C292.708 146.829 292.501 146.624 292.346 146.337C292.195 146.045 292.12 145.653 292.12 145.161V137.806ZM299.318 147.137C298.803 147.137 298.336 147.05 297.917 146.877C297.502 146.699 297.145 146.451 296.844 146.132C296.548 145.813 296.32 145.435 296.16 144.997C296.001 144.56 295.921 144.081 295.921 143.562V143.274C295.921 142.673 296.01 142.137 296.188 141.668C296.365 141.194 296.607 140.793 296.912 140.465C297.217 140.137 297.564 139.888 297.951 139.72C298.339 139.551 298.74 139.467 299.154 139.467C299.683 139.467 300.139 139.558 300.521 139.74C300.909 139.923 301.226 140.178 301.472 140.506C301.718 140.829 301.9 141.212 302.019 141.654C302.137 142.092 302.196 142.57 302.196 143.09V143.657H296.673V142.625H300.932V142.529C300.913 142.201 300.845 141.882 300.727 141.572C300.613 141.262 300.43 141.007 300.18 140.807C299.929 140.606 299.587 140.506 299.154 140.506C298.867 140.506 298.603 140.567 298.361 140.69C298.12 140.809 297.912 140.987 297.739 141.224C297.566 141.461 297.432 141.75 297.336 142.092C297.24 142.434 297.192 142.828 297.192 143.274V143.562C297.192 143.912 297.24 144.243 297.336 144.553C297.436 144.858 297.58 145.127 297.767 145.359C297.958 145.592 298.188 145.774 298.457 145.906C298.73 146.038 299.04 146.104 299.387 146.104C299.833 146.104 300.212 146.013 300.521 145.831C300.831 145.649 301.103 145.405 301.335 145.1L302.101 145.708C301.941 145.95 301.738 146.18 301.492 146.398C301.246 146.617 300.943 146.795 300.583 146.932C300.228 147.068 299.806 147.137 299.318 147.137ZM304.938 140.766V147H303.673V139.604H304.903L304.938 140.766ZM307.248 139.562L307.241 140.738C307.136 140.715 307.036 140.702 306.94 140.697C306.849 140.688 306.744 140.684 306.626 140.684C306.334 140.684 306.077 140.729 305.854 140.82C305.63 140.911 305.441 141.039 305.286 141.203C305.131 141.367 305.008 141.563 304.917 141.791C304.83 142.014 304.773 142.26 304.746 142.529L304.391 142.734C304.391 142.288 304.434 141.868 304.521 141.477C304.612 141.085 304.751 140.738 304.938 140.438C305.124 140.132 305.361 139.895 305.648 139.727C305.94 139.553 306.286 139.467 306.688 139.467C306.779 139.467 306.883 139.478 307.002 139.501C307.12 139.519 307.202 139.54 307.248 139.562Z" fill="#F8F6FF"/>
<g clip-path="url(#clip0_223_16586)">
<path d="M90.1084 48.4761C89.2225 51.9028 88.3366 55.3355 87.4568 58.7621C86.7772 59.126 86.0916 59.4959 85.412 59.8598C85.6304 55.9116 85.6183 52.0483 81.5712 49.7073C81.4134 49.1129 81.0069 48.7551 80.4426 48.5489L80.4062 48.5125C80.0421 48.0516 79.672 47.5967 79.3079 47.1358C78.1005 45.5954 76.8081 44.1337 75.2365 42.939C73.0704 39.5548 70.1457 36.8499 67.4638 33.6901C60.6559 43.6728 54.928 53.9102 49.9829 64.5964C49.4975 65.6396 49.722 66.5008 49.9708 67.4833C51.5362 73.6997 55.1525 77.7753 61.7117 78.8124C61.6692 79.2005 61.6328 79.5887 61.5903 79.9829C60.395 79.9829 59.1997 79.989 58.0043 79.995C52.1066 80.0254 49.6431 82.4331 49.5339 88.2674C42.2891 86.2479 40.0683 76.5199 45.7416 71.3223C47.0037 70.164 46.9126 69.4726 46.0935 68.205C41.1059 60.5148 39.0004 52.297 41.7066 43.2301C42.0888 41.9565 42.5257 40.7435 43.4359 39.7489C49.0242 33.6537 54.6975 27.6556 61.5843 22.9432C64.1691 21.1784 66.5234 20.9904 68.9504 23.0585C70.0911 30.7608 80.1271 46.5475 90.0962 48.4822L90.1084 48.4761Z" fill="#2E3643"/>
<path d="M89.3437 136.944C91.1882 145.689 93.0146 154.441 94.9016 163.18C95.2536 164.812 95.0291 165.503 93.1178 165.479C82.6389 165.37 72.16 165.376 61.6812 165.345C57.179 156.6 56.469 147.363 58.3197 144.579C59.333 149.85 60.504 154.993 64.4238 159.014C61.8207 152.658 60.3766 146.193 61.311 139.297C61.6084 139.364 61.76 139.364 61.7843 139.412C61.9724 139.861 62.1848 140.304 62.3122 140.771C64.0233 147.205 66.9843 152.943 71.7899 157.637C72.4998 158.328 73.2279 159.838 74.4415 158.625C75.5943 157.479 73.9682 156.958 73.4282 156.297C68.3192 150.044 66.1106 142.687 64.7817 134.712C73.3068 138.157 74.2412 138.46 80.1208 138.126C83.2093 137.95 86.2734 137.35 89.3437 136.944Z" fill="#31BE8A"/>
<path d="M75.2485 42.939C76.814 44.1337 78.1064 45.5953 79.3139 47.1358C79.2593 47.9303 79.5808 48.4216 80.4121 48.5125L80.4485 48.5489C80.5092 49.2403 80.8672 49.6406 81.5771 49.7073C85.6242 52.0483 85.6364 55.9116 85.4179 59.8598C85.3815 60.1145 85.3451 60.3693 85.3087 60.624C82.4144 61.2305 79.411 64.3235 79.3017 66.9071C79.1804 69.8243 81.116 70.9039 83.5552 71.48C82.7542 74.2031 80.2362 75.3736 78.246 76.8171C76.1769 78.3151 75.9281 79.7342 76.9232 81.766C76.5288 85.1198 76.2497 88.4979 74.569 91.5425C70.2427 89.7958 69.5935 88.0431 71.8749 83.9493C72.5545 82.7303 73.4343 81.6143 74.2534 80.4742C74.7631 79.7706 75.8492 79.2612 75.4306 78.2241C74.9876 77.1324 73.8348 77.5388 73.0096 77.5873C68.2829 77.8663 64.0901 76.2834 60.0976 74.003C54.0238 70.5278 52.2278 60.436 56.7664 55.0989C57.0152 57.4885 56.3842 60.0842 58.6535 61.8309C60.0308 63.523 61.3718 63.8201 62.6581 61.7338C65.1519 59.5748 64.8486 53.983 61.8451 52.0726C59.3634 50.4897 59.8549 49.0887 61.299 47.251C63.2163 44.8069 65.1883 42.381 66.8569 39.7671C68.1251 37.7899 69.0534 37.9779 70.6007 39.4153C72.0145 40.7253 72.87 42.8722 75.2485 42.9329V42.939ZM68.3496 62.9893C68.0948 65.3303 69.8908 64.0809 70.6735 64.1598C72.2632 64.3235 71.7657 63.2561 71.3834 62.407C71.1529 61.376 71.0558 59.9144 69.6663 60.1691C68.4163 60.3996 67.4698 61.4306 68.3496 62.9832V62.9893ZM61.8026 69.048C61.299 69.2421 59.7335 68.393 60.5587 69.9092C62.9372 74.3002 72.1237 74.4882 74.8602 70.2792C75.2425 69.6909 76.0737 68.8418 74.5022 68.5932C70.2427 68.0049 66.05 69.2785 61.8026 69.048ZM78.5311 59.3868C81.0068 57.0093 80.0723 54.3348 79.0772 51.7451C78.161 49.3555 76.2861 49.119 74.7085 51.0658C73.3312 52.7579 73.495 56.8759 75.0119 58.8167C75.9827 60.2419 77.0203 61.285 78.5311 59.3928V59.3868Z" fill="#F3BD9B"/>
<path d="M74.569 91.5485C76.2437 88.504 76.5289 85.1259 76.9233 81.772C80.4486 82.7849 84.2348 82.5119 87.6631 84.0706C88.9251 84.6468 90.2782 85.0288 91.4189 85.8597C91.3583 86.539 91.2976 87.2243 91.2369 87.9036C88.9676 88.2129 87.4143 89.1893 86.9774 91.7001C86.6922 93.3558 86.0187 94.963 85.3937 96.5399C82.6512 103.43 79.7265 110.216 73.8834 115.201L73.762 115.08C73.9137 112.496 75.8614 110.804 76.9476 108.682C79.8661 102.963 83.3065 97.4557 84.1438 90.8996C84.5807 90.6267 84.7809 90.2507 84.611 89.7352C84.5868 89.6684 84.4593 89.632 84.3865 89.5835C84.3016 90.0202 84.2227 90.4569 84.1377 90.8935C83.2943 91.215 83.0456 92.0095 82.633 92.7008C76.8929 102.308 74.0957 113.819 64.3086 120.811C62.998 121.751 63.4349 122.879 64.8061 123.65C65.7284 124.171 66.7053 124.274 67.7247 124.226C73.04 126.664 78.3613 126.67 83.6887 124.286C85.8731 124.359 87.3597 122.54 89.3863 122.188C89.447 124.068 89.5137 125.942 89.5744 127.822C88.3912 127.064 89.6229 125.451 88.2213 124.426C81.2677 130.624 73.4708 128.738 65.5343 126.415C69.1749 130.181 73.6225 131.673 79.4353 131.607C73.9562 133.117 69.8787 130.733 64.9032 128.975C67.306 132.595 70.3459 133.481 73.2341 134.512C78.4523 136.38 83.7251 135.294 88.9737 134.56C88.9919 134.76 88.9979 134.961 88.9858 135.161C77.348 138.975 67.3424 136.355 58.9569 127.519C56.6573 130.903 54.8673 134.494 53.2108 138.132C49.2729 146.775 46.233 155.654 47.2038 165.394C45.1105 165.788 44.6251 164.763 44.6736 162.859C44.8496 156.115 46.3058 149.559 47.4951 142.96C48.4234 137.817 49.6006 132.747 52.8589 128.435C53.5992 127.458 53.2108 126.336 52.8468 125.257C51.9366 122.6 53.2351 120.89 55.3102 119.41C57.2822 118.003 58.7081 119.15 60.1947 120.193C61.1655 120.872 62.2759 122.503 62.5247 119.72C65.1945 116.342 66.9662 112.472 68.6591 108.554L68.9746 107.256C69.6299 106.571 70.0365 105.771 70.1578 104.83C71.2197 102.914 72.0873 100.925 72.5182 98.7657C73.1371 96.9584 73.756 95.151 74.3809 93.3437L74.5812 91.5485H74.569ZM64.1266 128.471C64.2115 128.52 64.2904 128.562 64.3753 128.611C64.2904 128.568 64.1994 128.526 64.1144 128.483C64.0356 128.435 63.9567 128.386 63.8839 128.338C63.9627 128.38 64.0477 128.429 64.1266 128.471Z" fill="#CCCDCB"/>
<path d="M125.98 0.0363383C127.874 0.224348 129.767 0.466941 131.666 0.576108C132.843 0.642821 133.019 1.35847 133.371 2.27426C133.941 3.75408 133.492 5.5432 134.675 6.75616C136.599 5.32487 134.536 1.2675 138.48 1.19472C140.701 1.15227 143.219 0.988516 144.893 2.25606C146.459 3.44477 145.543 6.27098 146.829 8.04191C148.352 6.02232 146.956 1.78301 151.556 2.37736C153.516 2.63208 156.028 1.83759 157.186 3.63884C158.169 5.16718 158.036 7.41116 158.418 9.46714C159.65 9.01228 159.207 7.98732 159.577 7.36265C160.287 6.14968 159.601 4.10584 161.592 3.67523C163.922 3.16579 166.203 3.8875 168.424 4.42727C169.486 4.68806 168.806 5.77366 168.539 6.48931C166.864 10.9955 165.184 15.5016 163.509 20.0078C162.702 20.0321 161.889 19.9835 161.094 20.0866C156.828 20.6385 155.56 19.4377 156.464 15.2227C156.95 12.9544 157.011 10.7711 156.549 8.52709C156.653 11.3472 155.566 14.0643 155.736 16.8541C155.876 19.2194 154.674 19.65 152.793 19.3346C150.919 19.0192 149.062 18.2308 147.199 18.249C144.408 18.2733 144.062 16.842 144.165 14.6162C144.287 11.978 145.433 9.3701 144.408 6.29524C144.099 9.24881 143.619 11.8264 143.619 14.3978C143.619 17.0603 142.618 17.1452 140.47 16.4356C135.689 14.8588 132.867 10.9409 129.554 7.6295C127.497 5.57959 127.133 2.58963 125.98 0.0302734V0.0363383Z" fill="#E0D9AB"/>
<path d="M47.1917 165.388C46.2209 155.648 49.2547 146.769 53.1987 138.126C54.8552 134.494 56.6452 130.897 58.9448 127.513C67.3303 136.349 77.3359 138.975 88.9737 135.155C89.1011 135.749 89.2225 136.343 89.3499 136.938C86.2736 137.344 83.2094 137.944 80.127 138.12C74.2414 138.46 73.307 138.157 64.788 134.706C66.1229 142.681 68.3254 150.038 73.4344 156.291C73.9744 156.952 75.5945 157.467 74.4477 158.619C73.2342 159.832 72.506 158.322 71.7961 157.631C66.9905 152.943 64.0295 147.205 62.3184 140.765C62.1971 140.298 61.9847 139.855 61.7905 139.406C61.7663 139.358 61.6206 139.358 61.3173 139.291C60.3828 146.187 61.833 152.652 64.43 159.008C60.5103 154.987 59.3392 149.844 58.3259 144.573C56.4753 147.357 57.1852 156.594 61.6874 165.339C56.8575 165.351 52.0277 165.37 47.1978 165.382L47.1917 165.388Z" fill="#26B27B"/>
<path d="M35.5962 170.792C32.532 169.821 32.1922 171.44 32.35 173.951C32.4835 176.104 33.0599 178.106 33.7759 180.077C34.5161 182.121 33.6788 182.897 31.7371 182.97C31.1364 182.994 30.5297 183.018 29.929 182.976C26.5129 182.745 26.0335 182.145 26.5311 178.779L26.5129 178.803C27.1803 178.615 27.1561 178.106 27.0954 177.578C28.1269 177.008 29.4921 176.735 29.5042 175.189C29.5285 169.942 29.5164 164.696 29.5164 159.45C27.1379 163.101 26.5432 167.225 25.1295 171.174C25.6634 169.015 23.5397 167.007 25.1113 164.793C25.4814 164.278 25.718 163.059 24.6683 162.762C23.7946 162.519 23.5943 163.465 23.4305 164.144C22.7024 167.256 21.7619 170.331 21.7619 173.569C20.7243 174.491 19.6868 175.407 18.3943 176.559C17.0655 165.982 18.8737 156.436 26.4886 148.473C26.7071 148.667 26.9194 148.867 27.1379 149.061C27.5747 150.056 28.048 151.038 28.4303 152.051C29.0006 153.573 30.1656 154.465 31.6401 153.962C33.2237 153.422 34.7406 153.398 36.3243 153.489C38.1385 152.239 37.2527 150.329 37.5014 148.691L39.2611 148.382C39.6494 148.37 40.0377 148.352 40.426 148.34L40.4443 148.558C40.4625 149.571 40.5171 150.553 39.6919 151.372C38.1203 152.931 37.4529 154.962 37.1131 157.055C36.3728 161.603 35.5052 166.146 35.5901 170.785L35.5962 170.792Z" fill="#66B3D0"/>
<path d="M72.5061 98.7596C72.0753 100.919 71.2076 102.908 70.1458 104.824C64.1327 105.552 60.0249 102.374 56.2872 97.2737C56.2569 100.634 57.8163 102.696 58.0651 105.073C54.3759 109.294 50.5533 113.406 47.0401 117.761C44.5888 120.799 44.9346 124.941 43.5148 128.429C43.0051 129.684 43.2175 131.255 41.8947 132.165C40.4021 131.934 38.9155 131.71 37.4229 131.479C37.6534 130.503 37.8051 129.502 38.1328 128.562C39.8985 123.45 40.1594 117.827 43.0476 113.127C46.9855 106.705 51.1965 100.446 55.2193 94.0715C55.9171 92.9738 56.3358 92.6584 57.4765 93.6106C61.8088 97.2434 66.8328 98.9901 72.5122 98.7657L72.5061 98.7596Z" fill="#31BE8A"/>
<path d="M125.98 0.0364369C127.133 2.59579 127.497 5.57969 129.554 7.63566C132.873 10.941 135.694 14.8649 140.47 16.4418C142.618 17.1514 143.625 17.0665 143.619 14.404C143.619 11.8325 144.098 9.25497 144.408 6.3014C145.427 9.37627 144.286 11.9841 144.165 14.6223C144.062 16.8481 144.408 18.2794 147.199 18.2552C149.061 18.237 150.918 19.0254 152.793 19.3408C154.674 19.6561 155.875 19.2255 155.736 16.8603C155.572 14.0644 156.652 11.3534 156.549 8.53326C157.01 10.7772 156.949 12.9606 156.464 15.2288C155.56 19.4439 156.828 20.6508 161.094 20.0928C161.889 19.9897 162.702 20.0322 163.509 20.014C163.903 22.0032 162.52 23.5983 162.289 25.4481C150.773 24.696 139.28 23.6953 127.813 22.3611C126.702 15.6594 125.628 8.94566 124.463 2.25616C124.22 0.873383 124.008 -0.218286 125.98 0.0485665V0.0364369Z" fill="#D2C78E"/>
<path d="M91.2306 87.9035C91.2913 87.2243 91.3519 86.539 91.4126 85.8597C94.8469 86.9574 98.3116 87.9581 101.697 89.1893C103.05 89.6805 104.124 89.6199 105.405 89.0377C111.254 86.3691 116.757 83.0759 122.376 79.9768C123.796 79.1944 125.046 77.6722 127.006 78.4545C127.861 79.9768 128.723 81.4991 129.578 83.0153C124.779 85.1986 120.537 88.3766 116.612 91.6941C111.369 96.1214 106.2 97.4374 100.004 94.4535C99.7375 94.3262 99.4341 94.2473 99.1489 94.1624C91.6371 91.876 91.4066 92.0519 91.4187 99.9786C91.358 100.991 91.2973 102.01 91.2367 103.023C89.3982 103.114 87.9176 104.818 85.9214 104.218C88.6518 99.0931 91.2124 93.9077 91.2427 87.9035H91.2306Z" fill="#31BE8A"/>
<path d="M72.5057 98.7596C66.8264 98.984 61.8023 97.2373 57.47 93.6045C56.3293 92.6523 55.9106 92.9616 55.2128 94.0654C51.1839 100.44 46.979 106.698 43.0411 113.121C40.159 117.821 39.892 123.449 38.1263 128.556C37.7986 129.496 37.6469 130.503 37.4164 131.473C36.039 131.698 35.056 130.764 33.9214 130.291C34.5342 126.233 35.0439 122.164 35.7902 118.131C36.6397 113.515 39.8859 110.155 42.3554 106.413C46.1538 100.658 50.3284 95.145 53.7748 89.159C55.2371 88.0491 57.3244 88.2735 58.6593 86.8847C59.1932 86.8422 59.7333 86.8058 60.2672 86.7634C64.1748 92.9798 67.5363 94.5506 74.3624 93.3376C73.7435 95.145 73.1246 96.9523 72.4996 98.7596H72.5057Z" fill="#2BB37D"/>
<path d="M90.1082 48.4761C80.139 46.5414 70.1031 30.7608 68.9624 23.0524C76.5652 27.043 83.4459 31.9555 89.0343 38.5541C91.6312 41.6168 91.3582 44.9949 90.1082 48.4761Z" fill="#3F4756"/>
<path d="M127.813 22.3549C139.275 23.6892 150.773 24.6899 162.289 25.4419C162.775 25.824 163.794 25.3813 163.806 26.4911C163.836 29.1657 161.597 31.1125 158.855 31.0094C154.771 30.8639 150.742 29.8753 146.629 30.2695C145.251 29.1839 143.613 29.942 142.132 29.6266C137.721 29.2142 133.31 28.7472 128.893 28.4137C125.471 28.159 126.903 25.2236 126.168 23.5497C125.483 21.9789 127.133 22.6157 127.807 22.3549H127.813Z" fill="#2E3643"/>
<path d="M91.413 99.9786C91.4008 92.0519 91.6314 91.8821 99.1432 94.1625C99.4344 94.2474 99.7318 94.3262 99.9987 94.4536C106.194 97.4375 111.363 96.1214 116.606 91.6941C120.538 88.3766 124.779 85.1926 129.573 83.0153C130.137 83.8462 130.701 84.671 131.271 85.5019C128.019 89.2803 123.693 91.7123 119.67 94.4718C109.307 101.574 109.246 101.452 96.7647 100.1C95.0111 99.9119 93.209 99.1963 91.413 99.9786Z" fill="#2BB37D"/>
<path d="M139.936 85.9628C138.716 95.43 137.479 104.891 136.283 114.364C134.293 130.109 132.266 145.847 130.422 161.609C130.125 164.126 129.214 164.46 127.194 163.641C128.007 157.807 128.85 151.978 129.621 146.138C130.543 139.103 131.393 132.062 132.297 125.026C133.62 114.722 134.815 104.4 136.392 94.1321C136.914 90.754 135.822 86.7209 139.36 84.1797C139.997 84.6346 139.705 85.3866 139.936 85.9689V85.9628Z" fill="#8A5B32"/>
<path d="M89.3803 122.188C87.3537 122.54 85.8671 124.353 83.6828 124.286C79.1624 124.347 74.6177 124.505 70.6494 121.739C75.2305 117.36 79.5507 112.745 83.4765 107.766C85.8489 109.179 88.2517 108.433 90.6545 107.863C90.2298 112.642 89.799 117.415 89.3742 122.194L89.3803 122.188Z" fill="#31BE8A"/>
<path d="M139.359 84.1737C135.822 86.7149 136.914 90.748 136.392 94.1261C134.815 104.388 133.619 114.716 132.297 125.02C131.393 132.056 130.549 139.097 129.621 146.132C128.85 151.972 128.007 157.801 127.194 163.635C125.113 163.835 125.853 162.404 125.974 161.434C127.072 152.257 128.189 143.081 129.317 133.905C131.035 119.95 132.77 105.995 134.487 92.0398C134.754 89.8443 134.96 87.6428 135.191 85.4413C135.531 83.0821 135.871 80.7228 136.21 78.3636C136.332 77.5449 135.919 76.4653 137.302 76.2834C138.759 76.0954 138.71 77.2477 139.147 78.115C140.16 80.1345 139.311 82.1541 139.359 84.1677V84.1737Z" fill="#6E4323"/>
<path d="M88.9552 134.56C83.7067 135.294 78.4399 136.38 73.2157 134.512C70.3275 133.481 67.2936 132.595 64.8848 128.975C69.8603 130.733 73.9377 133.117 79.4168 131.607C73.604 131.679 69.1564 130.181 65.5158 126.415C73.4523 128.738 81.2493 130.624 88.2028 124.426C89.6044 125.445 88.3788 127.064 89.5559 127.822C88.4941 129.993 89.1736 132.316 88.9491 134.56H88.9552Z" fill="#E4E6E4"/>
<path d="M35.5964 170.792C35.5054 166.146 36.3791 161.609 37.1194 157.061C37.4592 154.962 38.1266 152.931 39.6981 151.378C40.5233 150.559 40.4748 149.571 40.4505 148.564C43.0293 153.476 43.8181 158.759 43.4904 164.211C43.1385 170.015 41.6701 171.149 35.6025 170.798L35.5964 170.792Z" fill="#73BDD8"/>
<path d="M58.0649 105.073C57.8161 102.696 56.2567 100.634 56.2871 97.2737C60.0187 102.374 64.1326 105.552 70.1456 104.824C70.0243 105.764 69.6177 106.571 68.9624 107.25H62.6884C62.6642 107.372 62.646 107.487 62.6217 107.608C64.6301 107.924 66.6385 108.233 68.6469 108.548C66.954 112.466 65.1823 116.329 62.5125 119.714C61.2383 114.771 60.0187 109.81 58.0649 105.067V105.073Z" fill="#2BB37D"/>
<path d="M142.133 29.6266C143.619 29.942 145.257 29.1839 146.629 30.2695C146.483 31.3005 146.871 32.4286 146.028 33.3201C143.51 33.7507 143.874 35.9037 143.613 37.5655C143.225 40.0339 143.116 42.5447 142.794 45.0252C141.659 53.6434 140.482 62.2554 139.317 70.8735C138.638 71.4739 137.879 71.6801 137.018 71.3344C137.145 70.5885 137.697 69.8849 137.272 69.0723C138.892 55.9237 140.513 42.7752 142.133 29.6266Z" fill="#6E4323"/>
<path d="M21.7681 173.569C21.7681 170.331 22.7025 167.256 23.4367 164.144C23.5944 163.471 23.7947 162.519 24.6745 162.762C25.7242 163.059 25.4875 164.272 25.1174 164.793C23.5459 167.001 25.6696 169.015 25.1356 171.174C26.5433 167.225 27.138 163.101 29.5225 159.45C29.5225 164.696 29.5347 169.942 29.5104 175.189C29.5043 176.729 28.1331 177.008 27.1015 177.578C26.5615 177.821 26.1853 178.148 26.5191 178.803L26.5373 178.779C22.9149 180.01 22.8117 179.901 22.8056 175.613C22.8056 174.831 23.6551 173.46 21.7741 173.563L21.7681 173.569Z" fill="#73BDD8"/>
<path d="M40.4262 148.333C40.0379 148.346 39.6495 148.364 39.2612 148.376C39.1823 147.127 39.0185 145.92 37.5016 145.143V148.685C37.2589 150.323 38.1387 152.233 36.3245 153.483C35.1534 152.136 34.3221 150.571 33.3513 148.17C33.2846 150.547 32.7021 151.123 31.1245 150.238C29.917 149.559 28.576 149.086 27.138 149.055C26.9196 148.861 26.7072 148.661 26.4888 148.467C26.507 147.854 26.5312 147.248 26.5494 146.635C27.8297 146.732 28.57 147.891 29.7107 148.255C30.3417 148.455 31.0759 149.31 31.6038 148.691C33.1389 146.872 34.5527 144.943 35.8876 142.972C36.8281 141.577 35.0806 141.213 34.668 140.322C34.4738 139.897 34.4374 139.351 34.492 138.878C34.9228 134.985 37.1557 133.208 41.2453 133.456C41.1543 134.669 40.6204 135.743 40.2563 136.877C39.4918 139.273 37.6533 141.602 40.1714 144.258C40.8873 145.016 40.3716 146.945 40.4262 148.333Z" fill="#F3BD9B"/>
<path d="M41.2516 133.456C37.1619 133.202 34.929 134.979 34.4982 138.878C34.4436 139.351 34.48 139.903 34.6742 140.322C35.0807 141.213 36.8343 141.577 35.8938 142.972C34.565 144.949 33.1452 146.878 31.61 148.691C31.0882 149.31 30.354 148.455 29.7169 148.255C28.5762 147.891 27.8359 146.732 26.5557 146.635C26.2219 145.046 27.3809 144.173 28.3335 143.366C31.5069 140.698 33.1694 137.38 33.2908 133.232C33.3211 132.25 33.7034 131.273 33.9279 130.291C35.0686 130.764 36.0516 131.698 37.4229 131.473C38.9155 131.704 40.4021 131.928 41.8947 132.159C41.6824 132.589 41.4639 133.02 41.2455 133.45L41.2516 133.456Z" fill="#ECA47C"/>
<path d="M139.317 70.8735C140.476 62.2554 141.659 53.6434 142.794 45.0252C143.121 42.5447 143.231 40.0339 143.613 37.5655C143.874 35.9037 143.51 33.7507 146.028 33.3201C145.579 41.6229 144.116 49.8104 143.206 58.0586C142.757 62.128 142.26 66.1975 141.786 70.261C141.58 70.3095 141.374 70.358 141.174 70.4065C140.555 70.5582 139.936 70.7158 139.323 70.8675L139.317 70.8735Z" fill="#8A5B32"/>
<path d="M58.6595 86.8847C57.3247 88.2674 55.2374 88.0491 53.7751 89.1529C52.3674 88.8497 50.808 89.2318 49.5459 88.2553C49.6551 82.421 52.1186 80.0132 58.0164 79.9829C59.2117 79.9768 60.407 79.9768 61.6024 79.9708C61.8997 82.8152 59.7153 84.6104 58.6595 86.8847Z" fill="#3F4756"/>
<path d="M139.317 70.8735C139.936 70.7219 140.555 70.5642 141.168 70.4126C141.319 74.4639 142.867 78.3636 142.387 82.4877C142.217 83.9553 142.49 85.5686 140.525 86.072C140.33 86.0174 140.136 85.981 139.936 85.9689C139.705 85.3867 139.997 84.6346 139.36 84.1798C139.317 82.1662 140.16 80.1466 139.147 78.1271C138.71 77.2598 138.759 76.1014 137.303 76.2955C135.919 76.4774 136.326 77.557 136.21 78.3757C135.865 80.7349 135.531 83.0941 135.191 85.4534C135.021 85.3685 134.93 85.235 134.912 85.0531C134.936 80.4802 133.662 75.7133 136.963 71.6438C137.017 71.577 136.999 71.4497 137.017 71.3526C137.885 71.6983 138.644 71.4921 139.317 70.8917V70.8735Z" fill="#ECA47C"/>
<path d="M137.017 71.3345C136.999 71.4315 137.017 71.5589 136.963 71.6256C133.662 75.6951 134.93 80.462 134.912 85.0349C133.965 84.9743 133.019 84.9197 132.072 84.859C130.561 81.96 130.919 78.8185 130.798 75.7193C130.713 73.4329 130.913 71.5589 133.51 70.7158C134.724 70.3216 135.136 68.9995 135.658 67.9078C136.198 68.296 136.732 68.6841 137.272 69.0783C137.697 69.891 137.145 70.5885 137.017 71.3405V71.3345Z" fill="#F3BD9B"/>
<path d="M85.3025 60.624C85.3389 60.3693 85.3753 60.1145 85.4117 59.8598C86.0913 59.4959 86.777 59.126 87.4565 58.7621C90.7634 58.938 91.6675 60.1267 90.8969 63.2622C90.2173 66.0399 88.6094 68.017 85.9578 69.1269C84.5198 68.9085 84.8414 67.7987 84.7079 66.8344C84.4106 64.7056 85.3875 62.7224 85.2965 60.6301L85.3025 60.624Z" fill="#ECA47C"/>
<path d="M135.658 67.9078C135.136 68.9995 134.724 70.3216 133.51 70.7159C130.913 71.5589 130.713 73.439 130.798 75.7193C130.913 78.8185 130.561 81.96 132.072 84.859C131.805 85.0713 131.538 85.2836 131.271 85.4958C130.707 84.671 130.143 83.8401 129.572 83.0092C128.711 81.487 127.855 79.9647 127 78.4485C128.747 77.7753 129.36 76.6594 128.923 74.7247C127.904 70.1761 130.646 67.4712 135.652 67.9018L135.658 67.9078Z" fill="#ECA47C"/>
<path d="M85.3027 60.624C85.3937 62.7163 84.4168 64.6995 84.7142 66.8283C84.8476 67.7926 84.5261 68.9024 85.9641 69.1208C84.8234 69.5635 84.0892 70.4187 83.5552 71.48C81.116 70.9038 79.1804 69.8243 79.3018 66.9071C79.411 64.3235 82.4145 61.2304 85.3088 60.624H85.3027Z" fill="#E0D9AB"/>
<path d="M140.524 86.072C142.49 85.5686 142.217 83.9553 142.387 82.4876C142.873 78.3636 141.319 74.4639 141.168 70.4126C141.374 70.3641 141.58 70.3155 141.78 70.267C145.53 70.3459 144.79 73.9787 145.039 75.6405C145.476 78.5576 145.773 81.8933 144.05 84.8105C143.17 86.2964 142.266 87.2243 140.524 86.0659V86.072Z" fill="#F3BD9B"/>
<path d="M90.6605 107.857C88.2577 108.427 85.8549 109.173 83.4824 107.76C84.1135 106.456 84.8659 105.237 85.9156 104.218C87.9118 104.818 89.3923 103.114 91.2308 103.023C91.0427 104.636 90.8486 106.25 90.6605 107.857Z" fill="#26B27B"/>
<path d="M74.3687 93.3437C67.5365 94.5506 64.175 92.9859 60.2735 86.7694C61.1654 86.3449 62.0149 85.6838 62.9493 85.5322C66.0074 85.0288 66.1106 83.2336 65.3157 80.8319C64.715 79.0004 63.1556 79.0549 61.7236 78.8124C55.1645 77.7753 51.5481 73.7058 49.9827 67.4833C49.7339 66.5008 49.5155 65.6396 49.9948 64.5964C54.94 53.9102 60.6618 43.6788 67.4758 33.6901C70.1577 36.8498 73.0823 39.5608 75.2485 42.9389C72.8699 42.8843 72.0144 40.7374 70.6006 39.4213C69.0534 37.984 68.125 37.796 66.8569 39.7731C65.1822 42.381 63.2163 44.813 61.2989 47.2571C59.8548 49.1008 59.3633 50.5018 61.845 52.0786C64.8424 53.989 65.1519 59.5808 62.658 61.7399C62.834 60.5633 63.0221 59.3928 62.5246 58.2283C62.0756 57.1731 61.5659 56.1178 60.2249 56.3422C59.0903 56.5302 58.6837 57.543 58.617 58.5801C58.5502 59.6596 58.6352 60.7513 58.6595 61.8369C56.3902 60.0902 57.0212 57.4945 56.7724 55.105C52.2338 60.442 54.0298 70.5339 60.1036 74.009C64.09 76.2894 68.2888 77.8723 73.0156 77.5933C73.8468 77.5448 74.9936 77.1324 75.4366 78.2301C75.8613 79.2733 74.7691 79.7767 74.2594 80.4802C73.4342 81.6204 72.5605 82.7363 71.8809 83.9553C69.5995 88.0491 70.2487 89.8018 74.5749 91.5485C74.5082 92.1489 74.4415 92.7493 74.3747 93.3437H74.3687Z" fill="#ECA47C"/>
<path d="M61.7238 78.8063C63.1619 79.055 64.7152 78.9943 65.3159 80.8259C66.1108 83.2336 66.0076 85.0227 62.9495 85.5261C62.0151 85.6777 61.1656 86.3388 60.2737 86.7633C59.7336 86.8058 59.1997 86.8422 58.6597 86.8846C59.7094 84.6103 61.8937 82.8152 61.6025 79.9707C61.645 79.5826 61.6814 79.1944 61.7238 78.8002V78.8063Z" fill="#F9F9FB"/>
<path d="M81.571 49.7012C80.8671 49.6345 80.5091 49.2342 80.4424 48.5428C81.0067 48.7491 81.4132 49.1069 81.571 49.7012Z" fill="#ECA47C"/>
<path d="M80.4122 48.5125C79.581 48.4276 79.2594 47.9303 79.314 47.1358C79.6781 47.5967 80.0482 48.0516 80.4122 48.5125Z" fill="#ECA47C"/>
<path d="M75.0117 58.8167C73.4948 56.882 73.337 52.7579 74.7083 51.0658C76.2859 49.1251 78.1608 49.3555 79.077 51.7451C80.0721 54.3287 81.0005 57.0093 78.5309 59.3868C78.7554 57.4945 79.3258 54.8563 76.8987 54.6441C74.2775 54.4136 75.133 57.1428 75.0117 58.8167Z" fill="#ECA47C"/>
<path d="M61.8027 69.0541C66.0501 69.2845 70.2429 68.0109 74.5024 68.5992C71.2016 73.1357 65.0489 73.354 61.8027 69.0541Z" fill="#E4E6E4"/>
<path d="M58.6535 61.837C58.6353 60.7514 58.5443 59.6597 58.611 58.5802C58.6778 57.5431 59.0843 56.5242 60.219 56.3422C61.5599 56.1239 62.0757 57.1731 62.5186 58.2284C63.0162 59.3928 62.8281 60.5634 62.6521 61.7399C61.3658 63.8202 60.0248 63.5291 58.6474 61.837H58.6535Z" fill="#2E3643"/>
<path d="M61.8027 69.0541C65.0489 73.3541 71.1955 73.1357 74.5024 68.5992C76.0739 68.854 75.2365 69.703 74.8543 70.2913C72.1178 74.5003 62.9313 74.3123 60.5528 69.9214C59.7336 68.4052 61.2991 69.2542 61.7967 69.0602L61.8027 69.0541Z" fill="#3F4756"/>
<path d="M75.0117 58.8167C75.133 57.1428 74.2775 54.4136 76.8987 54.6441C79.3258 54.8563 78.7554 57.5006 78.5309 59.3868C77.014 61.2851 75.9825 60.2419 75.0117 58.8106V58.8167Z" fill="#2E3643"/>
<path d="M68.3496 62.9892C67.4697 61.4367 68.4163 60.3996 69.6662 60.1752C71.0557 59.9204 71.1528 61.3821 71.3895 62.4131C70.3155 62.2675 69.284 62.3767 68.3496 62.9892Z" fill="#E0D9AB"/>
<path d="M68.3496 62.9893C69.284 62.3767 70.3095 62.2676 71.3895 62.4131C71.7657 63.2622 72.2693 64.3235 70.6796 64.1659C69.8969 64.087 68.0948 65.3364 68.3557 62.9954L68.3496 62.9893Z" fill="#ECA47C"/>
<path d="M85.9094 104.218C84.8658 105.237 84.1134 106.462 83.4763 107.76C79.5505 112.739 75.2303 117.354 70.6492 121.733C69.6723 122.564 68.6894 123.395 67.7125 124.22C66.6931 124.268 65.7223 124.165 64.7939 123.644C63.4226 122.873 62.9797 121.739 64.2964 120.805C74.0835 113.812 76.8807 102.295 82.6207 92.6948C83.0333 92.0094 83.2821 91.2089 84.1255 90.8874C83.2882 97.4496 79.8478 102.956 76.9293 108.676C75.8492 110.798 73.8954 112.49 73.7498 115.08C73.5496 115.28 73.3493 115.48 73.1491 115.674C72.9428 115.875 72.7365 116.069 72.5363 116.269C72.4574 116.39 72.3846 116.517 72.3057 116.639C72.427 116.56 72.5545 116.487 72.6758 116.408C72.876 116.202 73.0702 115.996 73.2704 115.79C73.4707 115.589 73.6709 115.389 73.8711 115.189C79.7143 110.21 82.645 103.423 85.3815 96.5277C86.0065 94.9509 86.68 93.3437 86.9652 91.688C87.396 89.1772 88.9493 88.2007 91.2247 87.8914C91.1943 93.8956 88.6399 99.081 85.9033 104.206L85.9094 104.218Z" fill="#E4E6E4"/>
<path d="M67.7188 124.226C68.6956 123.395 69.6786 122.564 70.6555 121.739C74.6238 124.505 79.1624 124.353 83.6889 124.286C78.3554 126.67 73.034 126.664 67.7248 124.226H67.7188Z" fill="#2BB37D"/>
<path d="M68.6468 108.554C66.6384 108.239 64.63 107.93 62.6216 107.614C62.6459 107.493 62.6641 107.378 62.6883 107.256H68.9623C68.8591 107.687 68.756 108.124 68.6468 108.554Z" fill="#26B27B"/>
<path d="M84.1313 90.8875C84.2163 90.4508 84.2952 90.0141 84.3801 89.5775C84.459 89.626 84.5864 89.6624 84.6046 89.7291C84.7745 90.2385 84.5682 90.6145 84.1374 90.8935L84.1313 90.8875Z" fill="#E4E6E4"/>
<path d="M64.1206 128.465L63.8779 128.332C63.9568 128.38 64.0357 128.429 64.1085 128.477L64.1206 128.465Z" fill="#E4E6E4"/>
<path d="M64.1143 128.477C64.1992 128.52 64.2902 128.562 64.3752 128.605C64.2902 128.556 64.2113 128.514 64.1264 128.465L64.1143 128.477Z" fill="#E4E6E4"/>
<path d="M27.144 149.061C28.5821 149.092 29.923 149.565 31.1305 150.244C32.7081 151.129 33.2906 150.553 33.3573 148.176C34.3282 150.577 35.1594 152.142 36.3305 153.489C34.7468 153.404 33.2299 153.422 31.6463 153.962C30.1718 154.465 29.0129 153.573 28.4365 152.051C28.0542 151.038 27.5748 150.056 27.144 149.061Z" fill="#ECA47C"/>
<path d="M37.5078 148.691V145.149C39.0247 145.92 39.1825 147.127 39.2674 148.382C38.6849 148.485 38.0964 148.588 37.5078 148.691Z" fill="#ECA47C"/>
<path d="M26.5131 178.803C26.1794 178.142 26.5556 177.821 27.0956 177.578C27.1563 178.112 27.1806 178.621 26.5131 178.803Z" fill="#F9F9FB"/>
<path d="M72.6817 116.414C72.5603 116.493 72.4329 116.566 72.3115 116.645C72.3904 116.523 72.4632 116.396 72.5421 116.275L72.6817 116.414Z" fill="#CCCDCB"/>
<path d="M73.2767 115.796C73.0764 116.002 72.8762 116.208 72.682 116.408C72.682 116.408 72.5425 116.275 72.5425 116.269C72.7488 116.069 72.949 115.868 73.1614 115.674L73.2767 115.79V115.796Z" fill="#CCCDCB"/>
<path d="M73.8771 115.195C73.6769 115.395 73.4766 115.596 73.2764 115.796L73.1611 115.68C73.3614 115.48 73.5616 115.28 73.7618 115.08L73.8771 115.195Z" fill="#CCCDCB"/>
<path d="M60.7651 61.1759C61.0165 61.1759 61.2202 60.9043 61.2202 60.5694C61.2202 60.2344 61.0165 59.9629 60.7651 59.9629C60.5138 59.9629 60.3101 60.2344 60.3101 60.5694C60.3101 60.9043 60.5138 61.1759 60.7651 61.1759Z" fill="#F9F9FB"/>
<path d="M77.1475 58.75C77.3988 58.75 77.6025 58.4784 77.6025 58.1435C77.6025 57.8085 77.3988 57.537 77.1475 57.537C76.8961 57.537 76.6924 57.8085 76.6924 58.1435C76.6924 58.4784 76.8961 58.75 77.1475 58.75Z" fill="#F9F9FB"/>
</g>
<defs>
<clipPath id="clip0_223_16586">
<rect width="151" height="183" fill="white" transform="translate(18)"/>
</clipPath>
</defs>
</svg>
