<svg width="18" height="19" viewBox="0 0 18 19" fill="none" xmlns="http://www.w3.org/2000/svg">
<path d="M12.375 11.75C11.9998 11.7499 11.6284 11.825 11.2827 11.9711C10.9371 12.1171 10.6242 12.331 10.3627 12.6001L7.1213 10.5167C7.37627 9.86288 7.37627 9.13711 7.1213 8.48328L10.3627 6.39992C10.8496 6.89866 11.5043 7.19884 12.1999 7.24228C12.8956 7.28571 13.5826 7.0693 14.1277 6.635C14.6729 6.2007 15.0373 5.57945 15.1504 4.8917C15.2636 4.20395 15.1173 3.4987 14.74 2.91268C14.3626 2.32665 13.7811 1.90161 13.1082 1.71995C12.4353 1.53829 11.719 1.61296 11.098 1.92949C10.477 2.24601 9.99569 2.78183 9.74733 3.43307C9.49897 4.08431 9.50128 4.80457 9.7538 5.45421L6.51239 7.53757C6.12206 7.13684 5.6211 6.86162 5.07354 6.74708C4.52599 6.63254 3.95671 6.68389 3.43849 6.89456C2.92026 7.10524 2.47664 7.46567 2.16432 7.92978C1.852 8.39388 1.68518 8.94058 1.68518 9.49999C1.68518 10.0594 1.852 10.6061 2.16432 11.0702C2.47664 11.5343 2.92026 11.8947 3.43849 12.1054C3.95671 12.3161 4.52599 12.3674 5.07354 12.2529C5.6211 12.1384 6.12206 11.8631 6.51239 11.4624L9.7538 13.5458C9.53665 14.1058 9.50452 14.7207 9.66211 15.3003C9.81969 15.88 10.1587 16.3939 10.6295 16.767C11.1004 17.14 11.6782 17.3525 12.2786 17.3733C12.8789 17.3941 13.4701 17.2222 13.9657 16.8827C14.4612 16.5432 14.835 16.054 15.0324 15.4867C15.2298 14.9194 15.2404 14.3037 15.0626 13.73C14.8847 13.1562 14.5279 12.6544 14.0443 12.2982C13.5607 11.9419 12.9757 11.7498 12.375 11.75ZM12.375 2.74999C12.7088 2.74999 13.0351 2.84896 13.3126 3.03439C13.5901 3.21981 13.8064 3.48337 13.9341 3.79172C14.0618 4.10007 14.0952 4.43937 14.0301 4.76671C13.965 5.09405 13.8043 5.39474 13.5683 5.63074C13.3323 5.86674 13.0316 6.02746 12.7043 6.09257C12.3769 6.15768 12.0376 6.12426 11.7293 5.99654C11.4209 5.86882 11.1574 5.65253 10.9719 5.37502C10.7865 5.09751 10.6875 4.77125 10.6875 4.43749C10.6875 3.98994 10.8653 3.56072 11.1818 3.24425C11.4983 2.92778 11.9275 2.74999 12.375 2.74999ZM4.50005 11.1875C4.16629 11.1875 3.84003 11.0885 3.56252 10.9031C3.28501 10.7177 3.06872 10.4541 2.941 10.1458C2.81328 9.83742 2.77986 9.49812 2.84497 9.17078C2.91008 8.84344 3.0708 8.54275 3.3068 8.30675C3.54281 8.07075 3.84349 7.91003 4.17083 7.84492C4.49817 7.77981 4.83747 7.81322 5.14583 7.94095C5.45418 8.06867 5.71773 8.28496 5.90315 8.56247C6.08858 8.83998 6.18755 9.16624 6.18755 9.49999C6.18755 9.94755 6.00976 10.3768 5.69329 10.6932C5.37682 11.0097 4.9476 11.1875 4.50005 11.1875ZM12.375 16.25C12.0413 16.25 11.715 16.151 11.4375 15.9656C11.16 15.7802 10.9437 15.5166 10.816 15.2083C10.6883 14.8999 10.6549 14.5606 10.72 14.2333C10.7851 13.9059 10.9458 13.6053 11.1818 13.3693C11.4178 13.1332 11.7185 12.9725 12.0458 12.9074C12.3732 12.8423 12.7125 12.8757 13.0208 13.0034C13.3292 13.1312 13.5927 13.3475 13.7782 13.625C13.9636 13.9025 14.0625 14.2287 14.0625 14.5625C14.0625 15.01 13.8848 15.4393 13.5683 15.7557C13.2518 16.0722 12.8226 16.25 12.375 16.25Z" fill="#19BC66"/>
</svg>
