<svg width="37" height="37" viewBox="0 0 37 37" fill="none" xmlns="http://www.w3.org/2000/svg">
<circle cx="18.5" cy="18.5" r="18.5" fill="#E3F0E9"/>
<path d="M27.78 19.503L21.0303 26.6496C20.8895 26.7986 20.6987 26.8824 20.4997 26.8824C20.3006 26.8824 20.1098 26.7986 19.969 26.6496C19.8283 26.5006 19.7493 26.2986 19.7493 26.0878C19.7493 25.8771 19.8283 25.675 19.969 25.526L25.4392 19.7352H10.75C10.5511 19.7352 10.3603 19.6516 10.2197 19.5027C10.079 19.3538 10 19.1518 10 18.9412C10 18.7306 10.079 18.5286 10.2197 18.3797C10.3603 18.2308 10.5511 18.1471 10.75 18.1471H25.4392L19.969 12.3563C19.8283 12.2073 19.7493 12.0052 19.7493 11.7945C19.7493 11.5838 19.8283 11.3817 19.969 11.2327C20.1098 11.0837 20.3006 11 20.4997 11C20.6987 11 20.8895 11.0837 21.0303 11.2327L27.78 18.3794C27.8498 18.4531 27.9051 18.5407 27.9428 18.6371C27.9806 18.7335 28 18.8368 28 18.9412C28 19.0455 27.9806 19.1489 27.9428 19.2453C27.9051 19.3417 27.8498 19.4292 27.78 19.503Z" fill="black"/>
</svg>
