<svg width="70" height="63" viewBox="0 0 70 63" fill="none" xmlns="http://www.w3.org/2000/svg">
<g opacity="0.5" clip-path="url(#clip0_456_894)">
<path d="M68.8279 62.5091C69.2479 62.5986 69.6254 62.6794 70.0028 62.7574C69.9943 62.8383 69.9858 62.9191 69.9801 62.9971H0.0283803C0.0198662 62.9249 0.00851409 62.8556 0 62.7834C0.380296 62.6997 0.760592 62.613 1.14089 62.5293C1.65457 60.1236 1.39915 41.5052 0.953578 40.8525C2.20799 38.6288 2.83803 36.3127 3.32333 33.8724C5.39793 33.4104 3.5078 31.3022 4.58342 30.2163C4.80762 32.0617 6.15569 31.5765 7.19724 31.5014C7.82445 31.4581 8.42327 31.0278 9.21508 30.6957C9.8877 31.3599 8.0146 33.5028 10.2566 33.8955C10.3758 36.3791 11.3606 38.5653 12.3994 40.9218C12.3823 40.9449 12.1865 41.2193 11.8317 41.7189H28.2611V40.0237C28.2611 33.962 28.2554 27.9002 28.2696 21.8356C28.2696 21.2147 28.2214 20.5302 28.4541 19.9873C29.6489 17.1774 29.8334 14.2432 29.6886 11.2456C29.6744 10.9481 29.7539 10.6478 30.0264 10.3359C30.1257 10.7113 30.2222 11.0867 30.3896 11.7307C31.8711 10.5669 31.8484 8.90057 32.2088 7.52015C32.5777 6.09929 32.521 4.56003 32.6799 2.73486C33.0091 3.36443 33.117 3.85249 33.415 4.06042C33.7073 4.26546 34.1926 4.1846 34.7971 4.25102V0.0144396C34.9617 0.00866376 35.1263 0.00577584 35.2909 0C35.2909 0.851937 35.2114 1.71254 35.3193 2.55003C35.3902 3.12184 35.7194 3.659 35.9351 4.21348C36.4204 3.87848 36.9029 3.54637 37.4336 3.1796C37.4336 3.1796 37.4904 3.42219 37.5329 3.66477C37.9132 5.87692 38.2623 8.09773 38.6937 10.2983C38.7788 10.7373 39.1733 11.1156 39.4259 11.5199C39.6643 11.1185 39.9027 10.7171 40.2915 10.0644C40.3341 10.7691 40.4221 11.3004 40.3908 11.826C40.2348 14.5465 40.5327 17.1802 41.5488 19.7303C41.7871 20.3281 41.807 21.0414 41.8099 21.7027C41.8297 27.7645 41.8212 33.8262 41.8212 39.8909C41.8212 40.4627 41.8212 41.0374 41.8212 41.7391H57.6205C57.8419 41.0402 58.0207 40.5175 58.1768 39.9833C58.7472 38.0079 59.8597 36.1712 59.7717 33.8955C60.0442 33.8378 60.4387 33.7511 60.9439 33.6443V30.3463C61.8918 32.6537 63.7166 31.0971 65.0448 31.591C65.2123 31.048 65.3314 30.6611 65.4506 30.2712L65.7543 30.2827C65.7855 31.0076 65.8877 31.7411 65.8338 32.4602C65.7628 33.393 65.9728 33.9735 66.8157 33.8522C67.2301 36.3214 67.8857 38.5913 69.1287 40.8179C68.6463 41.5659 68.3596 55.8495 68.8364 62.5119L68.8279 62.5091ZM1.85323 62.4369C2.99696 62.821 3.57592 62.6101 3.522 61.4203C3.49929 60.8918 3.51348 60.3604 3.54186 59.8348C3.64687 57.9981 4.94385 56.6581 6.5672 56.687C8.33529 56.7188 9.67484 58.0299 9.78269 59.8608C9.81958 60.4846 9.80823 61.1113 9.79972 61.7351C9.78269 62.8267 10.5149 62.7632 11.1393 62.5062C11.372 62.4109 11.4997 61.7842 11.5025 61.4001C11.5252 55.5318 11.5224 49.6636 11.5054 43.7953C11.5054 43.4372 11.3606 43.0733 11.2386 42.7268C11.2159 42.6604 10.9945 42.6661 10.7788 42.6228C10.6568 43.0069 10.5404 43.3679 10.3872 43.8444C10.1062 43.3044 9.9104 42.9261 9.7316 42.5766C9.53294 42.6315 9.45915 42.6315 9.44496 42.6604C9.26901 43.0069 9.10156 43.3564 8.91425 43.7462C8.49706 42.3023 8.73262 41.9904 10.0296 42.0019C10.5234 42.0077 11.0201 41.82 11.5167 41.7189L11.6274 41.1327C9.67201 41.0893 7.84431 40.7948 6.71194 38.5133C5.63633 40.8352 3.68092 41.0114 1.82202 41.4763C2.38395 41.8575 2.86925 42.0683 3.3432 42.0366C4.67707 41.9528 4.98926 42.36 4.49544 43.6827C4.27691 43.2668 4.05554 42.851 3.74904 42.2676C3.45104 42.9549 3.27225 43.3737 3.00831 43.9773C2.77559 43.3073 2.63653 42.9001 2.49463 42.4958C2.27894 42.5102 2.06609 42.5218 1.8504 42.5362C1.84188 49.1726 1.84472 55.812 1.8504 62.4311L1.85323 62.4369ZM60.4217 42.2214C60.1095 42.9434 59.942 43.3275 59.7604 43.7462C59.4965 43.3044 59.2694 42.9261 59.0452 42.5477C58.9175 42.5824 58.787 42.6199 58.6592 42.6546C58.6252 43.1513 58.5627 43.6452 58.5627 44.1419C58.5571 49.7704 58.5571 55.3961 58.5599 61.0247C58.5599 61.2644 58.4748 61.5647 58.5826 61.7322C58.7955 62.0643 59.119 62.3242 59.3971 62.6159C59.644 62.304 60.0442 62.021 60.1066 61.6773C60.2258 61.0247 60.101 60.3316 60.1634 59.6645C60.3138 58.0183 61.5711 56.7765 63.1149 56.687C64.6673 56.5975 65.9473 57.5303 66.3304 59.1475C66.4922 59.8348 66.4525 60.5742 66.5064 61.2875C66.5518 61.8708 66.3077 62.6072 67.3152 62.6275C68.2631 62.6448 68.2234 61.995 68.2234 61.3568C68.2262 55.4885 68.2319 49.6203 68.212 43.752C68.212 43.3535 68.0276 42.9578 67.9311 42.5622C67.8232 42.568 67.7126 42.5766 67.6047 42.5824C67.4231 42.9578 67.2443 43.3333 67.0172 43.8011C66.7448 43.2957 66.5404 42.9174 66.2311 42.3456C65.9558 42.9376 65.7799 43.3102 65.6067 43.6856C65.4563 43.5932 65.3031 43.5008 65.1527 43.4083C65.479 42.9087 65.7004 42.1839 66.1545 41.9644C66.7221 41.69 67.4855 41.8344 68.1638 41.7969C68.2177 41.5745 68.2688 41.3521 68.3227 41.1298C66.3219 41.1038 64.5084 40.6995 63.4754 38.8483C62.5984 39.6338 61.9826 40.4569 61.1681 40.8352C60.4018 41.1904 59.4227 41.072 58.54 41.1615L58.5769 41.7796C59.0906 41.8431 59.6043 41.9673 60.1152 41.9557C61.3128 41.9268 61.6534 42.49 61.1028 43.6769C60.924 43.2928 60.748 42.9116 60.4273 42.2185L60.4217 42.2214ZM28.8401 51.4685C29.4389 51.4685 29.8674 51.4137 30.2789 51.4772C31.6298 51.6851 32.0101 51.0613 31.9222 49.7733C31.8342 48.4824 31.8597 47.1742 31.9477 45.8833C32.0499 44.396 33.063 43.8415 34.4395 44.3614C34.7801 44.4913 35.2341 44.5462 35.5634 44.4278C37.2151 43.8386 38.1374 44.4249 38.1687 46.1981C38.1999 47.9106 38.1743 49.6232 38.1743 51.3617H41.3104C41.3104 46.845 41.3189 42.4351 41.2877 38.0253C41.2877 37.7711 40.9755 37.3033 40.8024 37.3004C39.9822 37.2917 38.6568 37.1358 38.4468 37.5401C38.0665 38.2621 38.2708 39.3624 38.3985 40.2778C38.4865 40.9247 38.8526 41.5283 39.1421 42.2734H30.8465C31.1899 41.4388 31.5532 40.8525 31.6582 40.2201C31.803 39.3479 31.8711 38.4151 31.7065 37.5632C31.6639 37.3408 30.6394 37.2715 30.0604 37.2138C29.6631 37.1762 29.2516 37.2831 28.8429 37.3235V51.4628L28.8401 51.4685ZM41.1656 36.5784C41.2394 36.3329 41.2877 36.2434 41.2877 36.1539C41.3018 34.3749 41.316 32.5931 41.316 30.8141C41.3179 28.5596 40.1875 27.5084 37.9246 27.6605C37.8366 27.6663 37.7515 27.7327 37.6663 27.7703C37.4365 28.4403 37.0221 28.9427 36.6191 29.4568C36.4204 29.708 36.148 29.9506 36.077 30.2394C35.8358 31.23 35.6967 32.2465 35.4413 33.2342C35.3987 33.3988 34.973 33.4623 34.5331 33.6529C35.4442 30.843 32.8672 29.7109 32.2883 27.623C31.4227 27.623 30.523 27.5652 29.6375 27.6547C29.331 27.6865 28.8174 28.085 28.8117 28.3247C28.7521 31.0509 28.7748 33.78 28.7748 36.5351H31.8086C31.8484 36.1683 31.8938 35.9315 31.8938 35.6947C31.8938 34.7619 32.047 33.8609 33.1595 33.8002C34.3969 33.7338 34.5048 34.7359 34.6268 35.6774C34.6722 36.021 34.8113 36.3503 35.027 37.0953C35.7138 35.6167 35.1093 33.6761 37.042 33.8291C38.6114 33.9533 37.9445 35.5734 38.3588 36.5755H41.1656V36.5784ZM35.2171 13.9978C35.0951 13.9718 34.9759 13.9458 34.8538 13.9198C34.4111 15.1038 34.0138 16.3081 33.5058 17.4604C33.2958 17.934 32.8388 18.2892 32.5096 18.7137C32.2116 19.0978 31.7519 19.4675 31.6866 19.8949C31.522 20.9317 31.5447 22.0002 31.4738 23.4008C31.1672 22.65 30.9998 22.2457 30.7075 21.5323C30.3641 22.2226 30.1626 22.6298 29.9355 23.0832C29.7057 22.6066 29.5127 22.1995 29.3197 21.7951C29.1324 21.8211 28.9479 21.8471 28.7606 21.8731C28.7606 22.9821 28.7606 24.0882 28.7606 25.1971C28.7606 26.4697 29.3651 27.108 30.5741 27.1118C33.1709 27.1118 35.7705 27.1118 38.3673 27.1118C41.3189 27.1118 41.3274 27.1118 41.3132 24.0477C41.3104 23.3142 41.2337 22.5807 41.194 21.8471C41.0322 21.8471 40.8705 21.8471 40.7059 21.8442C40.5327 22.2312 40.3625 22.6153 40.1553 23.086C39.9226 22.5807 39.7324 22.1706 39.4231 21.5006C39.0853 22.211 38.8895 22.6211 38.6 23.2276C38.5319 21.902 38.5206 20.8306 38.4014 19.7707C38.3616 19.4155 38.0438 18.7975 37.8678 18.8033C36.7213 18.8379 36.6702 17.9629 36.4091 17.2149C36.0288 16.1348 35.6173 15.0692 35.2171 13.9978ZM34.834 12.3978C34.9674 12.4007 35.1008 12.4065 35.2341 12.4094C35.7393 13.7898 36.2416 15.1703 36.7497 16.5478C37.0505 17.3622 37.1016 18.4105 38.4156 18.243C38.5603 18.2257 38.8583 18.6646 38.9236 18.9332C39.0286 19.3808 39.0002 19.8602 39.0286 20.3454H41.0833C40.9868 19.8891 40.9414 19.5599 40.8449 19.248C39.8573 16.0453 38.8697 12.8455 37.8707 9.64855C37.0306 6.957 37.0221 7.00032 34.2352 6.99166C33.3128 6.98877 32.9155 7.31799 32.6629 8.2017C31.9874 10.5409 31.1985 12.8484 30.4861 15.1789C29.9639 16.877 29.49 18.5924 28.9706 20.3772H30.9743C31.1843 19.043 31.2041 19.0689 32.5181 18.0149C32.819 17.7752 32.9524 17.29 33.1056 16.8972C33.6931 15.4013 34.2607 13.8996 34.834 12.3978ZM38.9491 62.6332C39.8885 62.3907 41.177 63.3494 41.2564 61.8651C41.4267 58.6681 41.3075 55.4568 41.3075 52.1761H28.7719C28.7719 55.4856 28.7436 58.6941 28.8259 61.8997C28.8315 62.1567 29.6007 62.5697 30.0264 62.5813C30.3754 62.5928 31.014 62.1423 31.0424 61.8477C31.1644 60.6579 31.0935 59.4507 31.102 58.2494C31.119 55.451 32.6799 53.6922 35.1121 53.7153C37.3144 53.7384 38.9094 55.5925 38.9434 58.2003C38.9633 59.5894 38.9463 60.9813 38.9463 62.6332H38.9491ZM47.0687 62.587C47.3327 62.5726 47.5994 62.561 47.8634 62.5466C47.8634 61.5358 47.8208 60.5251 47.8747 59.5172C47.9372 58.2927 48.6069 57.5649 49.8216 57.4639C50.9852 57.3686 51.865 58.157 51.9984 59.4334C52.0778 60.1958 51.9984 60.9727 52.0523 61.738C52.0722 62.0383 52.2566 62.3271 52.3673 62.6217C52.566 62.5986 52.7618 62.5755 52.9605 62.5524C52.9605 61.6889 52.9434 60.8283 52.9633 59.9648C53.0002 58.3273 53.7693 57.4119 55.0436 57.4494C56.315 57.4898 57.0785 58.4371 57.1125 60.0428C57.1295 60.8774 57.1154 61.7149 57.1154 62.5495L57.7284 62.6448C57.8419 62.1972 58.0434 61.7524 58.0491 61.3019C58.0803 58.9454 58.0037 56.5888 58.0888 54.2352C58.1314 53.0453 57.6744 52.7623 56.6045 52.7739C52.1176 52.8172 47.6278 52.7883 43.1381 52.797C42.7322 52.797 42.3235 52.8721 41.824 52.9212C41.824 55.9737 41.8099 58.902 41.8467 61.8275C41.8496 62.1047 42.1873 62.3762 42.3689 62.6506C42.5023 62.6015 42.6357 62.5524 42.7719 62.5033C42.7719 61.5069 42.701 60.5048 42.7918 59.5172C42.8826 58.5006 43.3594 57.6545 44.4606 57.4812C45.4283 57.3281 46.2968 57.6429 46.6572 58.6335C46.8786 59.237 46.8559 59.9359 46.9211 60.5973C46.9864 61.2586 47.0205 61.9199 47.0687 62.5813V62.587ZM27.387 62.5553L27.9177 62.6506C28.0312 62.2058 28.2412 61.764 28.2469 61.3192C28.281 58.9656 28.2072 56.6061 28.2866 54.2525C28.3264 53.0829 27.9063 52.7652 26.8165 52.7768C22.2814 52.823 17.7462 52.7941 13.211 52.8028C12.8506 52.8028 12.4902 52.8894 12.0219 52.95C12.0219 55.9621 12.0077 58.8876 12.0446 61.8131C12.0474 62.099 12.3766 62.3791 12.5526 62.6592L13.0067 62.5177C13.0067 61.4752 12.9215 60.424 13.0294 59.393C13.1656 58.0905 14.0624 57.3599 15.2289 57.4667C16.4776 57.5794 17.0424 58.3764 17.1076 59.5807C17.1474 60.2998 17.0906 61.0247 17.1417 61.7409C17.1616 62.0383 17.3489 62.3271 17.4624 62.6188C17.6582 62.5957 17.8512 62.5726 18.047 62.5466C18.047 61.7293 18.0357 60.912 18.047 60.0948C18.0783 58.3822 18.8644 57.4119 20.1727 57.4436C21.4754 57.4754 22.182 58.3591 22.2246 60.0168C22.2416 60.6406 22.1991 61.2701 22.2558 61.8882C22.2785 62.1394 22.4999 62.3733 22.6304 62.613C22.7525 62.5899 22.8717 62.5697 22.9937 62.5466C23.0448 62.0614 23.1356 61.5763 23.1441 61.0911C23.181 58.4573 23.7032 57.4032 25.1194 57.4667C26.4504 57.5274 27.5459 57.9923 27.316 61.0304C27.2791 61.5301 27.3558 62.0354 27.3813 62.5408L27.387 62.5553ZM12.0957 42.4005C12.0616 43.0214 12.0701 43.4055 12.0105 43.778C11.7778 45.2306 12.3256 45.6667 13.7871 45.632C18.1833 45.5281 22.5822 45.5598 26.9783 45.6176C28.122 45.632 28.3292 45.1469 28.2838 44.1534C28.2412 43.212 28.403 42.3254 26.9698 42.3774C24.5603 42.4611 22.148 42.4005 19.7357 42.3976C17.2382 42.3976 14.7436 42.3976 12.0957 42.3976V42.4005ZM41.8184 42.4005C41.8184 43.2408 41.8581 43.8589 41.8099 44.4711C41.7361 45.3895 42.1703 45.6118 42.9905 45.6061C47.625 45.5801 52.2595 45.5656 56.8911 45.6147C58.0122 45.6263 58.1342 45.0602 58.0689 44.1823C58.0093 43.3737 58.3669 42.3514 56.9394 42.3889C55.2394 42.4351 53.5366 42.3976 51.8338 42.3976C48.5786 42.3976 45.3233 42.3976 41.8184 42.3976V42.4005ZM34.9617 62.6303C35.8131 62.6303 36.673 62.7083 37.5074 62.5928C37.8395 62.5466 38.373 62.0759 38.373 61.7957C38.3787 60.1236 38.3758 58.4313 38.1431 56.7794C37.9359 55.3124 36.3779 54.2612 34.8993 54.3102C33.4802 54.3565 32.1208 55.4365 31.8399 56.843C31.6809 57.6342 31.6185 58.4573 31.61 59.2688C31.5844 62.6361 31.5986 62.6361 34.9617 62.6303ZM27.316 52.1559L27.7786 52.2772C27.9376 52.0144 28.227 51.7544 28.2356 51.4887C28.281 49.9524 28.3037 48.4131 28.2157 46.8796C28.1987 46.6053 27.6339 46.1403 27.3217 46.1374C22.5538 46.0883 17.7831 46.0854 13.0152 46.1403C12.6832 46.1432 12.0928 46.6659 12.073 46.9778C11.9736 48.4593 12.002 49.9553 12.056 51.4425C12.0673 51.7198 12.3994 51.9855 12.581 52.254C12.7115 52.205 12.8421 52.153 12.9726 52.1039C12.9726 51.2057 12.9613 50.3047 12.9726 49.4066C12.9897 48.2889 13.4097 47.6449 14.6414 47.977C14.8542 48.0348 15.0898 48.055 15.3055 48.029C16.9033 47.8471 17.0935 48.0232 17.1275 49.6665C17.1445 50.5097 17.2013 51.3501 17.241 52.1934C17.4794 52.1934 17.7178 52.1934 17.9562 52.1934C17.9874 51.3501 17.9477 50.4953 18.0726 49.6636C18.1577 49.0918 18.3081 48.3005 18.7026 48.0406C20.2607 47.0182 22.2104 48.1763 22.2388 50.0246C22.2502 50.7466 22.341 51.4685 22.3949 52.1934C22.5879 52.1905 22.7809 52.1847 22.9739 52.1819C23.0334 51.7516 23.1385 51.3213 23.147 50.891C23.2151 48.1157 23.2094 48.1359 25.7324 47.8991C26.8336 47.7951 27.3217 48.2687 27.3132 49.3632C27.3047 50.2931 27.3132 51.226 27.3132 52.1559H27.316ZM57.1154 52.1241C57.3055 52.1674 57.4928 52.2078 57.683 52.2512C57.8107 51.8786 58.0349 51.509 58.0491 51.1306C58.0973 49.8831 58.0122 48.6297 58.0831 47.385C58.1427 46.3483 57.7312 46.071 56.7663 46.0826C53.3209 46.1288 49.8727 46.0999 46.4245 46.0999C43.1002 46.0999 41.5658 47.8086 41.8212 51.226C41.8382 51.4628 41.824 51.7371 41.9404 51.919C42.0397 52.075 42.3037 52.1241 42.7663 52.358C42.7663 51.3155 42.6726 50.4578 42.7975 49.6318C42.8883 49.0398 43.2317 48.0492 43.5411 48.0146C44.5514 47.9077 45.7008 47.9395 46.5806 48.3727C46.9637 48.5604 46.819 49.8542 46.924 50.6426C46.9949 51.1682 47.0801 51.6909 47.1822 52.3753C47.5625 52.0865 47.6931 52.0346 47.6988 51.9768C47.7584 51.0729 47.8236 50.1719 47.8407 49.265C47.8605 48.2167 48.3487 47.7749 49.3675 47.9222C49.6371 47.9626 49.9153 47.9857 50.1877 47.9655C51.7799 47.8471 51.9927 48.0435 52.0296 49.6665C52.0495 50.5097 52.092 51.353 52.1261 52.1963H52.8328C52.8725 51.2577 52.9406 50.3163 52.9463 49.3777C52.952 48.2947 53.372 47.7489 54.5044 47.9251C54.8137 47.9741 55.1458 47.9626 55.4579 47.9135C56.5165 47.7518 57.104 48.1503 57.1068 49.2853C57.1097 50.2325 57.1068 51.1769 57.1068 52.1241H57.1154ZM68.0162 40.2143C67.46 38.5133 66.9747 36.8066 66.3106 35.1749C66.146 34.7648 65.3769 34.3201 64.937 34.3692C63.4612 34.5367 61.5569 33.4508 60.5891 34.9612C59.627 36.4658 59.3233 38.4065 58.7586 40.0843C61.1283 41.3839 62.028 39.1458 63.4555 38.2476C64.7383 39.5068 65.7685 41.1067 68.0134 40.2172L68.0162 40.2143ZM6.75451 38.1466C8.17069 39.2295 8.99939 41.3319 11.3323 40.1392C10.7675 38.4325 10.2112 36.6593 9.57551 34.9121C9.47902 34.6464 9.02777 34.3663 8.72978 34.3518C7.4101 34.2912 6.08474 34.2883 4.76221 34.346C4.45855 34.3605 3.99595 34.6262 3.89945 34.889C3.25238 36.6564 2.68478 38.4556 2.11149 40.1883C4.41881 41.1933 5.38658 39.3508 6.75451 38.1466ZM9.28887 62.5697C9.12143 60.7185 9.90189 58.801 7.92662 57.64C6.91912 57.048 5.89459 57.1317 5.03466 57.8913C3.55038 59.1995 4.12082 60.912 4.10947 62.5697H9.28603H9.28887ZM60.8048 62.6217C62.4026 62.6217 63.8528 62.6535 65.2974 62.5899C65.5415 62.5784 65.9672 62.151 65.9672 61.9199C65.9615 60.9265 65.9842 59.8811 65.6976 58.9511C65.3229 57.7324 64.3211 57.1491 63.044 57.3397C61.8208 57.5216 60.9268 58.1858 60.8218 59.5374C60.748 60.4817 60.8076 61.4405 60.8076 62.6217H60.8048ZM34.763 51.3703C34.763 49.4672 34.8368 47.6478 34.7063 45.8486C34.6779 45.4443 33.9655 44.8725 33.5058 44.8032C33.2135 44.757 32.5238 45.4761 32.4983 45.8833C32.3848 47.6882 32.45 49.5019 32.45 51.3703H34.7659H34.763ZM37.6436 51.3703C37.6436 49.5019 37.7174 47.6854 37.5897 45.8862C37.5585 45.4703 36.8745 44.8783 36.4176 44.7945C36.1224 44.7426 35.3959 45.4501 35.3704 45.8486C35.254 47.6507 35.3193 49.4672 35.3193 51.3703H37.6436ZM53.2698 60.8716C53.4855 61.4434 53.5479 62.3156 53.9481 62.5293C55.4409 63.3292 56.5988 62.4831 56.6017 60.7445C56.6017 58.9165 56.1107 58.0241 55.0691 57.975C54.0276 57.9259 53.46 58.9223 53.2698 60.8716ZM51.4932 60.6463C51.4932 58.8732 50.937 57.9548 49.8784 57.9779C48.8652 58.001 48.3742 58.9887 48.343 60.9034C48.326 61.9315 48.2891 62.7632 49.7535 62.6679C51.4904 62.5553 51.4961 62.6563 51.4961 60.6463H51.4932ZM26.8024 60.4471C26.8847 59.3785 26.7655 58.1281 25.2783 58.0241C24.0466 57.9375 23.5528 58.9829 23.7004 60.0745C23.8281 61.0131 22.761 62.6679 24.9548 62.6506C26.8052 62.6332 26.8052 62.6794 26.8024 60.45V60.4471ZM18.7083 62.6275C19.5654 62.6275 20.2749 62.6881 20.9645 62.5986C21.2398 62.5639 21.6769 62.2116 21.6911 61.9806C21.7507 61.0795 21.85 60.1121 21.5832 59.2861C21.4101 58.7461 20.6382 58.0732 20.1301 58.0674C19.6619 58.0617 18.8899 58.801 18.7707 59.3323C18.5494 60.3171 18.7083 61.3914 18.7083 62.6275ZM13.5658 62.6361C14.2497 62.6361 14.7663 62.5899 15.2686 62.6448C16.2931 62.7603 16.7728 62.3907 16.645 61.2904C16.5798 60.7243 16.8125 60.0399 16.5713 59.598C16.2364 58.9771 15.6404 58.232 15.0501 58.1194C14.6471 58.0443 13.7758 58.8818 13.6282 59.4507C13.387 60.3778 13.5629 61.4174 13.5629 62.6332L13.5658 62.6361ZM43.1239 60.8254C43.3197 61.4116 43.3452 62.2953 43.7426 62.5264C45.1474 63.3523 46.4415 62.4657 46.4387 60.8283C46.4358 58.8732 45.925 57.9866 44.8182 58.0155C43.7567 58.0443 43.3027 58.8674 43.1267 60.8225L43.1239 60.8254ZM32.4444 40.1594C32.5636 40.2894 32.6856 40.4222 32.8048 40.5522C33.2135 40.2778 33.9485 40.0324 33.9741 39.7262C34.0933 38.2592 34.0734 36.7719 33.9741 35.3019C33.9514 34.9785 33.4178 34.6868 33.1198 34.3807C32.8956 34.6926 32.4869 34.9929 32.4756 35.3135C32.4103 36.925 32.4444 38.5422 32.4444 40.1565V40.1594ZM37.6635 40.2085C37.6635 38.5797 37.7174 37.0058 37.6238 35.4377C37.6011 35.0709 37.0789 34.733 36.7865 34.3807C36.5453 34.733 36.1224 35.068 36.0969 35.4377C36.0061 36.6737 36.1026 37.9242 36.0401 39.1631C35.9805 40.3212 36.4573 40.6099 37.6635 40.2085ZM35.1291 30.6004C35.7705 29.7369 36.4346 28.8417 37.3371 27.6259C35.8358 27.6259 34.8538 27.6028 33.8719 27.6432C33.6363 27.6518 33.2901 27.8251 33.2106 28.0157C33.1312 28.2034 33.256 28.5702 33.4121 28.755C33.9514 29.3904 34.5417 29.9795 35.1263 30.5975L35.1291 30.6004ZM16.6309 50.53C16.6309 50.53 16.628 50.53 16.6252 50.53C16.6252 50.1516 16.7103 49.7444 16.6025 49.4008C16.489 49.0485 16.1853 48.7626 15.9639 48.4449C15.7766 48.7626 15.4758 49.0629 15.4304 49.4008C15.3452 50.0535 15.3537 50.7292 15.4304 51.3848C15.4644 51.6736 15.7539 51.9335 15.9299 52.205C16.1654 51.9306 16.4634 51.688 16.611 51.3732C16.7188 51.1422 16.6337 50.8159 16.6337 50.53H16.6309ZM20.2352 50.2238C20.3061 50.2527 20.3742 50.2845 20.4452 50.3134C20.4452 50.4578 20.4054 50.6166 20.4537 50.7408C20.6438 51.2346 20.8624 51.7198 21.0695 52.2078C21.2966 51.7284 21.5321 51.2548 21.7421 50.7697C21.7932 50.6484 21.7876 50.4722 21.7421 50.3451C21.5123 49.7069 21.2597 49.0744 21.0128 48.442L20.238 50.2238H20.2352ZM46.433 50.3682H46.4245C46.4245 50.0332 46.5153 49.6636 46.4018 49.3748C46.2656 49.0282 45.9591 48.751 45.7263 48.442C45.5305 48.7712 45.2212 49.0802 45.1672 49.4325C45.0736 50.039 45.0736 50.6801 45.1644 51.2837C45.2127 51.6129 45.5334 51.8988 45.732 52.205C45.9647 51.8786 46.257 51.5754 46.4131 51.2144C46.5181 50.9747 46.433 50.6513 46.433 50.3653V50.3682ZM44.7784 50.4664C44.5031 49.7156 44.2761 49.0975 44.0462 48.4795C43.7965 49.1091 43.3679 49.73 43.3452 50.3682C43.3225 50.9776 42.7634 52.0692 43.9838 52.1241C44.2193 52.1356 44.5031 51.07 44.7784 50.4664ZM55.0663 50.4C55.3898 51.0296 55.6907 51.6129 55.9887 52.1963C56.193 51.5869 56.5704 50.9689 56.5506 50.3653C56.5307 49.7185 56.1362 49.0831 55.9035 48.442C55.6481 49.0369 55.3927 49.6347 55.0635 50.3971L55.0663 50.4ZM54.984 50.4C54.6576 49.7156 54.3681 49.1062 54.0758 48.4998C53.8686 49.1524 53.5082 49.8022 53.5054 50.4578C53.5025 51.0411 53.8942 51.6245 54.1127 52.2078C54.3823 51.6505 54.6519 51.0931 54.984 50.4029V50.4ZM49.9607 50.478C50.2899 51.1104 50.5737 51.6562 50.8575 52.2021C51.0703 51.6014 51.4563 50.9978 51.445 50.4C51.4336 49.7444 51.0533 49.0975 50.832 48.4478C50.5595 49.0802 50.2871 49.7156 49.9578 50.478H49.9607ZM25.2698 50.4029C25.5934 51.0325 25.8942 51.6187 26.1922 52.2021C26.3965 51.5927 26.774 50.9747 26.7541 50.3711C26.7342 49.7242 26.3398 49.086 26.1099 48.4449C25.8545 49.0398 25.599 49.6376 25.2698 50.4029ZM25.2698 50.4491C24.9094 49.7213 24.6086 49.112 24.3077 48.5055C24.092 49.1611 23.7288 49.8109 23.7061 50.4751C23.6862 51.0613 23.1839 52.1212 24.3389 52.1299C24.6227 52.1299 24.9151 51.1191 25.2698 50.4491ZM20.1387 50.4433C19.8094 49.7242 19.5313 49.112 19.2504 48.4998C19.0347 49.1611 18.6686 49.8195 18.6515 50.4866C18.6373 51.0613 18.1123 52.1125 19.2617 52.1328C19.5285 52.1385 19.8094 51.1075 20.1387 50.4462V50.4433ZM14.7038 48.4911C14.5421 48.4795 14.3803 48.4709 14.2185 48.4593C13.6055 49.008 13.177 51.3761 13.6225 51.9479C13.7417 52.101 14.0284 52.2136 14.2185 52.1876C14.3945 52.1645 14.6783 51.9393 14.684 51.792C14.7237 50.6917 14.7067 49.5914 14.7067 48.4882L14.7038 48.4911ZM49.955 50.4838C49.6059 49.7444 49.3193 49.1293 49.0298 48.5142C48.8056 49.1726 48.431 49.8224 48.3998 50.4895C48.3742 51.0671 47.8832 52.127 49.0298 52.1328C49.3164 52.1328 49.6088 51.1335 49.955 50.4838Z" fill="#1D6B4E"/>
<path d="M10.0124 54.9572H3.6126C3.6126 52.8981 3.50192 50.8967 3.64949 48.9156C3.75166 47.5208 5.1054 46.4898 6.50739 46.3916C7.93492 46.2905 9.37948 47.0731 9.61219 48.5373C9.94141 50.6253 9.896 52.7768 10.0124 54.9572ZM9.14392 48.4362C8.33224 47.3215 7.50354 46.7786 6.4705 46.9865C5.75531 47.1309 5.11392 47.6449 4.43847 47.9915C4.50658 48.1388 4.57185 48.2889 4.63997 48.4362H9.14108H9.14392ZM9.15811 50.4173C8.04276 51.7169 8.15345 53.8655 9.15811 54.3854V50.4173ZM7.74193 50.5098C6.64645 51.5898 6.70889 53.7818 7.74193 54.4316V50.5098ZM6.32008 54.5471V50.6715C5.20757 51.1971 5.15081 53.6229 6.32008 54.5471ZM4.75916 54.3594V50.3769C3.74315 51.7718 3.87937 53.8742 4.75916 54.3594Z" fill="#1D6B4E"/>
<path d="M7.52625 44.0062C6.94729 43.8733 5.90006 43.804 5.87168 43.5932C5.74964 42.695 5.88303 41.7449 6.0448 40.8381C6.07318 40.6706 6.9558 40.4945 6.96716 40.5176C7.35597 41.5023 7.68802 42.5102 8.02858 43.5152C7.86114 43.6769 7.69369 43.8415 7.52909 44.0033L7.52625 44.0062Z" fill="#1D6B4E"/>
<path d="M66.4921 54.9629H60.0781C60.1746 52.8027 60.1462 50.7003 60.4017 48.6326C60.5748 47.2435 62.1783 46.2876 63.62 46.3858C65.127 46.4897 66.3899 47.6593 66.4694 49.2419C66.563 51.1017 66.4921 52.9702 66.4921 54.96V54.9629ZM65.7485 48.4362C64.9226 47.2117 64.0372 46.7352 62.9587 46.9922C62.2975 47.1511 61.7185 47.6622 61.0998 48.0146C61.1708 48.1561 61.2417 48.2947 61.3127 48.4362H65.7485ZM63.6484 50.2816C63.6484 51.7602 63.6257 52.7912 63.6682 53.8193C63.6767 54.0272 63.9435 54.2236 64.0911 54.4257C64.2529 54.238 64.5423 54.059 64.5537 53.8626C64.5991 52.9616 64.5991 52.0548 64.5338 51.1537C64.5196 50.9545 64.1706 50.7783 63.6512 50.2816H63.6484ZM62.3713 54.5095C63.4128 53.5882 63.3901 51.379 62.3713 50.6541V54.5095ZM60.9239 54.573C62.0051 53.542 61.9569 51.3299 60.9239 50.6628V54.573ZM65.4619 54.4748C65.6066 54.446 65.7513 54.4171 65.8961 54.3882C65.933 53.9868 66.0408 53.5796 65.9926 53.1868C65.8932 52.3551 65.7173 51.5292 65.5726 50.7032C65.4108 51.558 65.1866 52.41 65.11 53.2735C65.0759 53.6604 65.3342 54.0734 65.459 54.4748H65.4619Z" fill="#1D6B4E"/>
<path d="M62.3515 43.7029C62.3515 42.9722 62.2323 42.2734 62.3912 41.6467C62.5048 41.1933 62.9872 40.8352 63.3022 40.4366C63.6485 40.7976 64.2388 41.1182 64.3012 41.5254C64.585 43.3159 64.673 44.4971 62.3487 43.7029H62.3515Z" fill="#1D6B4E"/>
<path d="M35.0325 21.2551C36.3465 21.2551 37.4647 22.364 37.4903 23.6925C37.5158 24.9661 36.3295 26.1588 35.0382 26.1559C33.7866 26.1559 32.5748 24.9429 32.5776 23.6896C32.5776 22.3842 33.7185 21.2522 35.0325 21.2551ZM33.2134 23.6578C33.1821 24.6773 34.0477 25.688 35.0183 25.6043C36.0372 25.5176 36.8006 25.0151 36.8574 23.8369C36.9113 22.7308 36.1592 21.8731 35.1148 21.824C34.0506 21.7749 33.2446 22.5489 33.2105 23.6549L33.2134 23.6578Z" fill="black"/>
<path d="M47.977 53.7702C48.4765 53.7471 48.8482 53.7182 49.22 53.7153C50.0657 53.7067 50.9086 53.7153 51.7232 53.7153C52.4355 55.8177 52.1999 56.1845 50.2105 56.1874C49.5095 56.1874 48.8057 56.1874 47.9741 56.1874V53.7731L47.977 53.7702Z" fill="#1D6B4E"/>
<path d="M53.0229 56.1816V53.7096C53.9567 53.7096 54.8421 53.7644 55.7162 53.6951C56.7096 53.6172 57.1523 53.8771 57.1438 55.0178C57.1381 56.1787 56.5506 56.225 55.7162 56.1903C54.8762 56.1556 54.0361 56.1816 53.0229 56.1816Z" fill="#1D6B4E"/>
<path d="M46.7907 53.7154C47.0717 56.2105 47.0688 56.1268 44.1911 56.2163C42.7806 56.2596 42.5961 55.5694 42.7976 54.5009C42.8544 54.2034 43.2602 53.7731 43.5326 53.75C44.5912 53.6634 45.6583 53.7154 46.7879 53.7154H46.7907Z" fill="#1D6B4E"/>
<path d="M23.164 53.776H27.0918C27.614 56.0344 27.5118 56.1816 25.4315 56.1816C24.7362 56.1816 24.0381 56.1816 23.3257 56.1816C23.2491 55.8582 23.1781 55.6791 23.1725 55.5001C23.1554 54.9745 23.1668 54.4489 23.1668 53.776H23.164Z" fill="#1D6B4E"/>
<path d="M17.8965 53.7817H22.2557C22.1649 54.5759 22.1961 55.8668 21.9861 55.9101C20.8197 56.1412 19.5794 56.1932 18.4073 56.0054C18.1547 55.965 18.0923 54.6943 17.8965 53.7817Z" fill="#1D6B4E"/>
<path d="M16.9231 53.7124C17.3687 56.0892 17.2977 56.1816 15.189 56.1816C14.8144 56.1816 14.437 56.1441 14.068 56.1874C13.0378 56.3116 12.9555 55.7022 12.947 54.8791C12.9385 54.0445 13.1655 53.6402 14.0595 53.698C14.9875 53.7557 15.9213 53.7124 16.9231 53.7124Z" fill="#1D6B4E"/>
</g>
<defs>
<clipPath id="clip0_456_894">
<rect width="70" height="63" fill="white"/>
</clipPath>
</defs>
</svg>
