<svg width="51" height="52" viewBox="0 0 51 52" fill="none" xmlns="http://www.w3.org/2000/svg">
<g opacity="0.5" clip-path="url(#clip0_456_890)">
<path d="M46.9108 33.2638C48.6183 33.6878 48.8267 33.9523 48.8288 35.6421C48.8288 35.9548 48.8288 36.2697 48.8288 36.5824C48.8288 38.3456 48.6459 38.5807 46.8959 39.0551V50.4173C47.9017 50.4173 48.8458 50.4173 49.7878 50.4173C50.3704 50.4173 51.0254 50.4005 50.9977 51.2045C50.9701 51.9832 50.3215 51.9622 49.7389 51.9622C39.2812 51.9622 28.8234 51.9622 18.3636 51.9622C12.8158 51.9622 7.27008 51.9622 1.72226 51.9622C1.43944 51.9622 1.10134 52.0567 0.886574 51.935C0.546348 51.7418 0.289051 51.4039 -0.00439453 51.1289C0.289051 50.8917 0.565485 50.4782 0.875942 50.453C1.92001 50.367 2.97684 50.4215 4.10172 50.4215V39.0719C2.32829 38.5493 2.18156 38.3519 2.17944 36.5069C2.17944 36.2277 2.17944 35.9485 2.17944 35.6693C2.17944 33.9187 2.4261 33.6207 4.20166 33.2806V16.442C1.01629 15.8794 0.807897 15.7787 0.867437 14.1351C0.909965 12.9491 0.758989 11.4336 1.41818 10.6863C2.06036 9.95797 3.62327 10.0167 4.91188 9.69768C4.91188 9.10575 4.90125 8.34589 4.91188 7.58603C4.9374 5.8627 5.92406 4.89084 7.69111 4.86775C9.10518 4.85095 10.5192 4.90553 11.9291 4.83626C12.2927 4.81737 12.7669 4.5361 12.9689 4.23173C13.5664 3.33124 14.0597 2.36357 14.5807 1.41479C15.1059 0.470217 15.8672 -0.0041705 16.9836 2.76199e-05C22.6717 0.0168201 28.3599 0.0168201 34.0481 2.76199e-05C35.1155 -0.0041705 35.8555 0.482811 36.4339 1.30144C36.5551 1.47147 36.638 1.66668 36.7465 1.8472C37.3312 2.83586 37.6949 4.20444 38.5688 4.70402C39.447 5.20779 40.8313 4.85935 41.9945 4.86145C45.6732 4.86775 46.1516 5.32744 46.192 8.92733C46.1963 9.23589 46.2239 9.54235 46.2431 9.86351C47.4721 10.2938 49.1882 9.38702 49.8473 10.8228C50.3237 11.8597 50.2471 13.1821 50.2514 14.3786C50.2556 15.7975 49.7729 16.0473 46.9108 16.421V33.2659V33.2638ZM34.6456 33.2764H45.0778V16.4063H5.85176V33.4087H16.3499C16.184 30.64 16.4902 28.0435 18.3189 25.8604C20.1328 23.6963 22.457 22.5271 25.3021 22.4453C27.5391 22.3802 29.5486 23.0708 31.2837 24.4688C34.1055 26.742 34.9582 29.7962 34.6435 33.2764H34.6456ZM17.9617 50.3502H33.038V39.0572C31.3241 38.8116 31.02 38.4632 31.0158 36.8133C31.0158 36.5006 31.0158 36.1857 31.0158 35.873C31.0158 33.9544 31.1349 33.8054 33.055 33.3289C33.3697 29.9473 32.5744 27.0002 29.4401 25.1363C26.6715 23.4885 23.82 23.5872 21.162 25.3924C18.3657 27.2941 17.6406 30.0921 17.966 33.2617C19.7947 33.648 19.9924 33.8956 19.9946 35.7491C19.9946 36.0283 19.9946 36.3075 19.9946 36.5866C19.9946 38.4044 19.8011 38.6395 17.9596 39.0383V50.3523L17.9617 50.3502ZM48.6055 11.633H2.48351V14.6221H48.6076V11.633H48.6055ZM6.59388 9.91179H44.5207C44.5207 9.34084 44.5207 8.85596 44.5207 8.37318C44.5207 6.5386 44.4526 6.46933 42.6303 6.46933C31.5687 6.46933 20.507 6.46933 9.44328 6.46933C6.27492 6.46933 6.15371 6.61206 6.59388 9.91179ZM16.2797 39.0027H5.84751V50.3523H16.2797V39.0027ZM34.7455 38.9649V50.3565H45.1501V38.9649H34.7455ZM14.5594 4.77539H36.4594C35.9533 3.86859 35.577 3.03527 35.0453 2.31109C34.7838 1.95425 34.2394 1.58902 33.8205 1.58482C28.2727 1.53654 22.7249 1.54284 17.1771 1.57642C16.7943 1.57852 16.2712 1.83041 16.0586 2.13477C15.5057 2.92822 15.0868 3.81612 14.5573 4.77329L14.5594 4.77539ZM3.93373 37.2206H18.4083V35.0837H3.93373V37.2206ZM47.1106 35.0564H32.7042V37.1744H47.1106V35.0564Z" fill="#1D6B4E"/>
<path d="M43.1322 21.7903C43.1407 23.7047 41.6713 25.1698 39.7384 25.1761C37.7991 25.1824 36.3127 23.732 36.3042 21.8281C36.2957 19.9201 37.7736 18.4465 39.7001 18.4381C41.6373 18.4298 43.1258 19.8823 43.1322 21.7903ZM39.7554 20.004C38.7603 19.981 37.9224 20.7597 37.882 21.7442C37.8416 22.716 38.6305 23.5682 39.6193 23.6228C40.6166 23.6774 41.5437 22.8126 41.5544 21.8176C41.5671 20.8437 40.757 20.025 39.7554 20.004Z" fill="black"/>
<path d="M7.88037 21.7127C7.91865 19.8256 9.44967 18.3983 11.3932 18.4402C13.3049 18.4801 14.7508 19.9914 14.7104 21.9079C14.67 23.797 13.1454 25.216 11.1976 25.1782C9.28168 25.1404 7.8421 23.6354 7.8825 21.7148L7.88037 21.7127ZM13.2007 21.7567C13.1773 20.7681 12.3586 19.9914 11.3528 20.004C10.3024 20.0166 9.52197 20.85 9.56875 21.91C9.61127 22.8797 10.3874 23.6354 11.3315 23.6249C12.365 23.6144 13.2241 22.7559 13.2007 21.7567Z" fill="black"/>
</g>
<defs>
<clipPath id="clip0_456_890">
<rect width="51" height="52" fill="white"/>
</clipPath>
</defs>
</svg>
