<svg width="48" height="48" viewBox="0 0 48 48" fill="none" xmlns="http://www.w3.org/2000/svg">
<rect width="48" height="48" rx="5" fill="#D4EBDD"/>
<path d="M13 19H17.125C17.3453 19.8604 17.8457 20.623 18.5473 21.1676C19.2489 21.7122 20.1118 22.0078 21 22.0078C21.8882 22.0078 22.7511 21.7122 23.4527 21.1676C24.1543 20.623 24.6547 19.8604 24.875 19H35C35.2652 19 35.5196 18.8946 35.7071 18.7071C35.8946 18.5195 36 18.2652 36 18C36 17.7348 35.8946 17.4804 35.7071 17.2929C35.5196 17.1053 35.2652 17 35 17H24.875C24.6547 16.1396 24.1543 15.3769 23.4527 14.8323C22.7511 14.2877 21.8882 13.9921 21 13.9921C20.1118 13.9921 19.2489 14.2877 18.5473 14.8323C17.8457 15.3769 17.3453 16.1396 17.125 17H13C12.7348 17 12.4804 17.1053 12.2929 17.2929C12.1054 17.4804 12 17.7348 12 18C12 18.2652 12.1054 18.5195 12.2929 18.7071C12.4804 18.8946 12.7348 19 13 19ZM21 16C21.3956 16 21.7822 16.1173 22.1111 16.337C22.44 16.5568 22.6964 16.8692 22.8478 17.2346C22.9991 17.6001 23.0387 18.0022 22.9616 18.3902C22.8844 18.7781 22.6939 19.1345 22.4142 19.4142C22.1345 19.6939 21.7781 19.8844 21.3902 19.9615C21.0022 20.0387 20.6001 19.9991 20.2346 19.8477C19.8692 19.6964 19.5568 19.44 19.3371 19.1111C19.1173 18.7822 19 18.3955 19 18C19 17.4695 19.2107 16.9608 19.5858 16.5858C19.9609 16.2107 20.4696 16 21 16ZM35 29H32.875C32.6547 28.1396 32.1543 27.3769 31.4527 26.8323C30.7511 26.2877 29.8882 25.9921 29 25.9921C28.1118 25.9921 27.2489 26.2877 26.5473 26.8323C25.8457 27.3769 25.3453 28.1396 25.125 29H13C12.7348 29 12.4804 29.1053 12.2929 29.2929C12.1054 29.4804 12 29.7348 12 30C12 30.2652 12.1054 30.5195 12.2929 30.7071C12.4804 30.8946 12.7348 31 13 31H25.125C25.3453 31.8604 25.8457 32.623 26.5473 33.1676C27.2489 33.7122 28.1118 34.0078 29 34.0078C29.8882 34.0078 30.7511 33.7122 31.4527 33.1676C32.1543 32.623 32.6547 31.8604 32.875 31H35C35.2652 31 35.5196 30.8946 35.7071 30.7071C35.8946 30.5195 36 30.2652 36 30C36 29.7348 35.8946 29.4804 35.7071 29.2929C35.5196 29.1053 35.2652 29 35 29ZM29 32C28.6044 32 28.2178 31.8827 27.8889 31.6629C27.56 31.4431 27.3036 31.1308 27.1522 30.7653C27.0009 30.3999 26.9613 29.9978 27.0384 29.6098C27.1156 29.2218 27.3061 28.8655 27.5858 28.5858C27.8655 28.3061 28.2219 28.1156 28.6098 28.0384C28.9978 27.9612 29.3999 28.0008 29.7654 28.1522C30.1308 28.3036 30.4432 28.5599 30.6629 28.8888C30.8827 29.2177 31 29.6044 31 30C31 30.5304 30.7893 31.0391 30.4142 31.4142C30.0391 31.7893 29.5304 32 29 32Z" fill="#19BC66"/>
</svg>
