<svg width="86" height="80" viewBox="0 0 86 80" fill="none" xmlns="http://www.w3.org/2000/svg">
<rect width="86" height="80" rx="25" fill="#CFEACB"/>
<path d="M13.7119 65V63.8926L15.1445 63.6465V53.5654L13.7119 53.3193V52.2031H15.1445H16.876H18.3086V53.3193L16.876 53.5654V63.6729H21.4023L21.6045 61.6514H22.9316V65H13.7119ZM28.7588 65.1846C27.8799 65.1846 27.1211 64.9795 26.4824 64.5693C25.8496 64.1533 25.3604 63.582 25.0146 62.8555C24.6689 62.123 24.4961 61.2881 24.4961 60.3506V60.1572C24.4961 59.2197 24.6689 58.3877 25.0146 57.6611C25.3604 56.9287 25.8496 56.3545 26.4824 55.9385C27.1211 55.5225 27.874 55.3145 28.7412 55.3145C29.6201 55.3145 30.376 55.5225 31.0088 55.9385C31.6475 56.3545 32.1396 56.9258 32.4854 57.6523C32.8311 58.3789 33.0039 59.2139 33.0039 60.1572V60.3506C33.0039 61.2939 32.8311 62.1318 32.4854 62.8643C32.1396 63.5908 31.6504 64.1592 31.0176 64.5693C30.3848 64.9795 29.6318 65.1846 28.7588 65.1846ZM28.7588 63.8311C29.3096 63.8311 29.7695 63.6816 30.1387 63.3828C30.5137 63.0781 30.7949 62.665 30.9824 62.1436C31.1758 61.6162 31.2725 61.0186 31.2725 60.3506V60.1572C31.2725 59.4893 31.1758 58.8945 30.9824 58.373C30.7949 57.8457 30.5137 57.4326 30.1387 57.1338C29.7637 56.8291 29.2979 56.6768 28.7412 56.6768C28.1904 56.6768 27.7275 56.8291 27.3525 57.1338C26.9775 57.4326 26.6963 57.8457 26.5088 58.373C26.3213 58.8945 26.2275 59.4893 26.2275 60.1572V60.3506C26.2275 61.0186 26.3213 61.6162 26.5088 62.1436C26.6963 62.665 26.9775 63.0781 27.3525 63.3828C27.7334 63.6816 28.2021 63.8311 28.7588 63.8311ZM38.8311 68.8408C38.374 68.8408 37.8789 68.7764 37.3457 68.6475C36.8125 68.5244 36.3438 68.3545 35.9395 68.1377L36.3877 66.793C36.71 66.9629 37.0908 67.1035 37.5303 67.2148C37.9697 67.3262 38.3975 67.3818 38.8135 67.3818C39.5869 67.3818 40.1523 67.165 40.5098 66.7314C40.873 66.2979 41.0547 65.6797 41.0547 64.877V63.9717C40.7441 64.3701 40.3721 64.6719 39.9385 64.877C39.5049 65.082 39.0068 65.1846 38.4443 65.1846C37.6709 65.1846 37.0029 64.9941 36.4404 64.6133C35.8779 64.2266 35.4443 63.6904 35.1396 63.0049C34.8408 62.3135 34.6914 61.5137 34.6914 60.6055V60.4209C34.6914 59.4014 34.8408 58.5078 35.1396 57.7402C35.4443 56.9727 35.8779 56.3779 36.4404 55.9561C37.0029 55.5283 37.6768 55.3145 38.4619 55.3145C39.0596 55.3145 39.584 55.4316 40.0352 55.666C40.4863 55.9004 40.8643 56.2402 41.1689 56.6855L41.3271 55.4902H42.7861V64.877C42.7861 65.6973 42.6309 66.4033 42.3203 66.9951C42.0156 67.5869 41.5674 68.041 40.9756 68.3574C40.3896 68.6797 39.6748 68.8408 38.8311 68.8408ZM38.875 63.7783C39.3965 63.7783 39.833 63.6611 40.1846 63.4268C40.5361 63.1865 40.8262 62.8496 41.0547 62.416V58.0391C40.832 57.6348 40.542 57.3154 40.1846 57.0811C39.8271 56.8408 39.3965 56.7207 38.8926 56.7207C38.3418 56.7207 37.8818 56.8789 37.5127 57.1953C37.1494 57.5117 36.877 57.9482 36.6953 58.5049C36.5137 59.0557 36.4229 59.6943 36.4229 60.4209V60.6055C36.4229 61.5605 36.625 62.3281 37.0293 62.9082C37.4336 63.4883 38.0488 63.7783 38.875 63.7783ZM42.5225 56.9053L41.8457 55.4902H43.9639V56.5977L42.5225 56.9053ZM49.0791 65.1846C48.2002 65.1846 47.4414 64.9795 46.8027 64.5693C46.1699 64.1533 45.6807 63.582 45.335 62.8555C44.9893 62.123 44.8164 61.2881 44.8164 60.3506V60.1572C44.8164 59.2197 44.9893 58.3877 45.335 57.6611C45.6807 56.9287 46.1699 56.3545 46.8027 55.9385C47.4414 55.5225 48.1943 55.3145 49.0615 55.3145C49.9404 55.3145 50.6963 55.5225 51.3291 55.9385C51.9678 56.3545 52.46 56.9258 52.8057 57.6523C53.1514 58.3789 53.3242 59.2139 53.3242 60.1572V60.3506C53.3242 61.2939 53.1514 62.1318 52.8057 62.8643C52.46 63.5908 51.9707 64.1592 51.3379 64.5693C50.7051 64.9795 49.9521 65.1846 49.0791 65.1846ZM49.0791 63.8311C49.6299 63.8311 50.0898 63.6816 50.459 63.3828C50.834 63.0781 51.1152 62.665 51.3027 62.1436C51.4961 61.6162 51.5928 61.0186 51.5928 60.3506V60.1572C51.5928 59.4893 51.4961 58.8945 51.3027 58.373C51.1152 57.8457 50.834 57.4326 50.459 57.1338C50.084 56.8291 49.6182 56.6768 49.0615 56.6768C48.5107 56.6768 48.0479 56.8291 47.6729 57.1338C47.2979 57.4326 47.0166 57.8457 46.8291 58.373C46.6416 58.8945 46.5479 59.4893 46.5479 60.1572V60.3506C46.5479 61.0186 46.6416 61.6162 46.8291 62.1436C47.0166 62.665 47.2979 63.0781 47.6729 63.3828C48.0537 63.6816 48.5225 63.8311 49.0791 63.8311ZM58.8438 65.1846C57.8125 65.1846 57.0068 64.8535 56.4268 64.1914C55.8467 63.5293 55.5566 62.498 55.5566 61.0977V56.8525L54.4668 56.6064V55.4902H55.5566H57.2881V61.1152C57.2881 62.1289 57.4375 62.8262 57.7363 63.207C58.0352 63.5879 58.501 63.7783 59.1338 63.7783C59.749 63.7783 60.2559 63.6553 60.6543 63.4092C61.0586 63.1572 61.3633 62.8027 61.5684 62.3457V56.8525L60.2939 56.6064V55.4902H61.5684H63.2998V63.6465L64.3896 63.8926V65H61.7441L61.6299 63.5938C61.3311 64.1035 60.9443 64.4961 60.4697 64.7715C60.001 65.0469 59.459 65.1846 58.8438 65.1846ZM68.9688 65.1494C68.2656 65.1494 67.7061 64.9443 67.29 64.5342C66.8799 64.1182 66.6748 63.4561 66.6748 62.5479V56.7734H65.1719V55.4902H66.6748V53.1963H68.4062V55.4902H70.4717V56.7734H68.4062V62.5479C68.4062 63.0049 68.4971 63.3418 68.6787 63.5586C68.8604 63.7754 69.1035 63.8838 69.4082 63.8838C69.6133 63.8838 69.8418 63.8662 70.0938 63.8311C70.3457 63.79 70.542 63.7549 70.6826 63.7256L70.9199 64.8594C70.668 64.9355 70.3574 65.0029 69.9883 65.0615C69.625 65.1201 69.2852 65.1494 68.9688 65.1494Z" fill="black"/>
<path d="M41 35C41 35.2652 40.8946 35.5196 40.7071 35.7071C40.5196 35.8946 40.2652 36 40 36H33C32.4696 36 31.9609 35.7893 31.5858 35.4142C31.2107 35.0391 31 34.5304 31 34V14C31 13.4696 31.2107 12.9609 31.5858 12.5858C31.9609 12.2107 32.4696 12 33 12H40C40.2652 12 40.5196 12.1054 40.7071 12.2929C40.8946 12.4804 41 12.7348 41 13C41 13.2652 40.8946 13.5196 40.7071 13.7071C40.5196 13.8946 40.2652 14 40 14H33V34H40C40.2652 34 40.5196 34.1054 40.7071 34.2929C40.8946 34.4804 41 34.7348 41 35ZM54.7075 23.2925L49.7075 18.2925C49.5199 18.1049 49.2654 17.9994 49 17.9994C48.7346 17.9994 48.4801 18.1049 48.2925 18.2925C48.1049 18.4801 47.9994 18.7346 47.9994 19C47.9994 19.2654 48.1049 19.5199 48.2925 19.7075L51.5863 23H40C39.7348 23 39.4804 23.1054 39.2929 23.2929C39.1054 23.4804 39 23.7348 39 24C39 24.2652 39.1054 24.5196 39.2929 24.7071C39.4804 24.8946 39.7348 25 40 25H51.5863L48.2925 28.2925C48.1049 28.4801 47.9994 28.7346 47.9994 29C47.9994 29.2654 48.1049 29.5199 48.2925 29.7075C48.4801 29.8951 48.7346 30.0006 49 30.0006C49.2654 30.0006 49.5199 29.8951 49.7075 29.7075L54.7075 24.7075C54.8005 24.6146 54.8742 24.5043 54.9246 24.3829C54.9749 24.2615 55.0008 24.1314 55.0008 24C55.0008 23.8686 54.9749 23.7385 54.9246 23.6171C54.8742 23.4957 54.8005 23.3854 54.7075 23.2925Z" fill="#19BC66"/>
</svg>
