<svg width="151" height="183" viewBox="0 0 151 183" fill="none" xmlns="http://www.w3.org/2000/svg">
<g clip-path="url(#clip0_223_16597)">
<path d="M72.1084 48.4761C71.2225 51.9028 70.3366 55.3355 69.4568 58.7621C68.7772 59.126 68.0916 59.4959 67.412 59.8598C67.6304 55.9116 67.6183 52.0483 63.5712 49.7073C63.4134 49.1129 63.0069 48.7551 62.4426 48.5489L62.4062 48.5125C62.0421 48.0516 61.672 47.5967 61.3079 47.1358C60.1005 45.5954 58.8081 44.1337 57.2365 42.939C55.0704 39.5548 52.1457 36.8499 49.4638 33.6901C42.6559 43.6728 36.928 53.9102 31.9829 64.5964C31.4975 65.6396 31.722 66.5008 31.9708 67.4833C33.5362 73.6997 37.1525 77.7753 43.7117 78.8124C43.6692 79.2005 43.6328 79.5887 43.5903 79.9829C42.395 79.9829 41.1997 79.989 40.0043 79.995C34.1066 80.0254 31.6431 82.4331 31.5339 88.2674C24.2891 86.2479 22.0683 76.5199 27.7416 71.3223C29.0037 70.164 28.9126 69.4726 28.0935 68.205C23.1059 60.5148 21.0004 52.297 23.7066 43.2301C24.0888 41.9565 24.5257 40.7435 25.4359 39.7489C31.0242 33.6537 36.6975 27.6556 43.5843 22.9432C46.1691 21.1784 48.5234 20.9904 50.9504 23.0585C52.0911 30.7608 62.1271 46.5475 72.0962 48.4822L72.1084 48.4761Z" fill="#2E3643"/>
<path d="M71.3437 136.944C73.1882 145.689 75.0146 154.441 76.9016 163.18C77.2536 164.812 77.0291 165.503 75.1178 165.479C64.6389 165.37 54.16 165.376 43.6812 165.345C39.179 156.6 38.469 147.363 40.3197 144.579C41.333 149.85 42.504 154.993 46.4238 159.014C43.8207 152.658 42.3766 146.193 43.311 139.297C43.6084 139.364 43.76 139.364 43.7843 139.412C43.9724 139.861 44.1848 140.304 44.3122 140.771C46.0233 147.205 48.9843 152.943 53.7899 157.637C54.4998 158.328 55.2279 159.838 56.4415 158.626C57.5943 157.479 55.9682 156.958 55.4282 156.297C50.3192 150.044 48.1106 142.687 46.7817 134.712C55.3068 138.157 56.2412 138.46 62.1208 138.126C65.2093 137.951 68.2734 137.35 71.3437 136.944Z" fill="#31BE8A"/>
<path d="M57.2485 42.9389C58.814 44.1337 60.1064 45.5953 61.3139 47.1358C61.2593 47.9302 61.5808 48.4215 62.4121 48.5125L62.4485 48.5489C62.5092 49.2402 62.8672 49.6405 63.5771 49.7072C67.6242 52.0483 67.6364 55.9116 67.4179 59.8598C67.3815 60.1145 67.3451 60.3692 67.3087 60.6239C64.4144 61.2304 61.411 64.3235 61.3017 66.9071C61.1804 69.8243 63.116 70.9038 65.5552 71.48C64.7542 74.2031 62.2362 75.3736 60.246 76.817C58.1769 78.315 57.9281 79.7342 58.9232 81.7659C58.5288 85.1198 58.2497 88.4979 56.569 91.5424C52.2427 89.7957 51.5935 88.043 53.8749 83.9492C54.5545 82.7302 55.4343 81.6143 56.2534 80.4741C56.7631 79.7706 57.8492 79.2611 57.4306 78.224C56.9876 77.1324 55.8348 77.5387 55.0096 77.5872C50.2829 77.8662 46.0901 76.2833 42.0976 74.0029C36.0238 70.5278 34.2278 60.4359 38.7664 55.0989C39.0152 57.4884 38.3842 60.0842 40.6535 61.8308C42.0308 63.5229 43.3718 63.8201 44.6581 61.7338C47.1519 59.5747 46.8486 53.9829 43.8451 52.0725C41.3634 50.4896 41.8549 49.0886 43.299 47.251C45.2163 44.8069 47.1883 42.3809 48.8569 39.767C50.1251 37.7899 51.0534 37.9779 52.6007 39.4152C54.0145 40.7252 54.87 42.8722 57.2485 42.9328V42.9389ZM50.3496 62.9892C50.0948 65.3302 51.8908 64.0809 52.6735 64.1597C54.2632 64.3235 53.7657 63.2561 53.3834 62.407C53.1529 61.376 53.0558 59.9143 51.6663 60.1691C50.4163 60.3995 49.4698 61.4305 50.3496 62.9831V62.9892ZM43.8026 69.048C43.299 69.242 41.7335 68.393 42.5587 69.9092C44.9372 74.3001 54.1237 74.4881 56.8602 70.2791C57.2425 69.6908 58.0737 68.8418 56.5022 68.5931C52.2427 68.0048 48.05 69.2784 43.8026 69.048ZM60.5311 59.3867C63.0068 57.0093 62.0723 54.3347 61.0772 51.745C60.161 49.3555 58.2861 49.1189 56.7085 51.0658C55.3312 52.7578 55.495 56.8759 57.0119 58.8166C57.9827 60.2418 59.0203 61.285 60.5311 59.3928V59.3867Z" fill="#F3BD9B"/>
<path d="M56.569 91.5485C58.2437 88.5039 58.5289 85.1258 58.9233 81.772C62.4486 82.7848 66.2348 82.5119 69.6631 84.0705C70.9251 84.6467 72.2782 85.0288 73.4189 85.8597C73.3583 86.5389 73.2976 87.2243 73.2369 87.9035C70.9676 88.2128 69.4143 89.1892 68.9774 91.7001C68.6922 93.3558 68.0187 94.963 67.3937 96.5398C64.6512 103.429 61.7265 110.216 55.8834 115.201L55.762 115.08C55.9137 112.496 57.8614 110.804 58.9476 108.682C61.8661 102.962 65.3065 97.4556 66.1438 90.8995C66.5807 90.6266 66.7809 90.2506 66.611 89.7351C66.5868 89.6684 66.4593 89.632 66.3865 89.5835C66.3016 90.0201 66.2227 90.4568 66.1377 90.8935C65.2943 91.2149 65.0456 92.0094 64.633 92.7008C58.8929 102.307 56.0957 113.819 46.3086 120.811C44.998 121.751 45.4349 122.879 46.8061 123.65C47.7284 124.171 48.7053 124.274 49.7247 124.226C55.04 126.664 60.3613 126.67 65.6887 124.286C67.8731 124.359 69.3597 122.54 71.3863 122.188C71.447 124.068 71.5137 125.942 71.5744 127.822C70.3912 127.064 71.6229 125.451 70.2213 124.426C63.2677 130.624 55.4708 128.738 47.5343 126.415C51.1749 130.181 55.6225 131.673 61.4353 131.607C55.9562 133.117 51.8787 130.733 46.9032 128.975C49.306 132.595 52.3459 133.481 55.2341 134.512C60.4523 136.38 65.7251 135.294 70.9737 134.56C70.9919 134.76 70.9979 134.96 70.9858 135.161C59.348 138.975 49.3424 136.355 40.9569 127.519C38.6573 130.903 36.8673 134.493 35.2108 138.132C31.2729 146.775 28.233 155.654 29.2038 165.394C27.1105 165.788 26.6251 164.763 26.6736 162.859C26.8496 156.115 28.3058 149.559 29.4951 142.96C30.4234 137.817 31.6006 132.747 34.8589 128.435C35.5992 127.458 35.2108 126.336 34.8468 125.257C33.9366 122.6 35.2351 120.89 37.3102 119.41C39.2822 118.003 40.7081 119.149 42.1947 120.193C43.1655 120.872 44.2759 122.503 44.5247 119.72C47.1945 116.341 48.9662 112.472 50.6591 108.554L50.9746 107.256C51.6299 106.571 52.0365 105.77 52.1578 104.83C53.2197 102.914 54.0873 100.925 54.5182 98.7656C55.1371 96.9583 55.756 95.151 56.3809 93.3437L56.5812 91.5485H56.569ZM46.1266 128.471C46.2115 128.52 46.2904 128.562 46.3753 128.611C46.2904 128.568 46.1994 128.526 46.1144 128.483C46.0356 128.435 45.9567 128.386 45.8839 128.338C45.9627 128.38 46.0477 128.429 46.1266 128.471Z" fill="#CCCDCB"/>
<path d="M107.98 0.0363383C109.874 0.224348 111.767 0.466941 113.666 0.576108C114.843 0.642821 115.019 1.35847 115.371 2.27426C115.941 3.75408 115.492 5.5432 116.675 6.75616C118.599 5.32487 116.536 1.2675 120.48 1.19472C122.701 1.15227 125.219 0.988516 126.893 2.25606C128.459 3.44477 127.543 6.27098 128.829 8.04191C130.352 6.02232 128.956 1.78301 133.556 2.37736C135.516 2.63208 138.028 1.83759 139.186 3.63884C140.169 5.16718 140.036 7.41116 140.418 9.46714C141.65 9.01228 141.207 7.98732 141.577 7.36265C142.287 6.14968 141.601 4.10584 143.592 3.67523C145.922 3.16579 148.203 3.8875 150.424 4.42727C151.486 4.68806 150.806 5.77366 150.539 6.48931C148.864 10.9955 147.184 15.5016 145.509 20.0078C144.702 20.0321 143.889 19.9835 143.094 20.0866C138.828 20.6385 137.56 19.4377 138.464 15.2227C138.95 12.9544 139.011 10.7711 138.549 8.52709C138.653 11.3472 137.566 14.0643 137.736 16.8541C137.876 19.2194 136.674 19.65 134.793 19.3346C132.919 19.0192 131.062 18.2308 129.199 18.249C126.408 18.2733 126.062 16.842 126.165 14.6162C126.287 11.978 127.433 9.3701 126.408 6.29524C126.099 9.24881 125.619 11.8264 125.619 14.3978C125.619 17.0603 124.618 17.1452 122.47 16.4356C117.689 14.8588 114.867 10.9409 111.554 7.6295C109.497 5.57959 109.133 2.58963 107.98 0.0302734V0.0363383Z" fill="#E0D9AB"/>
<path d="M29.1917 165.388C28.2209 155.648 31.2547 146.769 35.1987 138.126C36.8552 134.494 38.6452 130.897 40.9448 127.513C49.3303 136.349 59.3359 138.975 70.9737 135.155C71.1011 135.749 71.2225 136.343 71.3499 136.938C68.2736 137.344 65.2094 137.944 62.127 138.12C56.2414 138.46 55.307 138.157 46.788 134.706C48.1229 142.681 50.3254 150.038 55.4344 156.291C55.9744 156.952 57.5945 157.467 56.4477 158.619C55.2342 159.832 54.506 158.322 53.7961 157.631C48.9905 152.943 46.0295 147.205 44.3184 140.765C44.1971 140.298 43.9847 139.855 43.7905 139.406C43.7663 139.358 43.6206 139.358 43.3173 139.291C42.3828 146.187 43.833 152.652 46.43 159.008C42.5103 154.987 41.3392 149.844 40.3259 144.573C38.4753 147.357 39.1852 156.594 43.6874 165.339C38.8575 165.351 34.0277 165.37 29.1978 165.382L29.1917 165.388Z" fill="#26B27B"/>
<path d="M17.5962 170.791C14.532 169.821 14.1922 171.44 14.35 173.951C14.4835 176.104 15.0599 178.106 15.7759 180.077C16.5161 182.121 15.6788 182.897 13.7371 182.97C13.1364 182.994 12.5297 183.018 11.929 182.976C8.51289 182.745 8.03354 182.145 8.53109 178.779L8.51289 178.803C9.18033 178.615 9.15606 178.106 9.09538 177.578C10.1269 177.008 11.4921 176.735 11.5042 175.188C11.5285 169.942 11.5164 164.696 11.5164 159.45C9.13785 163.101 8.54322 167.225 7.12946 171.174C7.66341 169.014 5.53973 167.007 7.11125 164.793C7.48138 164.278 7.71802 163.059 6.66831 162.762C5.79457 162.519 5.59434 163.465 5.43051 164.144C4.70239 167.256 3.7619 170.331 3.7619 173.569C2.72433 174.491 1.68676 175.407 0.394344 176.559C-0.934476 165.982 0.87369 156.436 8.48861 148.473C8.70705 148.667 8.91942 148.867 9.13786 149.061C9.57473 150.056 10.048 151.038 10.4303 152.051C11.0006 153.573 12.1656 154.465 13.6401 153.962C15.2237 153.422 16.7406 153.398 18.3243 153.489C20.1385 152.239 19.2527 150.329 19.5014 148.691L21.2611 148.382C21.6494 148.37 22.0377 148.352 22.426 148.339L22.4443 148.558C22.4625 149.571 22.5171 150.553 21.6919 151.372C20.1203 152.931 19.4529 154.962 19.1131 157.055C18.3728 161.603 17.5052 166.146 17.5901 170.785L17.5962 170.791Z" fill="#66B3D0"/>
<path d="M54.5061 98.7596C54.0753 100.919 53.2076 102.908 52.1458 104.824C46.1327 105.552 42.0249 102.374 38.2872 97.2737C38.2569 100.634 39.8163 102.696 40.0651 105.073C36.3759 109.294 32.5533 113.406 29.0401 117.761C26.5888 120.799 26.9346 124.941 25.5148 128.429C25.0051 129.684 25.2175 131.255 23.8947 132.165C22.4021 131.934 20.9155 131.71 19.4229 131.479C19.6534 130.503 19.8051 129.502 20.1328 128.562C21.8985 123.45 22.1594 117.827 25.0476 113.127C28.9855 106.705 33.1965 100.446 37.2193 94.0715C37.9171 92.9738 38.3358 92.6584 39.4765 93.6106C43.8088 97.2434 48.8328 98.9901 54.5122 98.7657L54.5061 98.7596Z" fill="#31BE8A"/>
<path d="M107.98 0.0364369C109.133 2.59579 109.497 5.57969 111.554 7.63566C114.873 10.941 117.694 14.8649 122.47 16.4418C124.618 17.1514 125.625 17.0665 125.619 14.404C125.619 11.8325 126.098 9.25497 126.408 6.3014C127.427 9.37627 126.286 11.9841 126.165 14.6223C126.062 16.8481 126.408 18.2794 129.199 18.2552C131.061 18.237 132.918 19.0254 134.793 19.3408C136.674 19.6561 137.875 19.2255 137.736 16.8603C137.572 14.0644 138.652 11.3534 138.549 8.53326C139.01 10.7772 138.949 12.9606 138.464 15.2288C137.56 19.4439 138.828 20.6508 143.094 20.0928C143.889 19.9897 144.702 20.0322 145.509 20.014C145.903 22.0032 144.52 23.5983 144.289 25.4481C132.773 24.696 121.28 23.6953 109.813 22.3611C108.702 15.6594 107.628 8.94566 106.463 2.25616C106.22 0.873383 106.008 -0.218286 107.98 0.0485665V0.0364369Z" fill="#D2C78E"/>
<path d="M73.2306 87.9035C73.2913 87.2243 73.3519 86.539 73.4126 85.8597C76.8469 86.9574 80.3116 87.9581 83.6973 89.1893C85.0504 89.6805 86.1244 89.6199 87.4047 89.0377C93.2539 86.3691 98.7573 83.0759 104.376 79.9768C105.796 79.1944 107.046 77.6722 109.006 78.4545C109.861 79.9768 110.723 81.4991 111.578 83.0153C106.779 85.1986 102.537 88.3766 98.6117 91.6941C93.3692 96.1214 88.1995 97.4374 82.0044 94.4535C81.7375 94.3262 81.4341 94.2473 81.1489 94.1624C73.6371 91.876 73.4066 92.0519 73.4187 99.9786C73.358 100.991 73.2973 102.01 73.2367 103.023C71.3982 103.114 69.9176 104.818 67.9214 104.218C70.6518 99.0931 73.2124 93.9077 73.2427 87.9035H73.2306Z" fill="#31BE8A"/>
<path d="M54.5057 98.7595C48.8264 98.9839 43.8023 97.2373 39.47 93.6044C38.3293 92.6522 37.9106 92.9616 37.2128 94.0654C33.1839 100.439 28.979 106.698 25.0411 113.121C22.159 117.821 21.892 123.449 20.1263 128.556C19.7986 129.496 19.6469 130.503 19.4164 131.473C18.039 131.698 17.056 130.764 15.9214 130.291C16.5342 126.233 17.0439 122.164 17.7902 118.131C18.6397 113.515 21.8859 110.155 24.3554 106.413C28.1538 100.658 32.3284 95.1449 35.7748 89.1589C37.2371 88.049 39.3244 88.2734 40.6593 86.8846C41.1932 86.8421 41.7333 86.8058 42.2672 86.7633C46.1748 92.9798 49.5363 94.5505 56.3624 93.3376C55.7435 95.1449 55.1246 96.9522 54.4996 98.7595H54.5057Z" fill="#2BB37D"/>
<path d="M72.1082 48.4761C62.139 46.5414 52.1031 30.7608 50.9624 23.0524C58.5652 27.043 65.4459 31.9555 71.0343 38.5541C73.6312 41.6168 73.3582 44.9949 72.1082 48.4761Z" fill="#3F4756"/>
<path d="M109.813 22.355C121.275 23.6892 132.773 24.6899 144.289 25.442C144.775 25.8241 145.794 25.3813 145.806 26.4912C145.836 29.1658 143.597 31.1126 140.855 31.0095C136.771 30.8639 132.742 29.8754 128.629 30.2696C127.251 29.184 125.613 29.9421 124.132 29.6267C119.721 29.2143 115.31 28.7473 110.893 28.4137C107.471 28.159 108.903 25.2236 108.168 23.5498C107.483 21.979 109.133 22.6158 109.807 22.355H109.813Z" fill="#2E3643"/>
<path d="M73.413 99.9786C73.4008 92.0518 73.6314 91.882 81.1432 94.1624C81.4344 94.2473 81.7318 94.3262 81.9987 94.4535C88.1938 97.4374 93.3635 96.1213 98.6059 91.694C102.538 88.3766 106.779 85.1925 111.573 83.0153C112.137 83.8461 112.701 84.671 113.271 85.5018C110.019 89.2802 105.693 91.7122 101.67 94.4717C91.3065 101.574 91.2459 101.452 78.7647 100.1C77.0111 99.9119 75.209 99.1962 73.413 99.9786Z" fill="#2BB37D"/>
<path d="M121.936 85.9627C120.716 95.4299 119.479 104.891 118.283 114.364C116.293 130.109 114.266 145.847 112.422 161.609C112.125 164.126 111.214 164.46 109.194 163.641C110.007 157.807 110.85 151.978 111.621 146.138C112.543 139.103 113.393 132.061 114.297 125.026C115.62 114.722 116.815 104.4 118.392 94.1321C118.914 90.754 117.822 86.7208 121.36 84.1797C121.997 84.6345 121.705 85.3866 121.936 85.9688V85.9627Z" fill="#8A5B32"/>
<path d="M71.3803 122.188C69.3537 122.54 67.8671 124.353 65.6828 124.286C61.1624 124.347 56.6177 124.505 52.6494 121.739C57.2305 117.36 61.5507 112.745 65.4765 107.766C67.8489 109.179 70.2517 108.433 72.6545 107.863C72.2298 112.642 71.799 117.415 71.3742 122.194L71.3803 122.188Z" fill="#31BE8A"/>
<path d="M121.359 84.1737C117.822 86.7148 118.914 90.7479 118.392 94.126C116.815 104.388 115.619 114.716 114.297 125.02C113.393 132.055 112.549 139.097 111.621 146.132C110.85 151.972 110.007 157.801 109.194 163.635C107.113 163.835 107.853 162.404 107.974 161.433C109.072 152.257 110.189 143.081 111.317 133.905C113.035 119.95 114.77 105.995 116.487 92.0397C116.754 89.8443 116.96 87.6427 117.191 85.4412C117.531 83.082 117.871 80.7228 118.21 78.3636C118.332 77.5448 117.919 76.4653 119.302 76.2833C120.759 76.0953 120.71 77.2476 121.147 78.1149C122.16 80.1345 121.311 82.1541 121.359 84.1676V84.1737Z" fill="#6E4323"/>
<path d="M70.9552 134.56C65.7067 135.294 60.4399 136.38 55.2157 134.512C52.3275 133.481 49.2936 132.595 46.8848 128.975C51.8603 130.733 55.9377 133.117 61.4168 131.607C55.604 131.679 51.1564 130.181 47.5158 126.415C55.4523 128.738 63.2493 130.624 70.2028 124.426C71.6044 125.445 70.3788 127.064 71.5559 127.822C70.4941 129.993 71.1736 132.316 70.9491 134.56H70.9552Z" fill="#E4E6E4"/>
<path d="M17.5964 170.792C17.5054 166.146 18.3791 161.609 19.1194 157.061C19.4592 154.962 20.1266 152.931 21.6981 151.378C22.5233 150.559 22.4748 149.571 22.4505 148.564C25.0293 153.476 25.8181 158.759 25.4904 164.211C25.1385 170.015 23.6701 171.149 17.6025 170.798L17.5964 170.792Z" fill="#73BDD8"/>
<path d="M40.0649 105.073C39.8161 102.696 38.2567 100.634 38.2871 97.2737C42.0187 102.374 46.1326 105.552 52.1456 104.824C52.0243 105.764 51.6177 106.571 50.9624 107.25H44.6884C44.6642 107.372 44.646 107.487 44.6217 107.608C46.6301 107.924 48.6385 108.233 50.6469 108.548C48.954 112.466 47.1823 116.329 44.5125 119.714C43.2383 114.771 42.0187 109.81 40.0649 105.067V105.073Z" fill="#2BB37D"/>
<path d="M124.133 29.6267C125.619 29.9421 127.257 29.184 128.629 30.2696C128.483 31.3006 128.871 32.4287 128.028 33.3202C125.51 33.7508 125.874 35.9038 125.613 37.5656C125.225 40.0339 125.116 42.5448 124.794 45.0253C123.659 53.6434 122.482 62.2555 121.317 70.8736C120.638 71.474 119.879 71.6802 119.018 71.3345C119.145 70.5885 119.697 69.885 119.272 69.0723C120.892 55.9238 122.513 42.7752 124.133 29.6267Z" fill="#6E4323"/>
<path d="M3.76807 173.569C3.76807 170.331 4.70249 167.256 5.43668 164.144C5.59443 163.471 5.79467 162.519 6.67448 162.762C7.72419 163.059 7.48755 164.272 7.11742 164.793C5.54589 167.001 7.66958 169.015 7.13562 171.174C8.54332 167.225 9.13795 163.101 11.5225 159.45C11.5225 164.696 11.5347 169.942 11.5104 175.189C11.5043 176.729 10.1331 177.008 9.10155 177.578C8.56152 177.821 8.18533 178.148 8.51905 178.803L8.53725 178.779C4.91486 180.01 4.81171 179.901 4.80564 175.613C4.80564 174.831 5.65511 173.46 3.77413 173.563L3.76807 173.569Z" fill="#73BDD8"/>
<path d="M22.4262 148.333C22.0379 148.346 21.6495 148.364 21.2612 148.376C21.1823 147.127 21.0185 145.92 19.5016 145.143V148.685C19.2589 150.323 20.1387 152.233 18.3245 153.483C17.1534 152.136 16.3221 150.571 15.3513 148.17C15.2846 150.547 14.7021 151.123 13.1245 150.238C11.917 149.559 10.576 149.086 9.13801 149.055C8.91957 148.861 8.70721 148.661 8.48877 148.467C8.50697 147.854 8.53124 147.248 8.54945 146.635C9.82972 146.732 10.57 147.891 11.7107 148.255C12.3417 148.455 13.0759 149.31 13.6038 148.691C15.1389 146.872 16.5527 144.943 17.8876 142.972C18.8281 141.577 17.0806 141.213 16.668 140.322C16.4738 139.897 16.4374 139.351 16.492 138.878C16.9228 134.985 19.1557 133.208 23.2453 133.456C23.1543 134.669 22.6204 135.743 22.2563 136.877C21.4918 139.273 19.6533 141.602 22.1714 144.258C22.8873 145.016 22.3716 146.945 22.4262 148.333Z" fill="#F3BD9B"/>
<path d="M23.2516 133.456C19.1619 133.202 16.929 134.979 16.4982 138.878C16.4436 139.351 16.48 139.903 16.6742 140.322C17.0807 141.213 18.8343 141.577 17.8938 142.972C16.565 144.949 15.1452 146.878 13.61 148.691C13.0882 149.31 12.354 148.455 11.7169 148.255C10.5762 147.891 9.83594 146.732 8.55566 146.635C8.22194 145.046 9.38087 144.173 10.3335 143.366C13.5069 140.698 15.1694 137.38 15.2908 133.232C15.3211 132.25 15.7034 131.273 15.9279 130.291C17.0686 130.764 18.0516 131.698 19.4229 131.473C20.9155 131.704 22.4021 131.928 23.8947 132.159C23.6824 132.589 23.4639 133.02 23.2455 133.45L23.2516 133.456Z" fill="#ECA47C"/>
<path d="M121.317 70.8736C122.476 62.2555 123.659 53.6434 124.794 45.0253C125.121 42.5448 125.231 40.034 125.613 37.5656C125.874 35.9038 125.51 33.7508 128.028 33.3202C127.579 41.6229 126.116 49.8105 125.206 58.0586C124.757 62.1281 124.26 66.1976 123.786 70.261C123.58 70.3096 123.374 70.3581 123.174 70.4066C122.555 70.5582 121.936 70.7159 121.323 70.8675L121.317 70.8736Z" fill="#8A5B32"/>
<path d="M40.6595 86.8846C39.3247 88.2674 37.2374 88.049 35.7751 89.1528C34.3674 88.8496 32.808 89.2317 31.5459 88.2553C31.6551 82.4209 34.1186 80.0132 40.0164 79.9828C41.2117 79.9768 42.407 79.9768 43.6024 79.9707C43.8997 82.8151 41.7153 84.6103 40.6595 86.8846Z" fill="#3F4756"/>
<path d="M121.317 70.8735C121.936 70.7219 122.555 70.5642 123.168 70.4126C123.319 74.4639 124.867 78.3636 124.387 82.4877C124.217 83.9553 124.49 85.5686 122.525 86.072C122.33 86.0174 122.136 85.981 121.936 85.9689C121.705 85.3867 121.997 84.6346 121.36 84.1798C121.317 82.1662 122.16 80.1466 121.147 78.1271C120.71 77.2598 120.759 76.1014 119.303 76.2955C117.919 76.4774 118.326 77.557 118.21 78.3757C117.865 80.7349 117.531 83.0941 117.191 85.4534C117.021 85.3685 116.93 85.235 116.912 85.0531C116.936 80.4802 115.662 75.7133 118.963 71.6438C119.017 71.577 118.999 71.4497 119.017 71.3526C119.885 71.6983 120.644 71.4921 121.317 70.8917V70.8735Z" fill="#ECA47C"/>
<path d="M119.017 71.3345C118.999 71.4315 119.017 71.5589 118.963 71.6256C115.662 75.6951 116.93 80.462 116.912 85.0349C115.965 84.9743 115.019 84.9197 114.072 84.859C112.561 81.96 112.919 78.8185 112.798 75.7193C112.713 73.4329 112.913 71.5589 115.51 70.7158C116.724 70.3216 117.136 68.9995 117.658 67.9078C118.198 68.296 118.732 68.6841 119.272 69.0783C119.697 69.891 119.145 70.5885 119.017 71.3405V71.3345Z" fill="#F3BD9B"/>
<path d="M67.3025 60.624C67.3389 60.3693 67.3753 60.1145 67.4117 59.8598C68.0913 59.4959 68.777 59.126 69.4565 58.7621C72.7634 58.938 73.6675 60.1267 72.8969 63.2622C72.2173 66.0399 70.6094 68.017 67.9578 69.1269C66.5198 68.9085 66.8414 67.7987 66.7079 66.8344C66.4106 64.7056 67.3875 62.7224 67.2965 60.6301L67.3025 60.624Z" fill="#ECA47C"/>
<path d="M117.658 67.9078C117.136 68.9994 116.724 70.3216 115.51 70.7158C112.913 71.5588 112.713 73.4389 112.798 75.7193C112.913 78.8184 112.561 81.96 114.072 84.859C113.805 85.0712 113.538 85.2835 113.271 85.4958C112.707 84.671 112.143 83.8401 111.572 83.0092C110.711 81.4869 109.855 79.9647 109 78.4484C110.747 77.7753 111.36 76.6593 110.923 74.7246C109.904 70.176 112.646 67.4711 117.652 67.9017L117.658 67.9078Z" fill="#ECA47C"/>
<path d="M67.3027 60.624C67.3937 62.7164 66.4168 64.6996 66.7142 66.8283C66.8476 67.7926 66.5261 68.9025 67.9641 69.1208C66.8234 69.5636 66.0892 70.4187 65.5552 71.4801C63.116 70.9039 61.1804 69.8244 61.3018 66.9072C61.411 64.3236 64.4145 61.2305 67.3088 60.624H67.3027Z" fill="#E0D9AB"/>
<path d="M122.524 86.072C124.49 85.5686 124.217 83.9554 124.387 82.4877C124.873 78.3636 123.319 74.4639 123.168 70.4126C123.374 70.3641 123.58 70.3156 123.78 70.2671C127.53 70.3459 126.79 73.9788 127.039 75.6405C127.476 78.5577 127.773 81.8934 126.05 84.8105C125.17 86.2964 124.266 87.2243 122.524 86.066V86.072Z" fill="#F3BD9B"/>
<path d="M72.6605 107.857C70.2577 108.427 67.8549 109.173 65.4824 107.76C66.1135 106.456 66.8659 105.237 67.9156 104.218C69.9118 104.818 71.3923 103.114 73.2308 103.023C73.0427 104.636 72.8486 106.25 72.6605 107.857Z" fill="#26B27B"/>
<path d="M56.3687 93.3437C49.5365 94.5506 46.175 92.9859 42.2735 86.7694C43.1654 86.3449 44.0149 85.6838 44.9493 85.5322C48.0074 85.0288 48.1106 83.2336 47.3157 80.8319C46.715 79.0004 45.1556 79.0549 43.7236 78.8124C37.1645 77.7753 33.5481 73.7058 31.9827 67.4833C31.7339 66.5008 31.5155 65.6396 31.9948 64.5964C36.94 53.9102 42.6618 43.6788 49.4758 33.6901C52.1577 36.8498 55.0823 39.5608 57.2485 42.9389C54.8699 42.8843 54.0144 40.7374 52.6006 39.4213C51.0534 37.984 50.125 37.796 48.8569 39.7731C47.1822 42.381 45.2163 44.813 43.2989 47.2571C41.8548 49.1008 41.3633 50.5018 43.845 52.0786C46.8424 53.989 47.1519 59.5808 44.658 61.7399C44.834 60.5633 45.0221 59.3928 44.5246 58.2283C44.0756 57.1731 43.5659 56.1178 42.2249 56.3422C41.0903 56.5302 40.6837 57.543 40.617 58.5801C40.5502 59.6596 40.6352 60.7513 40.6595 61.8369C38.3902 60.0902 39.0212 57.4945 38.7724 55.105C34.2338 60.442 36.0298 70.5339 42.1036 74.009C46.09 76.2894 50.2888 77.8723 55.0156 77.5933C55.8468 77.5448 56.9936 77.1324 57.4366 78.2301C57.8613 79.2733 56.7691 79.7767 56.2594 80.4802C55.4342 81.6204 54.5605 82.7363 53.8809 83.9553C51.5995 88.0491 52.2487 89.8018 56.5749 91.5485C56.5082 92.1489 56.4415 92.7493 56.3747 93.3437H56.3687Z" fill="#ECA47C"/>
<path d="M43.7238 78.8064C45.1619 79.055 46.7152 78.9944 47.3159 80.826C48.1108 83.2337 48.0076 85.0228 44.9495 85.5262C44.0151 85.6778 43.1656 86.3389 42.2737 86.7634C41.7336 86.8059 41.1997 86.8423 40.6597 86.8847C41.7094 84.6104 43.8937 82.8152 43.6025 79.9708C43.645 79.5827 43.6814 79.1945 43.7238 78.8003V78.8064Z" fill="#F9F9FB"/>
<path d="M63.571 49.7012C62.8671 49.6345 62.5091 49.2342 62.4424 48.5428C63.0067 48.7491 63.4132 49.1069 63.571 49.7012Z" fill="#ECA47C"/>
<path d="M62.4122 48.5126C61.581 48.4277 61.2594 47.9304 61.314 47.1359C61.6781 47.5968 62.0482 48.0517 62.4122 48.5126Z" fill="#ECA47C"/>
<path d="M57.0117 58.8167C55.4948 56.882 55.337 52.7579 56.7083 51.0658C58.2859 49.1251 60.1608 49.3555 61.077 51.7451C62.0721 54.3287 63.0005 57.0093 60.5309 59.3868C60.7554 57.4945 61.3258 54.8563 58.8987 54.6441C56.2775 54.4136 57.133 57.1428 57.0117 58.8167Z" fill="#ECA47C"/>
<path d="M43.8027 69.0541C48.0501 69.2846 52.2429 68.011 56.5024 68.5993C53.2016 73.1358 47.0489 73.3541 43.8027 69.0541Z" fill="#E4E6E4"/>
<path d="M40.6535 61.8369C40.6353 60.7513 40.5443 59.6596 40.611 58.5801C40.6778 57.543 41.0843 56.5241 42.219 56.3422C43.5599 56.1238 44.0757 57.1731 44.5186 58.2283C45.0162 59.3928 44.8281 60.5633 44.6521 61.7399C43.3658 63.8201 42.0248 63.529 40.6474 61.8369H40.6535Z" fill="#2E3643"/>
<path d="M43.8027 69.0541C47.0489 73.3541 53.1955 73.1357 56.5024 68.5992C58.0739 68.854 57.2365 69.703 56.8543 70.2913C54.1178 74.5003 44.9313 74.3123 42.5528 69.9214C41.7336 68.4052 43.2991 69.2542 43.7967 69.0602L43.8027 69.0541Z" fill="#3F4756"/>
<path d="M57.0117 58.8167C57.133 57.1428 56.2775 54.4136 58.8987 54.6441C61.3258 54.8563 60.7554 57.5006 60.5309 59.3868C59.014 61.2851 57.9825 60.2419 57.0117 58.8106V58.8167Z" fill="#2E3643"/>
<path d="M50.3496 62.9892C49.4697 61.4367 50.4163 60.3996 51.6662 60.1752C53.0557 59.9204 53.1528 61.3821 53.3895 62.4131C52.3155 62.2675 51.284 62.3767 50.3496 62.9892Z" fill="#E0D9AB"/>
<path d="M50.3496 62.9893C51.284 62.3767 52.3095 62.2676 53.3895 62.4131C53.7657 63.2622 54.2693 64.3235 52.6796 64.1659C51.8969 64.087 50.0948 65.3364 50.3557 62.9954L50.3496 62.9893Z" fill="#ECA47C"/>
<path d="M67.9094 104.218C66.8658 105.237 66.1134 106.462 65.4763 107.76C61.5505 112.739 57.2303 117.354 52.6492 121.733C51.6723 122.564 50.6894 123.395 49.7125 124.22C48.6931 124.268 47.7223 124.165 46.7939 123.643C45.4226 122.873 44.9797 121.739 46.2964 120.805C56.0835 113.812 58.8807 102.295 64.6207 92.6947C65.0333 92.0094 65.2821 91.2088 66.1255 90.8874C65.2882 97.4495 61.8478 102.956 58.9293 108.676C57.8492 110.798 55.8954 112.49 55.7498 115.08C55.5496 115.28 55.3493 115.48 55.1491 115.674C54.9428 115.874 54.7365 116.069 54.5363 116.269C54.4574 116.39 54.3846 116.517 54.3057 116.639C54.427 116.56 54.5545 116.487 54.6758 116.408C54.876 116.202 55.0702 115.996 55.2704 115.79C55.4707 115.589 55.6709 115.389 55.8711 115.189C61.7143 110.21 64.645 103.423 67.3815 96.5277C68.0065 94.9508 68.68 93.3436 68.9652 91.6879C69.396 89.1771 70.9493 88.2007 73.2247 87.8914C73.1943 93.8955 70.6399 99.081 67.9033 104.206L67.9094 104.218Z" fill="#E4E6E4"/>
<path d="M49.7188 124.226C50.6956 123.395 51.6786 122.564 52.6555 121.739C56.6238 124.505 61.1624 124.353 65.6889 124.286C60.3554 126.67 55.034 126.664 49.7248 124.226H49.7188Z" fill="#2BB37D"/>
<path d="M50.6468 108.554C48.6384 108.239 46.63 107.93 44.6216 107.614C44.6459 107.493 44.6641 107.378 44.6883 107.256H50.9623C50.8591 107.687 50.756 108.124 50.6468 108.554Z" fill="#26B27B"/>
<path d="M66.1313 90.8874C66.2163 90.4507 66.2952 90.0141 66.3801 89.5774C66.459 89.6259 66.5864 89.6623 66.6046 89.729C66.7745 90.2385 66.5682 90.6145 66.1374 90.8935L66.1313 90.8874Z" fill="#E4E6E4"/>
<path d="M46.1206 128.465L45.8779 128.332C45.9568 128.38 46.0357 128.429 46.1085 128.477L46.1206 128.465Z" fill="#E4E6E4"/>
<path d="M46.1143 128.477C46.1992 128.52 46.2902 128.562 46.3752 128.605C46.2902 128.556 46.2113 128.514 46.1264 128.465L46.1143 128.477Z" fill="#E4E6E4"/>
<path d="M9.14404 149.061C10.5821 149.092 11.923 149.565 13.1305 150.244C14.7081 151.129 15.2906 150.553 15.3573 148.176C16.3282 150.577 17.1594 152.142 18.3305 153.489C16.7468 153.404 15.2299 153.422 13.6463 153.962C12.1718 154.465 11.0129 153.573 10.4365 152.051C10.0542 151.038 9.57485 150.056 9.14404 149.061Z" fill="#ECA47C"/>
<path d="M19.5078 148.691V145.149C21.0247 145.92 21.1825 147.127 21.2674 148.382C20.6849 148.485 20.0964 148.588 19.5078 148.691Z" fill="#ECA47C"/>
<path d="M8.51314 178.803C8.17942 178.142 8.55561 177.821 9.09564 177.578C9.15631 178.112 9.18058 178.621 8.51314 178.803Z" fill="#F9F9FB"/>
<path d="M54.6817 116.414C54.5603 116.493 54.4329 116.566 54.3115 116.645C54.3904 116.523 54.4632 116.396 54.5421 116.275L54.6817 116.414Z" fill="#CCCDCB"/>
<path d="M55.2767 115.796C55.0764 116.002 54.8762 116.208 54.682 116.408C54.682 116.408 54.5425 116.275 54.5425 116.269C54.7488 116.069 54.949 115.868 55.1614 115.674L55.2767 115.79V115.796Z" fill="#CCCDCB"/>
<path d="M55.8771 115.195C55.6769 115.395 55.4766 115.596 55.2764 115.796L55.1611 115.68C55.3614 115.48 55.5616 115.28 55.7618 115.08L55.8771 115.195Z" fill="#CCCDCB"/>
<path d="M42.7651 61.1759C43.0165 61.1759 43.2202 60.9043 43.2202 60.5694C43.2202 60.2344 43.0165 59.9629 42.7651 59.9629C42.5138 59.9629 42.3101 60.2344 42.3101 60.5694C42.3101 60.9043 42.5138 61.1759 42.7651 61.1759Z" fill="#F9F9FB"/>
<path d="M59.1475 58.75C59.3988 58.75 59.6025 58.4784 59.6025 58.1435C59.6025 57.8085 59.3988 57.537 59.1475 57.537C58.8961 57.537 58.6924 57.8085 58.6924 58.1435C58.6924 58.4784 58.8961 58.75 59.1475 58.75Z" fill="#F9F9FB"/>
</g>
<defs>
<clipPath id="clip0_223_16597">
<rect width="151" height="183" fill="white"/>
</clipPath>
</defs>
</svg>
