<svg width="77" height="44" viewBox="0 0 77 44" fill="none" xmlns="http://www.w3.org/2000/svg">
<g opacity="0.5" clip-path="url(#clip0_456_867)">
<path d="M71.6589 42.6767C72.8354 42.6767 73.9968 42.6767 75.1582 42.6767C75.5341 42.6767 75.9099 42.6767 76.282 42.6767C76.6993 42.6767 76.9736 42.8843 76.9962 43.2957C77.0187 43.7479 76.7256 43.9592 76.2933 43.9926C76.1467 44.0037 76.0002 44 75.8573 44C51.8432 44 27.8329 43.9963 3.81876 43.9926C2.83774 43.9926 1.86049 43.9926 0.87948 44C0.413405 44 0.00746977 43.8777 -0.00380622 43.3513C-0.0113236 42.7842 0.405888 42.6693 0.902032 42.673C2.35664 42.6842 3.815 42.673 5.32974 42.673C5.34853 42.4655 5.37484 42.2913 5.37484 42.1171C5.37484 37.2652 5.38236 32.4134 5.36357 27.5653C5.36357 27.2465 5.23201 26.8833 5.04784 26.6164C4.54794 25.8825 3.96534 25.2043 3.46544 24.4741C3.32637 24.2702 3.24368 23.8959 3.34141 23.7031C3.43913 23.5067 3.78493 23.3695 4.04052 23.3288C4.44269 23.2695 4.86366 23.3139 5.32598 23.3139V20.3673C4.86366 20.2338 4.12697 20.3895 4.17207 19.5889C4.20966 18.9254 4.80353 19.0033 5.37108 18.9477C5.37108 18.299 5.37108 17.6504 5.37108 17.0017C5.37108 16.0306 5.51391 15.8861 6.48365 15.8861C11.4451 15.8861 16.4065 15.8861 21.368 15.8861C21.5935 15.8861 21.819 15.8861 22.1122 15.8861C22.1272 15.597 22.146 15.3598 22.146 15.1225C22.146 12.8208 22.2325 10.5153 22.1235 8.21731C22.0295 6.28622 22.6271 4.64423 23.8412 3.21352C24.42 2.53152 24.6793 1.83099 24.5741 0.971078C24.5553 0.811698 24.5177 0.589307 24.6042 0.489231C24.7883 0.281667 25.0364 0.014798 25.2732 -2.8028e-05C25.4649 -0.0111476 25.6754 0.315025 25.8708 0.492938C25.8934 0.515177 25.8896 0.574481 25.8821 0.611546C25.6378 1.84581 26.273 2.74279 26.9909 3.6583C27.9494 4.88145 28.423 6.28251 28.3102 7.86148C28.2614 8.55089 28.3027 9.24401 28.3027 9.98902C29.2762 9.72215 30.0881 9.82964 30.7646 10.5042C31.8396 9.61837 32.8995 9.61837 33.9407 10.4709C35.2562 9.62578 35.9065 9.62578 37.128 10.4783C38.1542 9.65173 39.2179 9.59242 40.2928 10.4894C41.3377 9.64061 42.3977 9.60725 43.4651 10.4894C44.5213 9.6332 45.5813 9.60725 46.6187 10.4783C47.6711 9.79628 47.9304 9.74439 49.1407 9.98531C49.1407 9.42563 49.1934 8.87707 49.1295 8.34333C48.8814 6.24544 49.7045 4.51821 51.0088 2.96518C51.411 2.48704 51.6064 2.0089 51.5388 1.40103C51.5087 1.11934 51.4561 0.782046 51.5726 0.552242C51.7004 0.307612 52.0048 0.0296241 52.2529 0.0110915C52.4446 -0.00373454 52.6664 0.359504 52.8693 0.559655C52.8919 0.581894 52.8844 0.641198 52.8768 0.678264C52.6513 1.8347 53.2038 2.6909 53.8954 3.56193C54.8689 4.78878 55.3463 6.18614 55.2937 7.80218C55.211 10.2262 55.2711 12.654 55.2749 15.0781C55.2749 15.2967 55.2749 15.5191 55.2749 15.812H56.0755C60.8903 15.812 65.7052 15.812 70.52 15.812C71.4371 15.812 71.6063 15.9862 71.6063 16.898C71.6063 17.5688 71.6063 18.2434 71.6063 18.9365C72.1851 19.0589 73.0045 18.8105 72.9707 19.6927C72.9368 20.4636 72.2077 20.2783 71.6551 20.3487V23.3213C72.1212 23.3213 72.5986 23.2769 73.0609 23.3399C73.3353 23.3769 73.7186 23.5252 73.8126 23.7291C73.9066 23.9366 73.7825 24.3332 73.6172 24.5445C73.0797 25.2265 72.467 25.8455 71.9145 26.5164C71.7566 26.7054 71.6138 26.9797 71.6138 27.2132C71.5988 32.2281 71.6025 37.243 71.6025 42.2579C71.6025 42.3765 71.6288 42.4951 71.6514 42.6879L71.6589 42.6767ZM28.3553 24.6779V39.7041H32.0238C32.0238 37.8027 32.0388 35.9568 32.02 34.111C32.0012 32.4097 32.6289 30.9864 33.8467 29.804C35.166 28.5253 36.7597 27.695 38.5037 27.1353C38.7067 27.0723 38.966 27.0649 39.1652 27.1353C40.9995 27.758 42.6758 28.6439 44.0289 30.0524C45.1039 31.1754 45.679 32.4913 45.6565 34.0591C45.6301 35.7233 45.6489 37.3876 45.6489 39.0518C45.6489 39.2705 45.6489 39.4854 45.6489 39.719H49.1069V24.6779H28.3591H28.3553ZM44.2958 42.6397C44.2958 42.358 44.2958 42.1171 44.2958 41.8761C44.2958 39.3075 44.2657 36.7426 44.3071 34.174C44.3296 32.7544 43.7809 31.6239 42.766 30.6788C41.7211 29.704 40.4808 29.0405 39.1502 28.5364C38.9735 28.4697 38.733 28.4586 38.5563 28.5216C37.1168 29.0405 35.7824 29.7447 34.6999 30.8456C33.8242 31.7388 33.3656 32.7915 33.3769 34.0628C33.4032 36.713 33.3807 39.3594 33.3844 42.0096C33.3844 42.2097 33.4032 42.4099 33.4182 42.6397H44.2996H44.2958ZM6.76931 27.8099V42.6249H9.87772C9.87772 40.6048 9.87396 38.6329 9.87772 36.6611C9.88524 33.8108 11.3774 31.8723 13.8018 30.5342C14.0198 30.4156 14.4069 30.3785 14.6136 30.4897C16.7335 31.6128 18.3798 33.1844 18.6091 35.6529C18.8008 37.7323 18.6955 39.8413 18.7256 41.9354C18.7256 42.1727 18.7444 42.4062 18.7557 42.6397H22.1084V27.8099H6.76931ZM58.2142 42.636C58.2142 42.3913 58.2142 42.169 58.2142 41.9503C58.2142 40.1823 58.2217 38.4143 58.2142 36.6463C58.1991 33.7774 59.7289 31.8686 62.1382 30.5268C62.3524 30.4082 62.7433 30.386 62.9501 30.4971C65.4007 31.8055 66.9981 33.7033 67.0395 36.5869C67.0658 38.4143 67.0395 40.2453 67.0432 42.0763C67.0432 42.2542 67.0658 42.4358 67.0771 42.6323H70.2043V27.8062H55.3162V42.6397H58.2104L58.2142 42.636ZM33.5949 20.3635H30.9601C30.9601 20.8306 30.9638 21.2383 30.9601 21.646C30.9526 22.1019 30.7421 22.4207 30.2534 22.4058C29.8024 22.391 29.6107 22.0834 29.6107 21.6497C29.6107 21.2235 29.6107 20.7972 29.6107 20.345H28.3478V23.2657H49.1182V20.3487H46.863C46.863 20.8083 46.863 21.2346 46.863 21.6608C46.863 22.0908 46.6563 22.4021 46.2052 22.4058C45.7241 22.4095 45.5174 22.0908 45.5174 21.6312C45.5174 21.2086 45.5174 20.7824 45.5174 20.3561H42.8826C42.8826 20.8046 42.875 21.2123 42.8826 21.6201C42.8901 22.0797 42.7021 22.4095 42.2173 22.4132C41.7286 22.4132 41.5407 22.076 41.537 21.6275C41.537 21.2049 41.537 20.7824 41.537 20.3154C41.0596 20.3154 40.6875 20.3154 40.3154 20.3154C38.9623 20.3154 38.9548 20.3154 38.9059 21.6312C38.8909 22.0908 38.7142 22.4207 38.2293 22.4132C37.7407 22.4095 37.5678 22.0611 37.5678 21.6089C37.5678 21.2012 37.5678 20.7972 37.5678 20.3673H34.933C34.933 20.8083 34.933 21.1938 34.933 21.583C34.9367 22.0537 34.7676 22.4244 34.2376 22.4132C33.749 22.4021 33.5799 22.0537 33.5911 21.6015C33.6024 21.1975 33.5911 20.7935 33.5911 20.371L33.5949 20.3635ZM6.77682 20.3302V23.2657H22.1009V20.3302H6.77682ZM70.2268 20.3487H55.3237V23.2732H70.2268V20.3487ZM49.0956 18.9477V17.1685H28.3553V18.9477H49.0956ZM28.344 15.7638H49.1069V14.1181H28.344V15.7638ZM11.2722 36.9428V42.3876H17.3086V36.9428H11.2722ZM65.6375 42.4173V36.9724H59.5973V42.4173H65.6375ZM26.9082 37.154V27.8099H23.5593V37.154H26.9082ZM50.5352 27.8025V37.1503H53.8917V27.8025H50.5352ZM22.1047 18.9551V17.2427H6.77307V18.9551H22.1047ZM5.29215 24.6668C5.68305 25.1931 6.02133 25.6046 6.31451 26.0456C6.52123 26.357 6.77682 26.4496 7.14893 26.4496C11.9412 26.4385 16.7373 26.4422 21.5296 26.4385C21.7288 26.4385 21.9242 26.42 22.1047 26.4126V24.6668H5.29215ZM55.32 18.9477H70.2118V17.1685H55.32V18.9477ZM55.32 26.3903C55.4515 26.4163 55.5117 26.4348 55.5718 26.4348C60.3228 26.4348 65.0775 26.4385 69.8284 26.4348C69.9675 26.4348 70.1554 26.4237 70.2344 26.3384C70.723 25.8232 71.1853 25.2858 71.7265 24.6742H55.32V26.3829V26.3903ZM26.9233 23.2806V17.1945H23.5517V23.2806H26.9233ZM50.5352 17.1685V23.2769H53.8954V17.1685H50.5352ZM26.9345 38.5588H23.548V42.6286H26.9345V38.5588ZM17.1846 35.5639C17.2485 35.5046 17.3086 35.4453 17.3725 35.386C16.959 34.6929 16.6621 33.8886 16.1096 33.3252C14.2152 31.3941 14.3054 31.3904 12.3848 33.366C11.8097 33.959 11.4526 34.6966 11.3436 35.5639H17.1808H17.1846ZM65.521 35.5528C65.4308 34.3037 63.8634 32.254 62.7245 31.8871C62.6231 31.8537 62.469 31.8649 62.3825 31.9205C61.0219 32.7767 60.007 33.8886 59.6424 35.5528H65.5248H65.521ZM53.8992 42.6545V38.5662H50.5465V42.6545H53.8992ZM23.5442 12.0202V15.7638H26.9345V12.0202H23.5442ZM53.8917 15.7897V12.0239H50.5577V15.7897H53.8917ZM23.5593 7.69469V10.6043H24.5177C24.6718 10.0669 24.326 9.23289 25.2056 9.21065C26.1828 9.18471 25.7581 10.1225 25.9723 10.6043H26.912V7.69098H23.5593V7.69469ZM53.903 7.72805H50.539V10.6191H51.4937C51.6365 10.0743 51.3132 9.21807 52.2191 9.21436C53.1399 9.21436 52.7979 10.0743 52.9257 10.6006H53.8992V7.73176L53.903 7.72805ZM26.9157 26.4089V24.6853H23.5593V26.4089H26.9157ZM28.3478 41.1126V42.6323H31.9787V41.1126H28.3478ZM50.5202 26.3903H53.8992V24.7002H50.5202V26.3903ZM45.679 42.6323H49.0994V41.12H45.679V42.6323ZM50.4863 6.28992H53.9781C53.3843 5.30028 52.8656 4.43667 52.3506 3.57676C52.2755 3.58417 52.2003 3.58788 52.1251 3.59529C51.5989 4.45891 51.0764 5.32252 50.4863 6.28992ZM25.3785 3.58417C25.3033 3.58417 25.2244 3.58046 25.1492 3.57676C24.6192 4.45149 24.0892 5.32994 23.4954 6.30475H26.9834C26.4008 5.32252 25.8896 4.45149 25.3747 3.58046L25.3785 3.58417ZM45.9384 12.7059C46.0549 12.1314 45.9872 11.6162 45.4911 11.3197C45.2731 11.1899 44.8483 11.1899 44.6303 11.3197C44.1342 11.6162 44.0816 12.1388 44.1981 12.7059H45.9421H45.9384ZM36.4364 12.7133C36.5267 12.1054 36.4665 11.5717 35.9478 11.3048C35.7148 11.1862 35.2637 11.227 35.0457 11.379C34.6022 11.6866 34.5684 12.1907 34.6962 12.7133H36.4402H36.4364ZM47.3704 12.7022H49.0994C49.2009 12.1314 49.1633 11.6051 48.6559 11.316C48.4341 11.1899 48.0169 11.1899 47.7989 11.316C47.2877 11.6125 47.2877 12.1425 47.3704 12.6985V12.7022ZM42.766 12.7096C42.8525 12.098 42.8111 11.568 42.2812 11.2974C42.0556 11.1825 41.6384 11.201 41.428 11.3382C40.9468 11.6532 40.913 12.1647 41.0483 12.7059H42.766V12.7096ZM30.0768 12.7022C30.1858 12.1314 30.1369 11.6088 29.6333 11.3197C29.4153 11.1936 28.9943 11.1936 28.7763 11.3197C28.2689 11.6162 28.2463 12.1425 28.3516 12.7022H30.0768ZM33.2604 12.7022C33.3355 12.1388 33.3205 11.6088 32.8056 11.316C32.5838 11.1899 32.1666 11.1862 31.9486 11.316C31.4412 11.6125 31.4186 12.1388 31.5201 12.7022H33.2566H33.2604ZM39.5975 12.7096C39.6839 12.1129 39.6501 11.5828 39.1276 11.3011C38.9059 11.1825 38.4849 11.1936 38.2707 11.3271C37.7745 11.6347 37.767 12.1573 37.8647 12.7096H39.5975Z" fill="#1D6B4E"/>
<path d="M45.7956 28.7662C45.198 28.7662 44.7319 28.3066 44.7319 27.7173C44.7319 27.1317 45.2055 26.6609 45.7956 26.6609C46.382 26.6609 46.8669 27.1391 46.8669 27.7173C46.8669 28.2955 46.3857 28.7662 45.7956 28.7662Z" fill="black"/>
<path d="M31.6668 26.6609C32.2532 26.6943 32.6967 27.191 32.6629 27.7766C32.6291 28.3659 32.1367 28.7959 31.5353 28.7625C30.9489 28.7292 30.4866 28.2214 30.528 27.6506C30.5693 27.0724 31.0767 26.6276 31.6631 26.6609H31.6668Z" fill="black"/>
<path d="M20.2517 30.6566C20.2442 31.2385 19.7556 31.7092 19.1692 31.6981C18.5866 31.687 18.1093 31.1977 18.1168 30.6232C18.1243 30.0413 18.6054 29.5854 19.203 29.5928C19.8044 29.6002 20.2592 30.0635 20.2479 30.6566H20.2517Z" fill="black"/>
<path d="M9.42667 29.5928C10.0205 29.6002 10.4904 30.0746 10.4791 30.6566C10.4678 31.2311 9.97544 31.7092 9.39285 31.6981C8.81025 31.6907 8.3329 31.2051 8.34042 30.6269C8.34794 30.0376 8.82153 29.5854 9.42291 29.5928H9.42667Z" fill="black"/>
<path d="M68.5805 30.6269C68.588 31.2014 68.1069 31.6907 67.5243 31.6981C66.9455 31.7055 66.4418 31.2274 66.4343 30.6566C66.423 30.0858 66.9079 29.6039 67.4942 29.5928C68.0918 29.5854 68.5692 30.0413 68.5767 30.6269H68.5805Z" fill="black"/>
<path d="M58.7932 30.6121C58.8082 31.1977 58.3459 31.6832 57.7633 31.6981C57.1882 31.7129 56.677 31.2385 56.6583 30.6714C56.6395 30.0969 57.1131 29.6076 57.7032 29.5928C58.3083 29.5779 58.7781 30.019 58.7932 30.6121Z" fill="black"/>
</g>
<defs>
<clipPath id="clip0_456_867">
<rect width="77" height="44" fill="white"/>
</clipPath>
</defs>
</svg>
