<svg width="75" height="74" viewBox="0 0 75 74" fill="none" xmlns="http://www.w3.org/2000/svg">
<g clip-path="url(#clip0_350_20521)">
<path d="M35.7357 74C34.8567 73.7868 33.9163 73.7064 33.1149 73.3364C31.7942 72.7211 30.4572 72.0535 29.3205 71.1727C26.0781 68.6631 22.9298 66.0329 19.7446 63.451C19.5157 63.266 19.2826 63.089 19.0414 62.9241C18.424 62.5059 17.8924 62.0836 17.0583 62.711C16.4 63.2056 15.5373 63.0247 14.8218 62.5984C11.0438 60.3462 7.22078 58.1503 3.51228 55.7936C0.0409335 53.5897 -1.00579 49.0773 1.03859 45.5381C2.20388 43.5232 3.45095 41.5526 4.77162 39.6302C7.02861 36.3485 11.5222 35.2505 15.0303 37.2091C18.9146 39.3768 22.7131 41.6974 26.5442 43.9576C27.3415 44.4281 27.7054 45.1521 27.779 46.061C27.7995 46.3143 27.9835 46.6401 28.1961 46.7768C29.3491 47.5128 30.5144 48.2327 31.7206 48.8802C32.1949 49.1336 32.7837 49.3025 33.3234 49.3105C36.4431 49.3507 39.5669 49.3347 42.6866 49.3226C42.9647 49.3226 43.2754 49.2502 43.5166 49.1175C44.6697 48.474 45.7982 47.7903 46.9512 47.1428C47.2824 46.9578 47.3396 46.7688 47.2824 46.3948C47.1352 45.4014 47.4991 44.5488 48.3741 44.03C52.2829 41.7094 56.1632 39.3326 60.1497 37.1448C63.5842 35.2626 67.9878 36.3927 70.2203 39.6021C71.4796 41.4159 72.6367 43.3021 73.7816 45.1882C76.1245 49.0612 75.0082 53.6781 71.1157 56.0711C67.5544 58.2589 63.9441 60.3703 60.3541 62.5099C60.1252 62.6466 59.8635 62.8276 59.6222 62.8195C58.9803 62.8075 58.2402 62.8759 57.7251 62.5903C57.124 62.2525 56.7356 62.2686 56.2531 62.6466C55.2391 63.4389 54.1556 64.1548 53.2233 65.0275C51.3875 66.7367 49.5884 68.4982 47.8507 70.304C46.1498 72.0736 44.3262 73.5898 41.7871 74H35.7398H35.7357ZM48.4763 66.8011C46.1743 64.2432 43.7701 61.5607 41.3496 58.8943C40.8712 58.3675 40.4542 58.3755 39.8858 58.8782C38.7533 59.8797 37.6452 60.9092 36.5085 61.9106C35.5395 62.7673 34.3987 63.1534 33.1067 62.9161C29.9706 62.341 28.7399 58.8179 30.8374 56.3928C32.3584 54.6313 33.9163 52.906 35.5272 51.0922C35.1306 51.0922 34.7912 51.064 34.4601 51.0962C32.7469 51.2571 31.2218 50.8147 29.8111 49.8414C28.9116 49.2221 27.9344 48.7153 26.9327 48.1241C24.2464 52.355 21.5887 56.5416 18.9391 60.7202C19.6465 61.2189 20.3089 61.6331 20.914 62.1198C24.1114 64.6897 27.2966 67.2716 30.4776 69.8656C31.8678 70.9998 33.4174 71.8926 35.2083 72.0575C37.2568 72.2465 39.3298 72.2304 41.3905 72.1902C42.5353 72.1661 43.6598 71.776 44.4857 70.9837C45.8513 69.6686 47.1107 68.2449 48.4804 66.8011H48.4763ZM21.8626 43.286C19.1477 41.7094 16.584 40.0927 13.8977 38.6931C11.2523 37.3137 7.96085 38.2226 6.27628 40.6799C5.00059 42.5419 3.79441 44.4523 2.66182 46.3988C1.02632 49.2019 1.89723 52.6486 4.68985 54.4061C7.06541 55.9022 9.50231 57.3017 11.9147 58.7455C11.9883 58.7898 12.0823 58.8018 12.1968 58.838C15.4106 53.6661 18.608 48.5182 21.8626 43.286ZM62.8524 58.8984C65.3179 57.4264 67.7016 56.0309 70.0567 54.5911C73.2296 52.6526 74.0637 49.1255 72.1175 45.9805C71.1239 44.3718 70.1099 42.7752 69.0877 41.1826C67.0515 38.0054 63.5924 37.189 60.2887 39.1074C58.2811 40.2737 56.2899 41.4641 54.2905 42.6425C53.9389 42.8516 53.5832 43.0567 53.162 43.3061C56.4003 48.5223 59.61 53.6822 62.8524 58.9024V58.8984ZM56.0977 60.7484C53.4319 56.5497 50.8641 52.5038 48.2719 48.4217C47.5318 48.848 46.8163 49.1818 46.1948 49.6363C44.592 50.8106 42.842 51.2611 40.8344 51.1243C38.9495 50.9956 37.3385 51.7879 36.0792 53.1794C34.7872 54.6031 33.5196 56.0469 32.2562 57.4988C31.3812 58.5082 31.4058 59.8314 32.2808 60.6317C33.1639 61.4441 34.3824 61.3959 35.3964 60.495C36.4881 59.5217 37.5675 58.5324 38.6592 57.5591C39.984 56.3767 41.5459 56.4491 42.748 57.7562C43.7211 58.8139 44.6697 59.8917 45.6305 60.9575C47.0616 62.5461 48.4927 64.1306 49.9401 65.7313C51.8781 63.9054 53.5177 61.8342 56.1018 60.7443L56.0977 60.7484ZM51.5838 44.2552C51.4488 44.2793 51.3957 44.2753 51.3548 44.2954C50.8273 44.6011 50.2999 44.9107 49.7765 45.2244C48.8729 45.7634 48.8238 45.9484 49.3758 46.8211C51.5429 50.2396 53.714 53.658 55.8851 57.0765C56.6497 58.283 57.4143 59.4936 58.183 60.7001C58.4406 61.1063 58.7677 61.3838 59.2747 61.0982C59.9493 60.7162 60.6117 60.31 61.3068 59.8998C58.0399 54.6434 54.818 49.4553 51.5838 44.2512V44.2552ZM23.4736 44.1828C20.1944 49.4593 16.9643 54.6554 13.7055 59.9038C14.3679 60.3019 14.9771 60.6559 15.5741 61.0259C16.1016 61.3556 16.4941 61.2229 16.8089 60.7242C17.2341 60.0486 17.6635 59.3729 18.0928 58.6973C20.6115 54.7278 23.1342 50.7584 25.6529 46.7849C26.1762 45.9604 26.119 45.7513 25.2522 45.2405C24.6879 44.9067 24.1237 44.5689 23.4736 44.1828Z" fill="black"/>
<path d="M38.0949 -6.58119e-06C40.0575 1.13412 41.971 2.35271 43.9868 3.3863C47.131 4.99499 50.4674 6.01249 54.0492 6.1251C55.562 6.17336 56.6701 7.2351 56.666 8.64673C56.6578 14.5145 55.7664 20.2012 52.9738 25.4777C49.9154 31.2529 45.2134 35.3792 39.4482 38.4156C38.1235 39.1114 36.7374 39.0551 35.4167 38.3513C25.8736 33.2638 20.1166 25.5541 18.7551 14.8603C18.5015 12.8736 18.4157 10.8627 18.338 8.85989C18.2767 7.32358 19.3275 6.18543 20.8812 6.12912C26.1802 5.94412 30.7596 3.8488 35.106 1.07782C35.6988 0.699776 36.3122 0.357928 36.9132 -0.00402832C37.3057 -0.00402832 37.6982 -0.00402832 38.0949 -0.00402832V-6.58119e-06ZM20.0798 9.39075C20.3047 11.5504 20.411 13.7262 20.7708 15.8617C22.3777 25.3369 27.7299 32.1659 36.2304 36.7145C37.044 37.1488 37.8904 37.185 38.6959 36.7547C44.412 33.6981 48.975 29.5276 51.8004 23.6599C53.9756 19.1395 54.6666 14.3214 54.8465 9.39478C54.8874 8.20836 54.6298 8.00325 53.4399 7.87456C51.9353 7.70967 50.4143 7.54478 48.9505 7.18684C45.0948 6.24575 41.6235 4.4601 38.377 2.23608C37.7637 1.81782 37.2485 1.80173 36.6393 2.22804C35.842 2.78706 35.0119 3.31391 34.1615 3.79651C30.1913 6.05271 26.0289 7.72978 21.3596 7.90673C20.3292 7.94695 20.1207 8.26065 20.0757 9.38673L20.0798 9.39075Z" fill="black"/>
<path d="M48.4724 66.8011C47.1027 68.2449 45.8433 69.6686 44.4777 70.9837C43.6518 71.78 42.5233 72.1701 41.3825 72.1902C39.3218 72.2304 37.2488 72.2465 35.2003 72.0575C33.4053 71.8926 31.8598 70.9998 30.4696 69.8657C27.2927 67.2716 24.1034 64.6897 20.906 62.1198C20.3009 61.6332 19.6344 61.2189 18.9312 60.7202C21.5848 56.5416 24.2424 52.355 26.9247 48.1241C27.9264 48.7153 28.9036 49.2221 29.8031 49.8414C31.2138 50.8147 32.7389 51.2611 34.4521 51.0962C34.7832 51.064 35.1185 51.0922 35.5192 51.0922C33.9123 52.91 32.3504 54.6353 30.8294 56.3928C28.736 58.8179 29.9626 62.341 33.0987 62.9161C34.3907 63.1534 35.5315 62.7633 36.5005 61.9107C37.6331 60.9093 38.7453 59.8797 39.8778 58.8783C40.4462 58.3756 40.8632 58.3675 41.3416 58.8944C43.7622 61.5648 46.1704 64.2473 48.4683 66.8011H48.4724Z" fill="#E3F0E9"/>
<path d="M21.8625 43.282C18.6119 48.5142 15.4145 53.6621 12.1967 58.834C12.0822 58.7978 11.9881 58.7858 11.9145 58.7415C9.50216 57.3017 7.06527 55.9022 4.6897 54.4021C1.89708 52.6405 1.02209 49.1979 2.66168 46.3948C3.79835 44.4483 5.00453 42.5379 6.27614 40.6759C7.9607 38.2146 11.2521 37.3097 13.8976 38.6891C16.5798 40.0887 19.1475 41.7054 21.8625 43.282Z" fill="#2B9061"/>
<path d="M62.8525 58.8944C59.6101 53.6742 56.4045 48.5143 53.1621 43.2981C53.5833 43.0527 53.9349 42.8436 54.2906 42.6345C56.29 41.4561 58.2812 40.2657 60.2888 39.0994C63.5925 37.181 67.0516 37.9974 69.0878 41.1746C70.11 42.7672 71.124 44.3638 72.1176 45.9725C74.0638 49.1215 73.2297 52.6446 70.0568 54.5831C67.7017 56.0229 65.3221 57.4184 62.8525 58.8903V58.8944Z" fill="#2B9061"/>
<path d="M56.0976 60.7444C53.5135 61.8302 51.878 63.9054 49.9359 65.7313C48.4885 64.1266 47.0574 62.5421 45.6263 60.9575C44.6655 59.8918 43.7169 58.8139 42.7438 57.7562C41.5417 56.4491 39.9839 56.3768 38.655 57.5591C37.5633 58.5324 36.4839 59.5218 35.3922 60.495C34.3782 61.3959 33.1597 61.4441 32.2766 60.6318C31.4016 59.8314 31.377 58.5043 32.252 57.4988C33.5114 56.047 34.783 54.6032 36.075 53.1795C37.3384 51.7879 38.9453 50.9957 40.8302 51.1244C42.8378 51.2611 44.5878 50.8107 46.1906 49.6363C46.8121 49.1819 47.5276 48.8481 48.2677 48.4218C50.8599 52.5078 53.4277 56.5537 56.0935 60.7484L56.0976 60.7444Z" fill="#E3F0E9"/>
<path d="M51.5837 44.2512C54.8179 49.4554 58.0398 54.6434 61.3067 59.8998C60.6116 60.31 59.9533 60.7162 59.2746 61.0983C58.7676 61.3838 58.4405 61.1063 58.1829 60.7001C57.4142 59.4936 56.6537 58.2831 55.885 57.0765C53.7139 53.6581 51.5428 50.2396 49.3757 46.8211C48.8238 45.9484 48.8728 45.7634 49.7764 45.2245C50.2998 44.9108 50.8272 44.6011 51.3547 44.2955C51.3915 44.2713 51.4487 44.2794 51.5837 44.2552V44.2512Z" fill="white"/>
<path d="M23.4736 44.1788C24.1237 44.5649 24.688 44.8987 25.2522 45.2366C26.119 45.7473 26.1763 45.9564 25.6529 46.7809C23.1342 50.7504 20.6115 54.7198 18.0928 58.6933C17.6635 59.3689 17.2342 60.0446 16.8089 60.7202C16.4941 61.2189 16.1016 61.3517 15.5741 61.0219C14.9772 60.6479 14.3679 60.2939 13.7056 59.8998C16.9643 54.6555 20.1944 49.4554 23.4736 44.1788Z" fill="white"/>
<path d="M20.0801 9.39079C20.1251 8.2647 20.3336 7.951 21.3639 7.91079C26.0292 7.72981 30.1916 6.05274 34.1658 3.80057C35.0163 3.31796 35.8422 2.79513 36.6436 2.23209C37.2569 1.80177 37.768 1.81785 38.3813 2.24013C41.6278 4.46416 45.0992 6.24981 48.9549 7.1909C50.4186 7.54883 51.9396 7.71372 53.4443 7.87861C54.6382 8.01133 54.8958 8.21242 54.8508 9.39883C54.675 14.3255 53.984 19.1435 51.8047 23.6639C48.9794 29.5276 44.4163 33.7022 38.7003 36.7587C37.8948 37.1891 37.0443 37.1529 36.2347 36.7185C27.7342 32.1699 22.382 25.341 20.7752 15.8658C20.4113 13.7302 20.305 11.5505 20.0842 9.39481L20.0801 9.39079ZM35.7809 18.5402C35.1185 17.8807 34.5297 17.2654 33.9123 16.6782C32.3423 15.1861 30.1016 15.17 28.6337 16.6179C27.1863 18.0456 27.1904 20.2294 28.691 21.7576C30.1425 23.2336 31.6226 24.6855 33.1232 26.1132C34.6279 27.5449 36.6518 27.569 38.2341 26.2017C38.8434 25.6748 39.4158 25.1077 40.0046 24.5608C42.466 22.2684 44.952 19.9961 47.3848 17.6715C49.5355 15.6205 48.7054 12.2663 45.8678 11.5183C44.4818 11.1523 43.2633 11.5464 42.2207 12.5277C40.1109 14.5145 37.9806 16.4851 35.7768 18.5402H35.7809Z" fill="#FF7127"/>
<path d="M35.7806 18.5402C37.9885 16.4851 40.1147 14.5145 42.2245 12.5277C43.2671 11.5464 44.4815 11.1523 45.8716 11.5183C48.7092 12.2663 49.5393 15.6205 47.3886 17.6715C44.9558 19.9921 42.4698 22.2644 40.0084 24.5608C39.4196 25.1077 38.8472 25.6788 38.2379 26.2017C36.6556 27.569 34.6276 27.5449 33.127 26.1132C31.6264 24.6855 30.1463 23.2336 28.6948 21.7576C27.1942 20.2294 27.1901 18.0496 28.6375 16.6178C30.1054 15.17 32.342 15.1901 33.9161 16.6782C34.5335 17.2653 35.1223 17.8767 35.7847 18.5402H35.7806ZM31.2748 17.2412C30.4284 17.394 29.8805 17.764 29.5739 18.4357C29.2468 19.1475 29.3817 19.8312 29.9296 20.3782C31.4261 21.8823 32.9307 23.3744 34.464 24.8383C35.2286 25.5702 36.1854 25.5823 36.9786 24.8544C40.0656 22.011 43.1281 19.1475 46.1865 16.28C46.6771 15.8215 46.8938 15.2384 46.718 14.5627C46.3459 13.135 44.7391 12.7248 43.5819 13.7906C41.2513 15.9382 38.9412 18.1099 36.6188 20.2696C35.9482 20.893 35.5884 20.8889 34.9301 20.2495C34.1574 19.5055 33.4296 18.7172 32.62 18.0094C32.2397 17.6756 31.7246 17.4946 31.2707 17.2412H31.2748Z" fill="#FF7127"/>
<path d="M31.2751 17.2412C31.7289 17.4906 32.2441 17.6756 32.6244 18.0094C33.4299 18.7172 34.1618 19.5054 34.9345 20.2495C35.5928 20.8849 35.9526 20.8929 36.6232 20.2696C38.9456 18.1139 41.2557 15.9382 43.5863 13.7906C44.7435 12.7248 46.3503 13.139 46.7224 14.5627C46.8982 15.2384 46.6815 15.8215 46.1909 16.28C43.1284 19.1475 40.0659 22.015 36.983 24.8544C36.1898 25.5823 35.233 25.5702 34.4684 24.8383C32.9351 23.3744 31.4305 21.8783 29.934 20.3782C29.3861 19.8312 29.2512 19.1475 29.5783 18.4357C29.889 17.764 30.4328 17.394 31.2792 17.2412H31.2751Z" fill="#F5F5F5"/>
</g>
<defs>
<clipPath id="clip0_350_20521">
<rect width="75" height="74" fill="white"/>
</clipPath>
</defs>
</svg>
